Perun-Regular.ufo
<glyph name="exclam" format="2">
  <advance width="223"/>
  <unicode hex="0021"/>
  <outline>
    <contour>
      <point x="163" y="0" type="line"/>
      <point x="63" y="0" type="line"/>
      <point x="63" y="95" type="line"/>
      <point x="163" y="95" type="line"/>
    </contour>
    <contour>
      <point x="163" y="722" type="line"/>
      <point x="143" y="169" type="line"/>
      <point x="80" y="169" type="line"/>
      <point x="60" y="722" type="line"/>
    </contour>
  </outline>
</glyph>
<glyph name="percent" format="2">
  <advance width="948"/>
  <unicode hex="0025"/>
  <outline>
    <contour>
      <point x="222" y="-14" type="line"/>
      <point x="648" y="736" type="line"/>
      <point x="739" y="736" type="line"/>
      <point x="312" y="-14" type="line"/>
    </contour>
    <contour>
      <point x="542" y="188.976" type="curve" smooth="yes"/>
      <point x="542" y="304.845"/>
      <point x="612.425" y="380"/>
      <point x="721" y="380" type="curve" smooth="yes"/>
      <point x="830.191" y="380"/>
      <point x="900" y="305.502"/>
      <point x="900" y="188.976" type="curve" smooth="yes"/>
      <point x="900" y="72.3839"/>
      <point x="829.148" y="-4"/>
      <point x="721" y="-4" type="curve" smooth="yes"/>
      <point x="612.959" y="-4"/>
      <point x="542" y="72.499"/>
    </contour>
    <contour>
      <point x="627" y="188" type="curve" smooth="yes"/>
      <point x="627" y="110.598"/>
      <point x="661.955" y="66"/>
      <point x="721" y="66" type="curve" smooth="yes"/>
      <point x="780.045" y="66"/>
      <point x="815" y="110.598"/>
      <point x="815" y="188" type="curve" smooth="yes"/>
      <point x="815" y="265.402"/>
      <point x="780.045" y="310"/>
      <point x="721" y="310" type="curve" smooth="yes"/>
      <point x="661.955" y="310"/>
      <point x="627" y="265.402"/>
    </contour>
    <contour>
      <point x="51" y="534.976" type="curve" smooth="yes"/>
      <point x="51" y="650.845"/>
      <point x="121.425" y="726"/>
      <point x="230" y="726" type="curve" smooth="yes"/>
      <point x="339.191" y="726"/>
      <point x="409" y="651.502"/>
      <point x="409" y="534.976" type="curve" smooth="yes"/>
      <point x="409" y="418.384"/>
      <point x="338.148" y="342"/>
      <point x="230" y="342" type="curve" smooth="yes"/>
      <point x="121.959" y="342"/>
      <point x="51" y="418.499"/>
    </contour>
    <contour>
      <point x="136" y="534" type="curve" smooth="yes"/>
      <point x="136" y="456.598"/>
      <point x="170.955" y="412"/>
      <point x="230" y="412" type="curve" smooth="yes"/>
      <point x="289.045" y="412"/>
      <point x="324" y="456.598"/>
      <point x="324" y="534" type="curve" smooth="yes"/>
      <point x="324" y="611.402"/>
      <point x="289.045" y="656"/>
      <point x="230" y="656" type="curve" smooth="yes"/>
      <point x="170.955" y="656"/>
      <point x="136" y="611.402"/>
    </contour>
  </outline>
</glyph>
<glyph name="plus" format="2">
  <advance width="740"/>
  <unicode hex="002B"/>
  <outline>
    <contour>
      <point x="70" y="267" type="line"/>
      <point x="339" y="267" type="line"/>
      <point x="339" y="-2" type="line"/>
      <point x="401" y="-2" type="line"/>
      <point x="401" y="267" type="line"/>
      <point x="670" y="267" type="line"/>
      <point x="670" y="331" type="line"/>
      <point x="401" y="331" type="line"/>
      <point x="401" y="600" type="line"/>
      <point x="339" y="600" type="line"/>
      <point x="339" y="331" type="line"/>
      <point x="70" y="331" type="line"/>
    </contour>
  </outline>
  <guideline angle="0" x="0" y="304"/>
  <guideline angle="90" x="372" y="0"/>
</glyph>
<glyph name="period" format="2">
  <advance width="228"/>
  <unicode hex="002E"/>
  <outline>
    <contour>
      <point x="60" y="0" type="line"/>
      <point x="168" y="0" type="line"/>
      <point x="168" y="123" type="line"/>
      <point x="60" y="123" type="line"/>
    </contour>
  </outline>
</glyph>
<glyph name="one" format="2">
  <advance width="558"/>
  <unicode hex="0031"/>
  <outline>
    <contour>
      <point x="286" y="0" type="line"/>
      <point x="286" y="602" type="line"/>
      <point x="249" y="576"/>
      <point x="197" y="548"/>
      <point x="130" y="519" type="curve"/>
      <point x="130" y="602" type="line"/>
      <point x="182" y="633"/>
      <point x="261" y="696"/>
      <point x="279" y="722" type="curve"/>
      <point x="379" y="722" type="line"/>
      <point x="379" y="0" type="line"/>
    </contour>
  </outline>
</glyph>
<glyph name="two" format="2">
  <advance width="558"/>
  <unicode hex="0032"/>
  <outline>
    <contour>
      <point x="60" y="0" type="line"/>
      <point x="495" y="0" type="line"/>
      <point x="495" y="78" type="line"/>
      <point x="158" y="78" type="line"/>
      <point x="161.491" y="71.7163" type="line"/>
      <point x="299.071" y="172.483"/>
      <point x="495" y="356.431"/>
      <point x="495" y="531" type="curve" smooth="yes"/>
      <point x="495" y="650"/>
      <point x="405" y="736"/>
      <point x="284" y="736" type="curve" smooth="yes"/>
      <point x="151" y="736"/>
      <point x="79" y="666"/>
      <point x="68" y="526" type="curve"/>
      <point x="170" y="526" type="line"/>
      <point x="180" y="610"/>
      <point x="218" y="653"/>
      <point x="287" y="653" type="curve" smooth="yes"/>
      <point x="356" y="653"/>
      <point x="397" y="610"/>
      <point x="397" y="526" type="curve" smooth="yes"/>
      <point x="397" y="415"/>
      <point x="277" y="241"/>
      <point x="60" y="93" type="curve"/>
    </contour>
  </outline>
</glyph>
<glyph name="four" format="2">
  <advance width="558"/>
  <unicode hex="0034"/>
  <outline>
    <contour>
      <point x="98" y="259" type="line"/>
      <point x="103.311" y="249.037" type="line"/>
      <point x="353.689" y="621.963" type="line"/>
      <point x="347" y="624" type="line"/>
      <point x="347" y="0" type="line"/>
      <point x="440" y="0" type="line"/>
      <point x="440" y="722" type="line"/>
      <point x="330" y="722" type="line"/>
      <point x="30" y="281" type="line"/>
      <point x="30" y="176" type="line"/>
      <point x="362" y="176" type="line"/>
      <point x="362" y="259" type="line"/>
    </contour>
    <contour>
      <point x="425" y="176" type="line"/>
      <point x="425" y="259" type="line"/>
      <point x="529" y="259" type="line"/>
      <point x="529" y="176" type="line"/>
    </contour>
  </outline>
  <guideline angle="296.565" x="98" y="259"/>
  <guideline angle="0" x="0" y="705"/>
</glyph>
<glyph name="eight" format="2">
  <advance width="558"/>
  <unicode hex="0038"/>
  <outline>
    <contour>
      <point x="135" y="199" type="curve" smooth="yes"/>
      <point x="135" y="113"/>
      <point x="188.866" y="64"/>
      <point x="277.504" y="64" type="curve" smooth="yes"/>
      <point x="366.142" y="64"/>
      <point x="414" y="114"/>
      <point x="414" y="200" type="curve" smooth="yes"/>
      <point x="414" y="288"/>
      <point x="363.154" y="343"/>
      <point x="278.5" y="343" type="curve" smooth="yes"/>
      <point x="192.85" y="343"/>
      <point x="135" y="287"/>
    </contour>
    <contour>
      <point x="278.5" y="420" type="curve" smooth="yes"/>
      <point x="350.207" y="420"/>
      <point x="401" y="471"/>
      <point x="401" y="545" type="curve" smooth="yes"/>
      <point x="401" y="617"/>
      <point x="354.191" y="661"/>
      <point x="278.5" y="661" type="curve" smooth="yes"/>
      <point x="202.809" y="661"/>
      <point x="156" y="616"/>
      <point x="156" y="545" type="curve" smooth="yes"/>
      <point x="156" y="472"/>
      <point x="206.793" y="420"/>
    </contour>
    <contour>
      <point x="514" y="185" type="curve" smooth="yes"/>
      <point x="514" y="64"/>
      <point x="419.127" y="-13"/>
      <point x="275.563" y="-13" type="curve" smooth="yes"/>
      <point x="132" y="-13"/>
      <point x="40" y="64"/>
      <point x="40" y="187.814" type="curve" smooth="yes"/>
      <point x="40" y="280"/>
      <point x="91" y="354"/>
      <point x="178.907" y="383" type="curve"/>
      <point x="107" y="413"/>
      <point x="62" y="481"/>
      <point x="62" y="557" type="curve" smooth="yes"/>
      <point x="62" y="663"/>
      <point x="152.684" y="738"/>
      <point x="278.5" y="738" type="curve" smooth="yes"/>
      <point x="404.25" y="738"/>
      <point x="495" y="661"/>
      <point x="495" y="552" type="curve" smooth="yes"/>
      <point x="495" y="482"/>
      <point x="456.038" y="428"/>
      <point x="376.102" y="384" type="curve"/>
      <point x="467.316" y="353"/>
      <point x="514" y="288"/>
    </contour>
  </outline>
  <guideline angle="0" x="0" y="383"/>
</glyph>
<glyph name="less" format="2">
  <advance width="700"/>
  <unicode hex="003C"/>
  <outline>
    <contour>
      <point x="50" y="269" type="line"/>
      <point x="650" y="39" type="line"/>
      <point x="650" y="101" type="line"/>
      <point x="102.75" y="304.177" type="line"/>
      <point x="102.75" y="295.823" type="line"/>
      <point x="650" y="499" type="line"/>
      <point x="650" y="561" type="line"/>
      <point x="50" y="331" type="line"/>
    </contour>
  </outline>
  <guideline angle="20.9735" x="50" y="331"/>
  <guideline angle="200.361" x="650" y="499"/>
  <guideline angle="339.639" x="103" y="304"/>
  <guideline angle="159.027" x="650" y="39"/>
  <guideline angle="90" x="650" y="0"/>
  <guideline angle="90" x="50" y="0"/>
  <guideline angle="90" x="70" y="0"/>
</glyph>
<glyph name="question" format="2">
  <advance width="516"/>
  <unicode hex="003F"/>
  <outline>
    <component base="period" xOffset="106"/>
    <contour>
      <point x="366" y="549.859" type="curve" smooth="yes"/>
      <point x="366" y="606.308"/>
      <point x="323.333" y="647"/>
      <point x="249.339" y="647" type="curve" smooth="yes"/>
      <point x="176.261" y="647"/>
      <point x="128.733" y="610.175"/>
      <point x="100.951" y="556.668" type="curve"/>
      <point x="25" y="605" type="line"/>
      <point x="67.3052" y="686.589"/>
      <point x="152.599" y="737"/>
      <point x="248.339" y="737" type="curve" smooth="yes"/>
      <point x="380.63" y="737"/>
      <point x="460" y="666.436"/>
      <point x="460" y="557.701" type="curve" smooth="yes"/>
      <point x="460" y="352.05"/>
      <point x="264" y="398.83"/>
      <point x="264" y="213.18" type="curve" smooth="yes"/>
      <point x="264" y="165" type="line"/>
      <point x="174" y="165" type="line"/>
      <point x="174" y="233.87" type="line" smooth="yes"/>
      <point x="174" y="433.574"/>
      <point x="366" y="384.817"/>
    </contour>
  </outline>
  <guideline angle="147.529" x="91" y="563"/>
  <guideline angle="0" x="0" y="737"/>
  <guideline angle="0" x="0" y="737"/>
  <guideline angle="62.5924" x="25" y="605"/>
  <guideline angle="62.5603" x="91" y="563"/>
  <guideline angle="90" x="209" y="0"/>
  <guideline angle="90" x="264" y="0"/>
</glyph>
<glyph name="at" format="2">
  <advance width="1000"/>
  <unicode hex="0040"/>
  <outline>
    <contour>
      <point x="477" y="95" type="curve" smooth="yes"/>
      <point x="559" y="95"/>
      <point x="593" y="186"/>
      <point x="593" y="268" type="curve" smooth="yes"/>
      <point x="593" y="348"/>
      <point x="561" y="423"/>
      <point x="484" y="423" type="curve" smooth="yes"/>
      <point x="407" y="423"/>
      <point x="375" y="348"/>
      <point x="375" y="267" type="curve" smooth="yes"/>
      <point x="375" y="153"/>
      <point x="412" y="95"/>
    </contour>
    <contour>
      <point x="681" y="-152" type="line"/>
      <point x="634" y="-169"/>
      <point x="581" y="-178"/>
      <point x="516" y="-178" type="curve" smooth="yes"/>
      <point x="223" y="-178"/>
      <point x="60" y="5"/>
      <point x="60" y="291" type="curve" smooth="yes"/>
      <point x="60" y="545"/>
      <point x="239" y="716"/>
      <point x="492" y="716" type="curve" smooth="yes"/>
      <point x="756" y="716"/>
      <point x="940" y="578"/>
      <point x="940" y="299" type="curve" smooth="yes"/>
      <point x="940" y="168"/>
      <point x="864" y="21"/>
      <point x="738" y="21" type="curve" smooth="yes"/>
      <point x="679" y="21"/>
      <point x="635" y="53"/>
      <point x="606" y="116" type="curve"/>
      <point x="575" y="60"/>
      <point x="538" y="26"/>
      <point x="457" y="26" type="curve" smooth="yes"/>
      <point x="346" y="26"/>
      <point x="278" y="143"/>
      <point x="278" y="266" type="curve" smooth="yes"/>
      <point x="278" y="384"/>
      <point x="341" y="492"/>
      <point x="457" y="492" type="curve" smooth="yes"/>
      <point x="537" y="492"/>
      <point x="560" y="470"/>
      <point x="597" y="427" type="curve"/>
      <point x="597" y="485" type="line"/>
      <point x="687" y="485" type="line"/>
      <point x="687" y="191" type="line" smooth="yes"/>
      <point x="687" y="149"/>
      <point x="702" y="108"/>
      <point x="743" y="108" type="curve" smooth="yes"/>
      <point x="816" y="108"/>
      <point x="843" y="240"/>
      <point x="843" y="299" type="curve" smooth="yes"/>
      <point x="843" y="527"/>
      <point x="723" y="626"/>
      <point x="500" y="626" type="curve" smooth="yes"/>
      <point x="288" y="626"/>
      <point x="154" y="505"/>
      <point x="154" y="292" type="curve" smooth="yes"/>
      <point x="154" y="61"/>
      <point x="270" y="-88"/>
      <point x="511" y="-88" type="curve" smooth="yes"/>
      <point x="593" y="-88"/>
      <point x="627" y="-84"/>
      <point x="681" y="-71" type="curve"/>
    </contour>
  </outline>
</glyph>
<glyph name="E" format="2">
  <advance width="587"/>
  <unicode hex="0045"/>
  <anchor x="295" y="797" name="top"/>
  <anchor x="-20" y="722" name="tonos"/>
  <outline>
    <component base="I" xOffset="-10"/>
    <contour>
      <point x="170" y="87" type="line"/>
      <point x="170" y="0" type="line"/>
      <point x="527" y="0" type="line"/>
      <point x="527" y="87" type="line"/>
    </contour>
    <contour>
      <point x="170" y="413" type="line"/>
      <point x="170" y="326" type="line"/>
      <point x="507" y="326" type="line"/>
      <point x="507" y="413" type="line"/>
    </contour>
    <contour>
      <point x="170" y="722" type="line"/>
      <point x="170" y="635" type="line"/>
      <point x="517" y="635" type="line"/>
      <point x="517" y="722" type="line"/>
    </contour>
  </outline>
  <guideline angle="90" x="440" y="0"/>
  <guideline angle="90" x="70" y="0"/>
  <guideline angle="90" x="291" y="0"/>
  <guideline angle="90" x="221" y="0"/>
  <guideline angle="90" x="256" y="0"/>
</glyph>
<glyph name="F" format="2">
  <advance width="540"/>
  <unicode hex="0046"/>
  <anchor x="275" y="797" name="top"/>
  <outline>
    <component base="I"/>
    <contour>
      <point x="180" y="413" type="line"/>
      <point x="517" y="413" type="line"/>
      <point x="517" y="326" type="line"/>
      <point x="180" y="326" type="line"/>
    </contour>
    <contour>
      <point x="170" y="722" type="line"/>
      <point x="517" y="722" type="line"/>
      <point x="517" y="635" type="line"/>
      <point x="170" y="635" type="line"/>
    </contour>
  </outline>
</glyph>
<glyph name="G" format="2">
  <advance width="735"/>
  <unicode hex="0047"/>
  <anchor x="358" y="797" name="top"/>
  <outline>
    <contour>
      <point x="358" y="646" type="line"/>
      <point x="448" y="646"/>
      <point x="532" y="598"/>
      <point x="532" y="540" type="curve"/>
      <point x="633" y="540" type="line"/>
      <point x="633" y="651"/>
      <point x="514" y="734"/>
      <point x="358" y="734" type="curve"/>
    </contour>
    <contour>
      <point x="358" y="76" type="curve"/>
      <point x="358" y="-12" type="line"/>
      <point x="445" y="-12"/>
      <point x="564" y="4"/>
      <point x="643" y="38" type="curve"/>
      <point x="643" y="386" type="line"/>
      <point x="378" y="386" type="line"/>
      <point x="378" y="299" type="line"/>
      <point x="542" y="299" type="line"/>
      <point x="542" y="100" type="line"/>
      <point x="485" y="84"/>
      <point x="418" y="76"/>
    </contour>
    <contour>
      <point x="30" y="361" type="curve" smooth="yes"/>
      <point x="30" y="143"/>
      <point x="140" y="-12"/>
      <point x="358" y="-12" type="curve"/>
      <point x="358" y="76" type="line"/>
      <point x="198" y="76"/>
      <point x="133" y="181"/>
      <point x="133" y="361" type="curve" smooth="yes"/>
      <point x="133" y="541"/>
      <point x="198" y="646"/>
      <point x="358" y="646" type="curve"/>
      <point x="358" y="734" type="line"/>
      <point x="140" y="734"/>
      <point x="30" y="579"/>
    </contour>
  </outline>
  <guideline angle="90" x="358" y="0"/>
</glyph>
<glyph name="H" format="2">
  <advance width="689"/>
  <unicode hex="0048"/>
  <anchor x="335" y="797" name="top"/>
  <anchor x="335" y="-75" name="bottom"/>
  <anchor x="120" y="10" name="cedilla.bottom"/>
  <anchor x="-8" y="722" name="tonos"/>
  <outline>
    <component base="I" xOffset="-10"/>
    <component base="I" xOffset="439"/>
    <contour>
      <point x="150" y="414" type="line"/>
      <point x="539" y="414" type="line"/>
      <point x="539" y="326" type="line"/>
      <point x="150" y="326" type="line"/>
    </contour>
  </outline>
  <guideline angle="90" x="70" y="0"/>
  <guideline angle="90" x="550" y="0"/>
  <guideline angle="90" x="273" y="0"/>
  <guideline angle="90" x="234" y="0"/>
  <guideline angle="90" x="313" y="0"/>
</glyph>
<glyph name="K" format="2">
  <advance width="640"/>
  <unicode hex="004B"/>
  <anchor x="315" y="797" name="top"/>
  <outline>
    <component base="I" xOffset="-20"/>
    <contour>
      <point x="118.782" y="429.32" type="line"/>
      <point x="485" y="0" type="line"/>
      <point x="620" y="0" type="line"/>
      <point x="255.092" y="435.981" type="line"/>
      <point x="255.323" y="390.054" type="line"/>
      <point x="583" y="722" type="line"/>
      <point x="459" y="722" type="line"/>
      <point x="118.782" y="372.679" type="line"/>
    </contour>
  </outline>
</glyph>
<glyph name="M" format="2">
  <advance width="840"/>
  <unicode hex="004D"/>
  <anchor x="418" y="797" name="top"/>
  <outline>
    <contour>
      <point x="70" y="0" type="line"/>
      <point x="70" y="722" type="line"/>
      <point x="170" y="722" type="line"/>
      <point x="170" y="0" type="line"/>
    </contour>
    <contour>
      <point x="670" y="0" type="line"/>
      <point x="670" y="722" type="line"/>
      <point x="770" y="722" type="line"/>
      <point x="770" y="0" type="line"/>
    </contour>
    <contour>
      <point x="378" y="0" type="line"/>
      <point x="109" y="722" type="line"/>
      <point x="204" y="722" type="line"/>
      <point x="423.177" y="125.922" type="line"/>
      <point x="412.781" y="125.937" type="line"/>
      <point x="637" y="722" type="line"/>
      <point x="730" y="722" type="line"/>
      <point x="458" y="0" type="line"/>
    </contour>
  </outline>
  <guideline angle="90" x="418" y="0"/>
</glyph>
<glyph name="N" format="2">
  <advance width="683"/>
  <unicode hex="004E"/>
  <anchor x="345" y="797" name="top"/>
  <outline>
    <contour>
      <point x="89.7297" y="722" type="line"/>
      <point x="480" y="0" type="line"/>
      <point x="592.814" y="0" type="line"/>
      <point x="202" y="722" type="line"/>
    </contour>
    <contour>
      <point x="160" y="722" type="line"/>
      <point x="60" y="722" type="line"/>
      <point x="60" y="0" type="line"/>
      <point x="160" y="0" type="line"/>
    </contour>
    <contour>
      <point x="523" y="0" type="line"/>
      <point x="623" y="0" type="line"/>
      <point x="623" y="722" type="line"/>
      <point x="523" y="722" type="line"/>
    </contour>
  </outline>
  <guideline angle="298.468" x="202" y="722"/>
  <guideline angle="118.393" x="480" y="0"/>
</glyph>
<glyph name="O" format="2">
  <advance width="754"/>
  <unicode hex="004F"/>
  <anchor x="365" y="797" name="top"/>
  <anchor x="72" y="722" name="tonos"/>
  <outline>
    <contour>
      <point x="50" y="361" type="curve" smooth="yes"/>
      <point x="50" y="579"/>
      <point x="160" y="734"/>
      <point x="378" y="734" type="curve"/>
      <point x="378" y="646" type="line"/>
      <point x="218" y="646"/>
      <point x="153" y="541"/>
      <point x="153" y="361" type="curve" smooth="yes"/>
      <point x="153" y="181"/>
      <point x="218" y="76"/>
      <point x="378" y="76" type="curve"/>
      <point x="378" y="-12" type="line"/>
      <point x="160" y="-12"/>
      <point x="50" y="143"/>
    </contour>
    <contour>
      <point x="706" y="361" type="curve" smooth="yes"/>
      <point x="706" y="143"/>
      <point x="596" y="-12"/>
      <point x="378" y="-12" type="curve"/>
      <point x="378" y="76" type="line"/>
      <point x="538" y="76"/>
      <point x="603" y="181"/>
      <point x="603" y="361" type="curve" smooth="yes"/>
      <point x="603" y="541"/>
      <point x="538" y="646"/>
      <point x="378" y="646" type="curve"/>
      <point x="378" y="734" type="line"/>
      <point x="596" y="734"/>
      <point x="706" y="579"/>
    </contour>
  </outline>
  <guideline angle="90" x="80" y="0"/>
  <guideline angle="90" x="100" y="0"/>
  <guideline angle="0" x="0" y="704"/>
</glyph>
<glyph name="P" format="2">
  <advance width="601"/>
  <unicode hex="0050"/>
  <anchor x="245" y="797" name="top"/>
  <outline>
    <contour>
      <point x="155" y="635" type="line"/>
      <point x="277" y="635" type="line" smooth="yes"/>
      <point x="385" y="635"/>
      <point x="456" y="612"/>
      <point x="456" y="513" type="curve" smooth="yes"/>
      <point x="456" y="414"/>
      <point x="386" y="394"/>
      <point x="277" y="394" type="curve" smooth="yes"/>
      <point x="155" y="394" type="line"/>
      <point x="155" y="306" type="line"/>
      <point x="274" y="306" type="line" smooth="yes"/>
      <point x="438" y="306"/>
      <point x="553" y="348"/>
      <point x="553" y="514" type="curve" smooth="yes"/>
      <point x="553" y="680"/>
      <point x="438" y="722"/>
      <point x="274" y="722" type="curve" smooth="yes"/>
      <point x="70" y="722" type="line"/>
      <point x="70" y="708.95" type="line"/>
    </contour>
    <contour>
      <point x="70" y="0" type="line"/>
      <point x="170" y="0" type="line"/>
      <point x="170" y="650" type="line"/>
      <point x="87.2414" y="722" type="line"/>
      <point x="70" y="722" type="line"/>
    </contour>
  </outline>
</glyph>
<glyph name="Q" format="2">
  <advance width="775"/>
  <unicode hex="0051"/>
  <anchor x="375" y="797" name="top"/>
  <outline>
    <component base="O"/>
    <contour>
      <point x="587.615" y="70.1269" type="curve"/>
      <point x="433.704" y="-8.4" type="line"/>
      <point x="440.704" y="-7" type="line" smooth="yes"/>
      <point x="464.743" y="-2.1922"/>
      <point x="556" y="0"/>
      <point x="576" y="0" type="curve" smooth="yes"/>
      <point x="755" y="0" type="line"/>
      <point x="755" y="88" type="line"/>
      <point x="708.043" y="88"/>
      <point x="601.46" y="77.2674"/>
    </contour>
  </outline>
</glyph>
<glyph name="R" format="2">
  <advance width="627"/>
  <unicode hex="0052"/>
  <anchor x="267" y="797" name="top"/>
  <outline>
    <component base="I" xOffset="-10"/>
    <contour>
      <point x="70" y="634" type="line"/>
      <point x="296" y="634" type="line" smooth="yes"/>
      <point x="409" y="634"/>
      <point x="458" y="600"/>
      <point x="458" y="524" type="curve" smooth="yes"/>
      <point x="458" y="448"/>
      <point x="408" y="414"/>
      <point x="296" y="414" type="curve" smooth="yes"/>
      <point x="155" y="414" type="line"/>
      <point x="155" y="328" type="line"/>
      <point x="290" y="328" type="line" smooth="yes"/>
      <point x="391" y="328"/>
      <point x="424.075" y="292.549"/>
      <point x="444" y="173" type="curve" smooth="yes"/>
      <point x="449" y="143" type="line" smooth="yes"/>
      <point x="459.462" y="80.2263"/>
      <point x="466" y="35"/>
      <point x="475" y="0" type="curve"/>
      <point x="579" y="0" type="line"/>
      <point x="566" y="36"/>
      <point x="551.56" y="97.9323"/>
      <point x="543" y="155" type="curve" smooth="yes"/>
      <point x="534" y="215" type="line" smooth="yes"/>
      <point x="523.342" y="286.052"/>
      <point x="513" y="358"/>
      <point x="422" y="371" type="curve"/>
      <point x="422" y="367" type="line"/>
      <point x="508" y="395"/>
      <point x="559" y="454"/>
      <point x="559" y="525" type="curve" smooth="yes"/>
      <point x="559" y="663"/>
      <point x="481" y="722"/>
      <point x="299" y="722" type="curve" smooth="yes"/>
      <point x="70" y="722" type="line"/>
    </contour>
  </outline>
  <guideline angle="0" x="0" y="328"/>
</glyph>
<glyph name="S" format="2">
  <advance width="640"/>
  <unicode hex="0053"/>
  <anchor x="306" y="797" name="top"/>
  <outline>
    <contour>
      <point x="50" y="214" type="curve"/>
      <point x="150" y="214" type="line"/>
      <point x="150" y="134"/>
      <point x="233" y="73"/>
      <point x="324" y="73" type="curve" smooth="yes"/>
      <point x="435" y="73"/>
      <point x="493" y="116"/>
      <point x="493" y="196.374" type="curve" smooth="yes"/>
      <point x="493" y="271"/>
      <point x="443" y="305"/>
      <point x="303.076" y="331.59" type="curve" smooth="yes"/>
      <point x="122" y="366"/>
      <point x="59" y="419"/>
      <point x="59" y="538" type="curve" smooth="yes"/>
      <point x="59" y="658"/>
      <point x="156" y="737"/>
      <point x="306" y="737" type="curve" smooth="yes"/>
      <point x="471" y="737"/>
      <point x="564" y="666"/>
      <point x="564" y="540" type="curve"/>
      <point x="464" y="540" type="line"/>
      <point x="464" y="617"/>
      <point x="415" y="649"/>
      <point x="299" y="649" type="curve" smooth="yes"/>
      <point x="208" y="649"/>
      <point x="159" y="612"/>
      <point x="159" y="541" type="curve" smooth="yes"/>
      <point x="159" y="448"/>
      <point x="246" y="431"/>
      <point x="341" y="412" type="curve" smooth="yes"/>
      <point x="459" y="389"/>
      <point x="592" y="362"/>
      <point x="592" y="206" type="curve" smooth="yes"/>
      <point x="592" y="56"/>
      <point x="504" y="-15"/>
      <point x="316" y="-15" type="curve" smooth="yes"/>
      <point x="157" y="-15"/>
      <point x="50" y="77"/>
    </contour>
  </outline>
  <guideline angle="346.485" x="39" y="448.094"/>
</glyph>
<glyph name="T" format="2">
  <advance width="612"/>
  <unicode hex="0054"/>
  <anchor x="305" y="797" name="top"/>
  <anchor x="306" y="10" name="cedilla.bottom"/>
  <outline>
    <contour>
      <point x="592" y="635" type="line"/>
      <point x="356" y="635" type="line"/>
      <point x="356" y="0" type="line"/>
      <point x="256" y="0" type="line"/>
      <point x="256" y="635" type="line"/>
      <point x="20" y="635" type="line"/>
      <point x="20" y="722" type="line"/>
      <point x="592" y="722" type="line"/>
    </contour>
  </outline>
  <guideline angle="90" x="330" y="0"/>
</glyph>
<glyph name="W" format="2">
  <advance width="982"/>
  <unicode hex="0057"/>
  <anchor x="491" y="797" name="top"/>
  <outline>
    <contour>
      <point x="962" y="722" type="line"/>
      <point x="748" y="0" type="line"/>
      <point x="658" y="0" type="line"/>
      <point x="487.792" y="613.563" type="line"/>
      <point x="494.208" y="613.563" type="line"/>
      <point x="324" y="0" type="line"/>
      <point x="234" y="0" type="line"/>
      <point x="20" y="722" type="line"/>
      <point x="126" y="722" type="line"/>
      <point x="282.101" y="138.408" type="line"/>
      <point x="275.918" y="138.403" type="line"/>
      <point x="431" y="722" type="line"/>
      <point x="551" y="722" type="line"/>
      <point x="706.082" y="138.402" type="line"/>
      <point x="699.899" y="138.407" type="line"/>
      <point x="856" y="722" type="line"/>
    </contour>
  </outline>
  <guideline angle="106.51" x="234" y="0"/>
  <guideline angle="284.975" x="126" y="722"/>
  <guideline angle="75.1185" x="279" y="150"/>
  <guideline angle="254.496" x="491" y="602"/>
  <guideline angle="105.504" x="658" y="0"/>
  <guideline angle="284.882" x="551" y="722"/>
  <guideline angle="75.025" x="703" y="150"/>
  <guideline angle="253.49" x="962" y="722"/>
  <guideline angle="105.476" x="658" y="0"/>
  <guideline angle="75.0442" x="700" y="138"/>
  <guideline angle="90" x="491" y="0"/>
</glyph>
<glyph name="Z" format="2">
  <advance width="626"/>
  <unicode hex="005A"/>
  <anchor x="313" y="797" name="top"/>
  <outline>
    <contour>
      <point x="576" y="0" type="line"/>
      <point x="576" y="87" type="line"/>
      <point x="160" y="87" type="line"/>
      <point x="566" y="612" type="line"/>
      <point x="566" y="722" type="line"/>
      <point x="70" y="722" type="line"/>
      <point x="70" y="635" type="line"/>
      <point x="456" y="635" type="line"/>
      <point x="50" y="110" type="line"/>
      <point x="50" y="0" type="line"/>
    </contour>
  </outline>
  <guideline angle="232.284" x="566" y="612"/>
  <guideline angle="52.284" x="50" y="110"/>
  <guideline angle="90" x="313" y="0"/>
</glyph>
<glyph name="asciicircum" format="2">
  <advance width="618"/>
  <unicode hex="005E"/>
  <outline>
    <contour>
      <point x="597.581" y="10" type="line"/>
      <point x="508" y="10" type="line"/>
      <point x="309" y="546" type="line"/>
      <point x="110" y="10" type="line"/>
      <point x="20" y="10" type="line"/>
      <point x="243.443" y="610" type="line"/>
      <point x="375.028" y="610" type="line"/>
    </contour>
  </outline>
  <guideline angle="90" x="309" y="0"/>
  <guideline angle="249.632" x="309" y="546"/>
  <guideline angle="110.368" x="508" y="10"/>
  <guideline angle="110.368" x="508" y="10"/>
  <guideline angle="249.632" x="309" y="546"/>
  <guideline angle="110.368" x="598" y="10"/>
  <guideline angle="249.632" x="219" y="546"/>
  <guideline angle="249.632" x="309" y="546"/>
  <guideline angle="110.368" x="508" y="10"/>
</glyph>
<glyph name="underscore" format="2">
  <advance width="500"/>
  <unicode hex="005F"/>
  <outline>
    <contour>
      <point x="500" y="-142" type="line"/>
      <point x="0" y="-142" type="line"/>
      <point x="0" y="-72" type="line"/>
      <point x="500" y="-72" type="line"/>
    </contour>
  </outline>
</glyph>
<glyph name="a" format="2">
  <advance width="566"/>
  <unicode hex="0061"/>
  <anchor x="283" y="580" name="top"/>
  <anchor x="432" y="10" name="ogonekLC"/>
  <anchor x="283" y="-50" name="bottom"/>
  <outline>
    <contour>
      <point x="60" y="140" type="curve" smooth="yes"/>
      <point x="60" y="46"/>
      <point x="133" y="-14"/>
      <point x="247.253" y="-14" type="curve" smooth="yes"/>
      <point x="312.553" y="-14"/>
      <point x="349.724" y="6"/>
      <point x="404.977" y="72" type="curve"/>
      <point x="404.977" y="62"/>
      <point x="408.995" y="23"/>
      <point x="415.934" y="0" type="curve"/>
      <point x="506" y="0" type="line"/>
      <point x="497.033" y="24"/>
      <point x="487.453" y="81.035"/>
      <point x="490.11" y="182" type="curve" smooth="yes"/>
      <point x="494.11" y="334" type="line" smooth="yes"/>
      <point x="497.4" y="459.01"/>
      <point x="429.947" y="513"/>
      <point x="292.062" y="513" type="curve" smooth="yes"/>
      <point x="157.882" y="513"/>
      <point x="88" y="461.914"/>
      <point x="88" y="365" type="curve"/>
      <point x="182" y="365" type="line"/>
      <point x="182" y="414"/>
      <point x="224.147" y="444"/>
      <point x="290.452" y="444" type="curve" smooth="yes"/>
      <point x="360.774" y="444"/>
      <point x="399.954" y="410"/>
      <point x="399.954" y="349" type="curve"/>
      <point x="399.954" y="204" type="line"/>
      <point x="399.954" y="105"/>
      <point x="351.733" y="55"/>
      <point x="254.286" y="55" type="curve" smooth="yes"/>
      <point x="197.023" y="55"/>
      <point x="154" y="93"/>
      <point x="154" y="143" type="curve" smooth="yes"/>
      <point x="154" y="208"/>
      <point x="229.171" y="239"/>
      <point x="347.456" y="239" type="curve" smooth="yes"/>
      <point x="379.306" y="239"/>
      <point x="388.741" y="236.752"/>
      <point x="438.716" y="232.257" type="curve"/>
      <point x="419.79" y="300.488" type="line"/>
      <point x="407.825" y="303.059"/>
      <point x="364.369" y="307.804"/>
      <point x="335.208" y="308" type="curve" smooth="yes"/>
      <point x="161.004" y="309.173"/>
      <point x="60" y="251"/>
    </contour>
  </outline>
  <guideline angle="90" x="283" y="0"/>
</glyph>
<glyph name="b" format="2">
  <advance width="625"/>
  <unicode hex="0062"/>
  <anchor x="300" y="754" name="top"/>
  <anchor x="315" y="-88" name="bottom"/>
  <outline>
    <contour>
      <point x="80" y="0" type="line"/>
      <point x="167" y="0" type="line"/>
      <point x="167" y="101" type="line"/>
      <point x="154.516" y="101.279" type="line"/>
      <point x="155.398" y="389.126" type="line"/>
      <point x="167" y="389" type="line"/>
      <point x="167" y="722" type="line"/>
      <point x="80" y="722" type="line"/>
    </contour>
    <contour>
      <point x="147.529" y="110.834" type="line"/>
      <point x="190.5" y="28.1129"/>
      <point x="251.235" y="-13"/>
      <point x="329.668" y="-13" type="curve" smooth="yes"/>
      <point x="470.872" y="-13"/>
      <point x="565" y="91.7443"/>
      <point x="565" y="271" type="curve" smooth="yes"/>
      <point x="565" y="419"/>
      <point x="466" y="513"/>
      <point x="331" y="513" type="curve" smooth="yes"/>
      <point x="247.689" y="513"/>
      <point x="179.519" y="476.532"/>
      <point x="147.924" y="406.567" type="curve"/>
    </contour>
    <contour>
      <point x="167" y="262" type="curve" smooth="yes"/>
      <point x="167" y="376"/>
      <point x="229" y="455"/>
      <point x="318" y="455" type="curve" smooth="yes"/>
      <point x="403" y="455"/>
      <point x="469" y="383"/>
      <point x="469" y="265" type="curve" smooth="yes"/>
      <point x="469" y="123.449"/>
      <point x="411.254" y="54"/>
      <point x="314.978" y="54" type="curve" smooth="yes"/>
      <point x="231.497" y="54"/>
      <point x="167" y="143.86"/>
    </contour>
  </outline>
</glyph>
<glyph name="e" format="2">
  <advance width="576"/>
  <unicode hex="0065"/>
  <anchor x="288" y="580" name="top"/>
  <anchor x="288" y="-89" name="bottom"/>
  <anchor x="288" y="0" name="cedilla.bottom"/>
  <outline>
    <contour>
      <point x="60" y="250" type="curve" smooth="yes"/>
      <point x="60" y="405"/>
      <point x="135" y="512"/>
      <point x="292" y="512" type="curve" smooth="yes"/>
      <point x="435" y="512"/>
      <point x="515" y="423"/>
      <point x="515" y="282" type="curve" smooth="yes"/>
      <point x="515" y="236" type="line"/>
      <point x="154" y="236" type="line"/>
      <point x="154" y="134"/>
      <point x="205" y="51"/>
      <point x="300" y="51" type="curve" smooth="yes"/>
      <point x="371" y="51"/>
      <point x="414" y="98"/>
      <point x="420" y="160" type="curve"/>
      <point x="516" y="160" type="line"/>
      <point x="496" y="55"/>
      <point x="419" y="-14"/>
      <point x="292" y="-14" type="curve" smooth="yes"/>
      <point x="129" y="-14"/>
      <point x="60" y="102"/>
    </contour>
    <contour>
      <point x="154" y="301" type="curve"/>
      <point x="421" y="301" type="line"/>
      <point x="421" y="361"/>
      <point x="396" y="447"/>
      <point x="292" y="447" type="curve" smooth="yes"/>
      <point x="214" y="447"/>
      <point x="154" y="399"/>
    </contour>
  </outline>
  <guideline angle="90" x="288" y="0"/>
</glyph>
<glyph name="g" format="2">
  <advance width="613"/>
  <unicode hex="0067"/>
  <anchor x="272" y="580" name="cedilla.top"/>
  <anchor x="287" y="580" name="top"/>
  <anchor x="297" y="-273" name="bottom"/>
  <outline>
    <contour>
      <point x="60" y="266" type="curve" smooth="yes"/>
      <point x="60" y="120"/>
      <point x="128" y="14"/>
      <point x="276" y="14" type="curve" smooth="yes"/>
      <point x="364" y="14"/>
      <point x="409" y="51"/>
      <point x="443" y="95" type="curve"/>
      <point x="443" y="21" type="line" smooth="yes"/>
      <point x="443" y="-71"/>
      <point x="389" y="-134"/>
      <point x="301" y="-134" type="curve" smooth="yes"/>
      <point x="239" y="-134"/>
      <point x="181" y="-102"/>
      <point x="181" y="-39" type="curve"/>
      <point x="87" y="-39" type="line"/>
      <point x="87" y="-141"/>
      <point x="186" y="-198"/>
      <point x="286" y="-198" type="curve" smooth="yes"/>
      <point x="436" y="-198"/>
      <point x="533" y="-111"/>
      <point x="533" y="29" type="curve" smooth="yes"/>
      <point x="533" y="500" type="line"/>
      <point x="443" y="500" type="line"/>
      <point x="443" y="444" type="line"/>
      <point x="405" y="485"/>
      <point x="350" y="513"/>
      <point x="280" y="513" type="curve" smooth="yes"/>
      <point x="136" y="513"/>
      <point x="60" y="392"/>
    </contour>
    <contour>
      <point x="289" y="78" type="curve" smooth="yes"/>
      <point x="193" y="78"/>
      <point x="154" y="164"/>
      <point x="154" y="270" type="curve" smooth="yes"/>
      <point x="154" y="388"/>
      <point x="202" y="448"/>
      <point x="294" y="448" type="curve" smooth="yes"/>
      <point x="393" y="448"/>
      <point x="443" y="380"/>
      <point x="443" y="264" type="curve" smooth="yes"/>
      <point x="443" y="172"/>
      <point x="390" y="78"/>
    </contour>
  </outline>
</glyph>
<glyph name="k" format="2">
  <advance width="509"/>
  <unicode hex="006B"/>
  <anchor x="266" y="762" name="top"/>
  <anchor x="285" y="-75" name="bottom"/>
  <outline>
    <component base="l"/>
    <contour>
      <point x="489" y="0" type="line"/>
      <point x="265.703" y="291.527" type="line"/>
      <point x="264.888" y="273.158" type="line"/>
      <point x="473" y="500" type="line"/>
      <point x="360" y="500" type="line"/>
      <point x="159.711" y="280.736" type="line"/>
      <point x="370" y="0" type="line"/>
    </contour>
  </outline>
  <guideline angle="227.596" x="360" y="500"/>
  <guideline angle="47.4658" x="273" y="282"/>
  <guideline angle="127.451" x="489" y="0"/>
  <guideline angle="306.772" x="160" y="281"/>
  <guideline angle="90" x="170" y="0"/>
  <guideline angle="90" x="80" y="0"/>
</glyph>
<glyph name="m" format="2">
  <advance width="910"/>
  <unicode hex="006D"/>
  <anchor x="464" y="580" name="top"/>
  <outline>
    <contour>
      <point x="500" y="314.213" type="line"/>
      <point x="500" y="323" type="line" smooth="yes"/>
      <point x="500" y="379"/>
      <point x="558" y="448"/>
      <point x="627" y="448" type="curve" smooth="yes"/>
      <point x="704" y="448"/>
      <point x="740" y="400"/>
      <point x="740" y="322" type="curve" smooth="yes"/>
      <point x="740" y="0" type="line"/>
      <point x="830" y="0" type="line"/>
      <point x="830" y="325" type="line" smooth="yes"/>
      <point x="830" y="449.016"/>
      <point x="768" y="512"/>
      <point x="645" y="512" type="curve" smooth="yes"/>
      <point x="573.839" y="512"/>
      <point x="517.791" y="476.571"/>
      <point x="474.348" y="408.628" type="curve"/>
      <point x="473.994" y="314.452" type="line"/>
    </contour>
    <contour>
      <point x="170" y="431" type="curve" smooth="yes"/>
      <point x="150" y="404.21" type="line"/>
      <point x="150" y="323.021" type="line"/>
      <point x="170" y="323" type="line"/>
      <point x="170" y="379"/>
      <point x="224" y="448"/>
      <point x="302.953" y="448" type="curve" smooth="yes"/>
      <point x="366" y="448"/>
      <point x="410" y="404"/>
      <point x="410" y="323" type="curve" smooth="yes"/>
      <point x="410" y="0" type="line"/>
      <point x="500" y="0" type="line"/>
      <point x="500" y="396.204" type="line"/>
      <point x="447" y="484.571"/>
      <point x="410" y="512"/>
      <point x="314" y="512" type="curve" smooth="yes"/>
      <point x="255" y="512"/>
      <point x="210.683" y="485.076"/>
    </contour>
    <contour>
      <point x="80" y="0" type="line"/>
      <point x="170" y="0" type="line"/>
      <point x="170" y="499.81" type="line"/>
      <point x="80" y="499.81" type="line"/>
    </contour>
  </outline>
</glyph>
<glyph name="o" format="2">
  <advance width="620"/>
  <unicode hex="006F"/>
  <anchor x="310" y="580" name="top"/>
  <anchor x="310" y="-75" name="bottom"/>
  <anchor x="310" y="580" name="tonos.top"/>
  <outline>
    <contour>
      <point x="60" y="250" type="curve" smooth="yes"/>
      <point x="60" y="89"/>
      <point x="157" y="-12"/>
      <point x="311" y="-12" type="curve" smooth="yes"/>
      <point x="465" y="-12"/>
      <point x="560" y="89"/>
      <point x="560" y="250" type="curve" smooth="yes"/>
      <point x="560" y="411"/>
      <point x="465" y="512"/>
      <point x="311" y="512" type="curve" smooth="yes"/>
      <point x="157" y="512"/>
      <point x="60" y="411"/>
    </contour>
    <contour>
      <point x="154" y="250" type="curve" smooth="yes"/>
      <point x="154" y="383"/>
      <point x="210" y="447"/>
      <point x="310" y="447" type="curve" smooth="yes"/>
      <point x="410" y="447"/>
      <point x="466" y="383"/>
      <point x="466" y="250" type="curve" smooth="yes"/>
      <point x="466" y="117"/>
      <point x="410" y="53"/>
      <point x="310" y="53" type="curve" smooth="yes"/>
      <point x="210" y="53"/>
      <point x="154" y="117"/>
    </contour>
  </outline>
  <guideline angle="90" x="310" y="0"/>
</glyph>
<glyph name="p" format="2">
  <advance width="631"/>
  <unicode hex="0070"/>
  <outline>
    <contour>
      <point x="83" y="-200" type="line"/>
      <point x="83" y="421" type="line" smooth="yes"/>
      <point x="83" y="447"/>
      <point x="82" y="474"/>
      <point x="80" y="500" type="curve"/>
      <point x="172" y="500" type="line"/>
      <point x="173" y="421" type="line"/>
      <point x="173" y="-200" type="line"/>
    </contour>
    <contour>
      <point x="153.529" y="110.834" type="curve"/>
      <point x="153.924" y="406.567" type="line"/>
      <point x="185.519" y="476.532"/>
      <point x="253.689" y="513"/>
      <point x="337" y="513" type="curve" smooth="yes"/>
      <point x="472" y="513"/>
      <point x="571" y="419"/>
      <point x="571" y="271" type="curve" smooth="yes"/>
      <point x="571" y="91.7443"/>
      <point x="476.872" y="-13"/>
      <point x="335.668" y="-13" type="curve" smooth="yes"/>
      <point x="257.235" y="-13"/>
      <point x="196.5" y="28.1129"/>
    </contour>
    <contour>
      <point x="173" y="262" type="curve" smooth="yes"/>
      <point x="173" y="143.86"/>
      <point x="237.497" y="54"/>
      <point x="320.978" y="54" type="curve" smooth="yes"/>
      <point x="417.254" y="54"/>
      <point x="475" y="123.449"/>
      <point x="475" y="265" type="curve" smooth="yes"/>
      <point x="475" y="383"/>
      <point x="409" y="455"/>
      <point x="324" y="455" type="curve" smooth="yes"/>
      <point x="235" y="455"/>
      <point x="173" y="376"/>
    </contour>
  </outline>
</glyph>
<glyph name="q" format="2">
  <advance width="611"/>
  <unicode hex="0071"/>
  <anchor x="295" y="580" name="top"/>
  <anchor x="320" y="-275" name="bottom"/>
  <outline>
    <contour>
      <point x="441" y="499.587" type="line"/>
      <point x="441" y="-200" type="line"/>
      <point x="531" y="-200" type="line"/>
      <point x="531" y="499.587" type="line"/>
    </contour>
    <contour>
      <point x="450.441" y="69.8785" type="curve"/>
      <point x="450.009" y="414.509" type="line"/>
      <point x="416.552" y="467.981"/>
      <point x="372.151" y="513"/>
      <point x="287" y="513" type="curve" smooth="yes"/>
      <point x="165" y="513"/>
      <point x="60" y="421"/>
      <point x="60" y="253" type="curve" smooth="yes"/>
      <point x="60" y="103"/>
      <point x="143" y="-13"/>
      <point x="291" y="-13" type="curve" smooth="yes"/>
      <point x="360.682" y="-13"/>
      <point x="435.758" y="42.2992"/>
    </contour>
    <contour>
      <point x="150" y="248" type="curve" smooth="yes"/>
      <point x="150" y="346"/>
      <point x="185" y="449"/>
      <point x="294" y="449" type="curve" smooth="yes"/>
      <point x="405" y="449"/>
      <point x="441" y="344"/>
      <point x="441" y="244" type="curve" smooth="yes"/>
      <point x="441" y="129"/>
      <point x="393" y="55"/>
      <point x="304" y="55" type="curve" smooth="yes"/>
      <point x="202" y="55"/>
      <point x="150" y="152"/>
    </contour>
  </outline>
</glyph>
<glyph name="r" format="2">
  <advance width="372"/>
  <unicode hex="0072"/>
  <anchor x="204" y="580" name="top"/>
  <outline>
    <component base="dotlessi"/>
    <contour>
      <point x="170" y="442" type="curve" smooth="yes"/>
      <point x="150" y="416.233" type="line"/>
      <point x="150" y="289.985" type="line"/>
      <point x="170" y="290" type="line"/>
      <point x="170" y="383"/>
      <point x="231" y="430"/>
      <point x="352" y="430" type="curve"/>
      <point x="352" y="510" type="line"/>
      <point x="260.015" y="510"/>
      <point x="207.572" y="490.406"/>
    </contour>
  </outline>
  <guideline angle="90" x="186" y="0"/>
</glyph>
<glyph name="s" format="2">
  <advance width="523"/>
  <unicode hex="0073"/>
  <anchor x="258" y="580" name="top"/>
  <anchor x="244" y="0" name="cedilla.bottom"/>
  <outline>
    <contour>
      <point x="60" y="144" type="curve"/>
      <point x="153.385" y="144" type="line"/>
      <point x="153.385" y="82"/>
      <point x="192.848" y="51"/>
      <point x="255.694" y="51" type="curve" smooth="yes"/>
      <point x="316.429" y="51"/>
      <point x="371.286" y="81"/>
      <point x="371.286" y="137.5" type="curve" smooth="yes"/>
      <point x="371.286" y="194"/>
      <point x="316.429" y="206"/>
      <point x="263.531" y="217" type="curve" smooth="yes"/>
      <point x="234.405" y="223.561" type="line" smooth="yes"/>
      <point x="113.847" y="251.563"/>
      <point x="74" y="287.914"/>
      <point x="74" y="362" type="curve" smooth="yes"/>
      <point x="74" y="450"/>
      <point x="129.795" y="512"/>
      <point x="274.183" y="512" type="curve" smooth="yes"/>
      <point x="380.102" y="512"/>
      <point x="453" y="479"/>
      <point x="453" y="366" type="curve"/>
      <point x="361.49" y="366" type="line"/>
      <point x="361.49" y="421"/>
      <point x="326.224" y="447"/>
      <point x="271.4" y="447" type="curve" smooth="yes"/>
      <point x="215.531" y="447"/>
      <point x="167.744" y="420"/>
      <point x="167.744" y="369" type="curve" smooth="yes"/>
      <point x="167.744" y="331.472"/>
      <point x="194.269" y="312.376"/>
      <point x="270.414" y="294.841" type="curve" smooth="yes"/>
      <point x="292.918" y="290" type="line" smooth="yes"/>
      <point x="371.286" y="274"/>
      <point x="463" y="256"/>
      <point x="463" y="146" type="curve" smooth="yes"/>
      <point x="463" y="31"/>
      <point x="363.449" y="-14"/>
      <point x="251.067" y="-14" type="curve" smooth="yes"/>
      <point x="135.949" y="-14"/>
      <point x="60" y="34"/>
    </contour>
  </outline>
  <guideline angle="0" x="0" y="259"/>
</glyph>
<glyph name="t" format="2">
  <advance width="344"/>
  <unicode hex="0074"/>
  <anchor x="161" y="711" name="top"/>
  <anchor x="169" y="10" name="cedilla.bottom"/>
  <outline>
    <contour>
      <point x="204" y="130" type="curve" smooth="yes"/>
      <point x="204" y="636" type="line"/>
      <point x="114" y="599" type="line"/>
      <point x="114" y="133" type="line" smooth="yes"/>
      <point x="114" y="37"/>
      <point x="141" y="-12"/>
      <point x="227" y="-12" type="curve" smooth="yes"/>
      <point x="256" y="-12"/>
      <point x="286" y="-9"/>
      <point x="314" y="0" type="curve"/>
      <point x="314" y="64" type="line"/>
      <point x="294" y="58"/>
      <point x="273" y="55"/>
      <point x="253" y="55" type="curve" smooth="yes"/>
      <point x="215" y="55"/>
      <point x="204" y="85"/>
    </contour>
    <contour>
      <point x="189" y="435" type="line"/>
      <point x="314" y="435" type="line"/>
      <point x="314" y="500" type="line"/>
      <point x="189" y="500" type="line"/>
    </contour>
    <contour>
      <point x="129" y="500" type="line"/>
      <point x="24" y="500" type="line"/>
      <point x="24" y="435" type="line"/>
      <point x="129" y="435" type="line"/>
    </contour>
  </outline>
  <guideline angle="202.348" x="204" y="636"/>
</glyph>
<glyph name="u" format="2">
  <advance width="595"/>
  <unicode hex="0075"/>
  <anchor x="297" y="580" name="top"/>
  <anchor x="297" y="-87" name="bottom"/>
  <outline>
    <component base="dotlessi" xOffset="344" yOffset="1.13687e-13"/>
    <contour>
      <point x="80" y="174" type="line" smooth="yes"/>
      <point x="80" y="54"/>
      <point x="141" y="-12"/>
      <point x="261" y="-12" type="curve" smooth="yes"/>
      <point x="336.107" y="-12"/>
      <point x="388.468" y="14.02"/>
      <point x="424" y="69" type="curve" smooth="yes"/>
      <point x="444" y="99.9467" type="line"/>
      <point x="444" y="181.462" type="line"/>
      <point x="424" y="181" type="line"/>
      <point x="424" y="109"/>
      <point x="367" y="53"/>
      <point x="287.401" y="53" type="curve" smooth="yes"/>
      <point x="216.691" y="53"/>
      <point x="170" y="97.19"/>
      <point x="170" y="172" type="curve" smooth="yes"/>
      <point x="170" y="500" type="line"/>
      <point x="80" y="500" type="line"/>
    </contour>
  </outline>
  <guideline angle="90" x="297" y="0"/>
</glyph>
<glyph name="v" format="2">
  <advance width="556"/>
  <unicode hex="0076"/>
  <anchor x="278" y="580" name="top"/>
  <outline>
    <contour>
      <point x="536" y="500" type="line"/>
      <point x="441" y="500" type="line"/>
      <point x="273.642" y="98.8192" type="line"/>
      <point x="282.382" y="98.8289" type="line"/>
      <point x="125" y="500" type="line"/>
      <point x="20" y="500" type="line"/>
      <point x="232" y="0" type="line"/>
      <point x="324" y="0" type="line"/>
    </contour>
  </outline>
  <guideline angle="90" x="278" y="0"/>
  <guideline angle="112.977" x="232" y="0"/>
  <guideline angle="291.381" x="125" y="500"/>
  <guideline angle="67.3903" x="274" y="99"/>
  <guideline angle="247.023" x="536" y="500"/>
  <guideline angle="0" x="0" y="21"/>
</glyph>
<glyph name="x" format="2">
  <advance width="547"/>
  <unicode hex="0078"/>
  <anchor x="277" y="580" name="top"/>
  <outline>
    <contour>
      <point x="527" y="0" type="line"/>
      <point x="142" y="500" type="line"/>
      <point x="28" y="500" type="line"/>
      <point x="413" y="0" type="line"/>
    </contour>
    <contour>
      <point x="228.139" y="270.894" type="line"/>
      <point x="20" y="0" type="line"/>
      <point x="125" y="0" type="line"/>
      <point x="275.771" y="209.168" type="line"/>
    </contour>
    <contour>
      <point x="318.835" y="247.125" type="line"/>
      <point x="514" y="500" type="line"/>
      <point x="409" y="500" type="line"/>
      <point x="272.275" y="308.799" type="line"/>
    </contour>
  </outline>
  <guideline angle="127.596" x="527" y="0"/>
  <guideline angle="127.596" x="413" y="0"/>
  <guideline angle="54.1523" x="125" y="0"/>
  <guideline angle="232.493" x="228" y="271"/>
  <guideline angle="52.3767" x="319" y="247"/>
  <guideline angle="234.349" x="409" y="500"/>
  <guideline angle="90" x="224" y="0"/>
</glyph>
<glyph name="z" format="2">
  <advance width="488"/>
  <unicode hex="007A"/>
  <anchor x="264" y="580" name="top"/>
  <outline>
    <contour>
      <point x="428" y="0" type="line"/>
      <point x="428" y="69" type="line"/>
      <point x="148" y="69" type="line"/>
      <point x="152.69" y="59.4832" type="line"/>
      <point x="428" y="417.928" type="line"/>
      <point x="428" y="500" type="line"/>
      <point x="80" y="500" type="line"/>
      <point x="80" y="431" type="line"/>
      <point x="338" y="431" type="line"/>
      <point x="333.275" y="440.543" type="line"/>
      <point x="60" y="82.0722" type="line"/>
      <point x="60" y="0" type="line"/>
    </contour>
  </outline>
  <guideline angle="52.749" x="60" y="82"/>
  <guideline angle="232.547" x="428" y="418"/>
  <guideline angle="52.749" x="60" y="82"/>
</glyph>
<glyph name="asciitilde" format="2">
  <advance width="633"/>
  <unicode hex="007E"/>
  <outline>
    <contour>
      <point x="583" y="315" type="curve"/>
      <point x="495" y="315" type="line"/>
      <point x="486" y="285"/>
      <point x="447" y="273"/>
      <point x="420" y="273" type="curve" smooth="yes"/>
      <point x="352.786" y="273"/>
      <point x="285.346" y="313"/>
      <point x="215" y="313" type="curve" smooth="yes"/>
      <point x="130" y="313"/>
      <point x="72" y="273"/>
      <point x="50" y="195" type="curve"/>
      <point x="141" y="195" type="line"/>
      <point x="145" y="219"/>
      <point x="178" y="238"/>
      <point x="217" y="238" type="curve" smooth="yes"/>
      <point x="289.095" y="238"/>
      <point x="359.067" y="198"/>
      <point x="434" y="198" type="curve" smooth="yes"/>
      <point x="512" y="198"/>
      <point x="569" y="246"/>
    </contour>
  </outline>
</glyph>
<glyph name="brokenbar" format="2">
  <advance width="230"/>
  <unicode hex="00A6"/>
  <outline>
    <contour>
      <point x="160" y="336" type="line"/>
      <point x="70" y="336" type="line"/>
      <point x="70" y="736" type="line"/>
      <point x="160" y="736" type="line"/>
    </contour>
    <contour>
      <point x="160" y="-198" type="line"/>
      <point x="70" y="-198" type="line"/>
      <point x="70" y="202" type="line"/>
      <point x="160" y="202" type="line"/>
    </contour>
  </outline>
</glyph>
<glyph name="section" format="2">
  <advance width="467"/>
  <unicode hex="00A7"/>
  <outline>
    <contour>
      <point x="2.6427" y="331.161" type="curve" smooth="yes"/>
      <point x="2.6427" y="279.044"/>
      <point x="46.4078" y="243.02"/>
      <point x="67.6259" y="226.328" type="curve" smooth="yes"/>
      <point x="245.983" y="86.0105" type="line" smooth="yes"/>
      <point x="303.558" y="40.7157"/>
      <point x="320" y="28.0745"/>
      <point x="320" y="-6" type="curve" smooth="yes"/>
      <point x="320" y="-66.3973"/>
      <point x="268.089" y="-105"/>
      <point x="188" y="-105" type="curve" smooth="yes"/>
      <point x="146" y="-105"/>
      <point x="104" y="-89"/>
      <point x="63" y="-64" type="curve"/>
      <point x="63" y="-140" type="line"/>
      <point x="98.1642" y="-158.143"/>
      <point x="163.146" y="-173"/>
      <point x="212" y="-173" type="curve" smooth="yes"/>
      <point x="337.149" y="-173"/>
      <point x="417.058" y="-107.062"/>
      <point x="417.058" y="7.09846" type="curve" smooth="yes"/>
      <point x="417.058" y="53.354"/>
      <point x="377.035" y="96.8076"/>
      <point x="329" y="134.438" type="curve" smooth="yes"/>
      <point x="131" y="289.55" type="line" smooth="yes"/>
      <point x="109.804" y="306.155"/>
      <point x="101.924" y="316.939"/>
      <point x="101.924" y="341.361" type="curve" smooth="yes"/>
      <point x="101.924" y="410.577"/>
      <point x="164.164" y="434.81"/>
      <point x="256.29" y="424.786" type="curve"/>
      <point x="180.307" y="479.703" type="line"/>
      <point x="55.8142" y="462.447"/>
      <point x="2.6427" y="417.991"/>
    </contour>
    <contour>
      <point x="64" y="579" type="curve" smooth="yes"/>
      <point x="64" y="509"/>
      <point x="127.218" y="461.903"/>
      <point x="174" y="428" type="curve" smooth="yes"/>
      <point x="348.235" y="301.733" type="line"/>
      <point x="374.695" y="285.888"/>
      <point x="376.239" y="267.315"/>
      <point x="376.239" y="252.055" type="curve" smooth="yes"/>
      <point x="376.239" y="178.235"/>
      <point x="275.972" y="167.139"/>
      <point x="218.541" y="168.573" type="curve"/>
      <point x="301.218" y="112.525" type="line"/>
      <point x="406.727" y="137.96"/>
      <point x="461.239" y="189.92"/>
      <point x="461.239" y="265.055" type="curve" smooth="yes"/>
      <point x="461.239" y="326.915"/>
      <point x="424.933" y="346.288"/>
      <point x="363.855" y="393.491" type="curve" smooth="yes"/>
      <point x="241.547" y="488.017" type="line" smooth="yes"/>
      <point x="199.718" y="520.344"/>
      <point x="159" y="543.139"/>
      <point x="159" y="588" type="curve" smooth="yes"/>
      <point x="159" y="631"/>
      <point x="209" y="671"/>
      <point x="253" y="671" type="curve" smooth="yes"/>
      <point x="299" y="671"/>
      <point x="344" y="657"/>
      <point x="385" y="631" type="curve"/>
      <point x="385" y="699" type="line"/>
      <point x="340.441" y="722"/>
      <point x="295.373" y="735"/>
      <point x="245" y="735" type="curve" smooth="yes"/>
      <point x="143" y="735"/>
      <point x="64" y="676.152"/>
    </contour>
  </outline>
  <guideline angle="142.093" x="364" y="393"/>
  <guideline angle="324.09" x="174" y="428"/>
  <guideline angle="141.766" x="329" y="134"/>
  <guideline angle="321.814" x="68" y="226"/>
</glyph>
<glyph name="dieresis" format="2">
  <advance width="450"/>
  <unicode hex="00A8"/>
  <anchor x="225" y="792" name="top.mkmk"/>
  <outline>
    <contour>
      <point x="170" y="630" type="line"/>
      <point x="170" y="722" type="line"/>
      <point x="80" y="722" type="line"/>
      <point x="80" y="630" type="line"/>
    </contour>
    <contour>
      <point x="370" y="630" type="line"/>
      <point x="370" y="722" type="line"/>
      <point x="280" y="722" type="line"/>
      <point x="280" y="630" type="line"/>
    </contour>
  </outline>
  <guideline angle="90" x="80" y="0"/>
  <guideline angle="90" x="225" y="0"/>
</glyph>
<glyph name="ordfeminine" format="2">
  <advance width="388"/>
  <unicode hex="00AA"/>
  <outline>
    <component base="a" xScale="0.7052" yScale="0.7052" xOffset="-7.52451" yOffset="351.093"/>
    <contour>
      <point x="368" y="243" type="line"/>
      <point x="19" y="243" type="line"/>
      <point x="19" y="280" type="line"/>
      <point x="368" y="280" type="line"/>
    </contour>
  </outline>
</glyph>
<glyph name="logicalnot" format="2">
  <advance width="619"/>
  <unicode hex="00AC"/>
  <outline>
    <contour>
      <point x="580" y="189" type="line"/>
      <point x="520" y="189" type="line"/>
      <point x="520" y="360" type="line"/>
      <point x="40" y="360" type="line"/>
      <point x="40" y="420" type="line"/>
      <point x="580" y="420" type="line"/>
    </contour>
  </outline>
</glyph>
<glyph name="registered" format="2">
  <advance width="867"/>
  <unicode hex="00AE"/>
  <outline>
    <contour>
      <point x="61" y="362" type="curve" smooth="yes"/>
      <point x="61" y="571.556"/>
      <point x="223" y="736"/>
      <point x="433" y="736" type="curve" smooth="yes"/>
      <point x="643" y="736"/>
      <point x="803" y="571.556"/>
      <point x="803" y="362" type="curve" smooth="yes"/>
      <point x="803" y="152"/>
      <point x="643" y="-12"/>
      <point x="433" y="-12" type="curve" smooth="yes"/>
      <point x="223" y="-12"/>
      <point x="61" y="152"/>
    </contour>
    <contour>
      <point x="109" y="362" type="curve" smooth="yes"/>
      <point x="109" y="182"/>
      <point x="253" y="36"/>
      <point x="433" y="36" type="curve" smooth="yes"/>
      <point x="613" y="36"/>
      <point x="755" y="182"/>
      <point x="755" y="362" type="curve" smooth="yes"/>
      <point x="755" y="541.079"/>
      <point x="613" y="688"/>
      <point x="433" y="688" type="curve" smooth="yes"/>
      <point x="253" y="688"/>
      <point x="109" y="541.079"/>
    </contour>
    <contour>
      <point x="274.988" y="536" type="line"/>
      <point x="275" y="600" type="line"/>
      <point x="449" y="600" type="line" smooth="yes"/>
      <point x="566.615" y="600"/>
      <point x="617" y="560.393"/>
      <point x="617" y="469.493" type="curve" smooth="yes"/>
      <point x="617" y="423.727"/>
      <point x="585.746" y="386.317"/>
      <point x="533" y="369" type="curve"/>
      <point x="623.52" y="338.827"/>
      <point x="595.099" y="221.845"/>
      <point x="630" y="130" type="curve"/>
      <point x="558" y="130" type="line"/>
      <point x="521.226" y="241.659"/>
      <point x="560.771" y="342"/>
      <point x="430" y="342" type="curve" smooth="yes"/>
      <point x="330" y="342" type="line"/>
      <point x="330" y="401" type="line"/>
      <point x="446" y="401" type="line" smooth="yes"/>
      <point x="507" y="401"/>
      <point x="547" y="412.912"/>
      <point x="547" y="469.493" type="curve" smooth="yes"/>
      <point x="547" y="527.066"/>
      <point x="508" y="536"/>
      <point x="446" y="536" type="curve" smooth="yes"/>
    </contour>
    <contour>
      <point x="275" y="131" type="line"/>
      <point x="275" y="600" type="line"/>
      <point x="345" y="600.007" type="line"/>
      <point x="345" y="131" type="line"/>
    </contour>
  </outline>
</glyph>
<glyph name="macron" format="2">
  <advance width="289"/>
  <unicode hex="00AF"/>
  <anchor x="144" y="600" name="_top"/>
  <anchor x="145" y="774" name="top.mkmk"/>
  <outline>
    <contour>
      <point x="290" y="630" type="line"/>
      <point x="0" y="630" type="line"/>
      <point x="0" y="700" type="line"/>
      <point x="290" y="700" type="line"/>
    </contour>
  </outline>
  <guideline angle="0" x="0" y="669"/>
</glyph>
<glyph name="twosuperior" format="2">
  <advance width="353"/>
  <unicode hex="00B2"/>
  <outline>
    <contour>
      <point x="28" y="416" type="line"/>
      <point x="79.9637" y="454.9" type="line" smooth="yes"/>
      <point x="228.292" y="566.451"/>
      <point x="243" y="587.105"/>
      <point x="243" y="622.145" type="curve" smooth="yes"/>
      <point x="243" y="665"/>
      <point x="221" y="684"/>
      <point x="179.045" y="684" type="curve" smooth="yes"/>
      <point x="136" y="684"/>
      <point x="116" y="664"/>
      <point x="111" y="624" type="curve"/>
      <point x="37" y="624" type="line"/>
      <point x="41" y="693"/>
      <point x="97" y="743"/>
      <point x="172" y="743" type="curve" smooth="yes"/>
      <point x="257" y="743"/>
      <point x="315" y="708"/>
      <point x="315" y="620.79" type="curve" smooth="yes"/>
      <point x="315" y="577.241"/>
      <point x="300.538" y="552.681"/>
      <point x="144.425" y="429.948" type="curve" smooth="yes"/>
      <point x="109.559" y="402.593" type="line"/>
      <point x="107" y="410" type="line"/>
      <point x="321" y="410" type="line"/>
      <point x="321" y="351" type="line"/>
      <point x="28" y="351" type="line"/>
    </contour>
  </outline>
  <guideline angle="218.454" x="144" y="430"/>
  <guideline angle="36.8699" x="28" y="416"/>
</glyph>
<glyph name="threesuperior" format="2">
  <advance width="371"/>
  <unicode hex="00B3"/>
  <outline>
    <contour>
      <point x="31" y="461" type="curve"/>
      <point x="97" y="461" type="line"/>
      <point x="101.805" y="415.357"/>
      <point x="128.78" y="399"/>
      <point x="179.204" y="399" type="curve" smooth="yes"/>
      <point x="240.225" y="399"/>
      <point x="276" y="422.953"/>
      <point x="276" y="457.854" type="curve" smooth="yes"/>
      <point x="276" y="493.612"/>
      <point x="240.582" y="518.848"/>
      <point x="170.8" y="518.848" type="curve" smooth="yes"/>
      <point x="154" y="518.848" type="line"/>
      <point x="154" y="571.824" type="line"/>
      <point x="174.265" y="571.824" type="line" smooth="yes"/>
      <point x="228.552" y="571.824"/>
      <point x="252" y="595.724"/>
      <point x="252" y="629.23" type="curve" smooth="yes"/>
      <point x="252" y="664.257"/>
      <point x="226.238" y="685.648"/>
      <point x="182.153" y="685.648" type="curve" smooth="yes"/>
      <point x="140.856" y="685.648"/>
      <point x="115.665" y="670.388"/>
      <point x="110" y="633" type="curve"/>
      <point x="46" y="633" type="line"/>
      <point x="46" y="697.426"/>
      <point x="104.324" y="743"/>
      <point x="194.338" y="743" type="curve" smooth="yes"/>
      <point x="275.772" y="743"/>
      <point x="327" y="701.7"/>
      <point x="327" y="635.054" type="curve" smooth="yes"/>
      <point x="327" y="586.955"/>
      <point x="300.317" y="554.849"/>
      <point x="249.115" y="547.968" type="curve"/>
      <point x="249" y="552" type="line"/>
      <point x="309.558" y="542.581"/>
      <point x="344" y="506.573"/>
      <point x="344" y="456.16" type="curve" smooth="yes"/>
      <point x="344" y="387.733"/>
      <point x="280.547" y="340"/>
      <point x="177.582" y="340" type="curve" smooth="yes"/>
      <point x="85.2288" y="340"/>
      <point x="35.4648" y="378.401"/>
    </contour>
  </outline>
</glyph>
<glyph name="cedilla" format="2">
  <advance width="317"/>
  <unicode hex="00B8"/>
  <anchor x="136" y="10" name="_cedilla.bottom"/>
  <outline>
    <contour>
      <point x="257" y="-137.312" type="curve" smooth="yes"/>
      <point x="257" y="-197.535"/>
      <point x="215" y="-233"/>
      <point x="143.778" y="-233" type="curve" smooth="yes"/>
      <point x="123.064" y="-233"/>
      <point x="99.4799" y="-230"/>
      <point x="60.4799" y="-224" type="curve"/>
      <point x="60.4799" y="-174" type="line"/>
      <point x="81.8558" y="-181.911"/>
      <point x="111.586" y="-186"/>
      <point x="131.112" y="-186" type="curve" smooth="yes"/>
      <point x="169.197" y="-186"/>
      <point x="186" y="-170.446"/>
      <point x="186" y="-143.276" type="curve" smooth="yes"/>
      <point x="186" y="-109.667"/>
      <point x="160.287" y="-90"/>
      <point x="117.996" y="-90" type="curve" smooth="yes"/>
      <point x="65" y="-90" type="line"/>
      <point x="113" y="10" type="line"/>
      <point x="162" y="10" type="line"/>
      <point x="130.21" y="-53.1676" type="line"/>
      <point x="223.075" y="-53.1676"/>
      <point x="257" y="-83.1866"/>
    </contour>
  </outline>
  <guideline angle="64.359" x="65" y="-90"/>
  <guideline angle="243.072" x="162" y="10"/>
  <guideline angle="0" x="0" y="-53"/>
  <guideline angle="0" x="0" y="-73"/>
</glyph>
<glyph name="onesuperior" format="2">
  <advance width="290"/>
  <unicode hex="00B9"/>
  <outline>
    <contour>
      <point x="217" y="343" type="line"/>
      <point x="217" y="722" type="line"/>
      <point x="153" y="722" type="line"/>
      <point x="139.702" y="710.526" type="line" smooth="yes"/>
      <point x="124.872" y="697.731"/>
      <point x="78" y="673"/>
      <point x="56" y="665" type="curve"/>
      <point x="56" y="610" type="line"/>
      <point x="84.7906" y="616.964"/>
      <point x="119.471" y="632.853"/>
      <point x="153" y="658" type="curve"/>
      <point x="153" y="343" type="line"/>
    </contour>
  </outline>
</glyph>
<glyph name="guillemotright" format="2">
  <advance width="557"/>
  <unicode hex="00BB"/>
  <outline>
    <contour>
      <point x="289" y="252" type="line"/>
      <point x="152" y="57" type="line"/>
      <point x="74" y="57" type="line"/>
      <point x="193" y="252" type="line"/>
      <point x="74" y="447" type="line"/>
      <point x="152" y="447" type="line"/>
    </contour>
    <contour>
      <point x="484" y="252" type="line"/>
      <point x="347" y="57" type="line"/>
      <point x="269" y="57" type="line"/>
      <point x="388" y="252" type="line"/>
      <point x="269" y="447" type="line"/>
      <point x="347" y="447" type="line"/>
    </contour>
  </outline>
</glyph>
<glyph name="onequarter" format="2">
  <advance width="799"/>
  <unicode hex="00BC"/>
  <outline>
    <component base="onesuperior"/>
    <contour>
      <point x="613" y="736" type="line"/>
      <point x="187" y="-14" type="line"/>
      <point x="118" y="-14" type="line"/>
      <point x="544" y="736" type="line"/>
    </contour>
    <contour>
      <point x="744" y="95" type="line"/>
      <point x="663" y="95" type="line"/>
      <point x="663" y="0" type="line"/>
      <point x="599" y="0" type="line"/>
      <point x="599" y="95" type="line"/>
      <point x="419" y="95" type="line"/>
      <point x="419" y="147.981" type="line"/>
      <point x="593" y="390" type="line"/>
      <point x="663" y="390" type="line"/>
      <point x="663" y="149" type="line"/>
      <point x="744" y="149" type="line"/>
    </contour>
    <contour>
      <point x="599" y="149" type="line"/>
      <point x="599" y="314" type="line"/>
      <point x="478" y="149" type="line"/>
    </contour>
  </outline>
</glyph>
<glyph name="threequarters" format="2">
  <advance width="799"/>
  <unicode hex="00BE"/>
  <outline>
    <component base="threesuperior"/>
    <component base="fraction" xOffset="134" yOffset="1.13687e-13"/>
    <contour>
      <point x="470.904" y="139.323" type="line"/>
      <point x="606.096" y="323.677" type="line"/>
      <point x="599" y="326" type="line"/>
      <point x="599" y="0" type="line"/>
      <point x="663" y="0" type="line"/>
      <point x="663" y="390" type="line"/>
      <point x="593" y="390" type="line"/>
      <point x="419" y="147.981" type="line"/>
      <point x="419" y="95" type="line"/>
      <point x="744" y="95" type="line"/>
      <point x="744" y="149" type="line"/>
      <point x="466" y="149" type="line"/>
    </contour>
  </outline>
</glyph>
<glyph name="AE" format="2">
  <advance width="981"/>
  <unicode hex="00C6"/>
  <anchor x="380" y="797" name="top"/>
  <outline>
    <contour>
      <point x="20" y="0" type="line"/>
      <point x="126" y="0" type="line"/>
      <point x="474.833" y="644.717" type="line"/>
      <point x="474.833" y="722" type="line"/>
      <point x="403" y="722" type="line"/>
    </contour>
    <contour>
      <point x="219" y="193" type="line"/>
      <point x="480" y="193" type="line"/>
      <point x="480" y="280" type="line"/>
      <point x="264" y="280" type="line"/>
    </contour>
    <contour>
      <point x="575" y="0.001" type="line"/>
      <point x="575" y="722.001" type="line"/>
      <point x="475" y="722.001" type="line"/>
      <point x="475" y="0.001" type="line"/>
    </contour>
    <contour>
      <point x="564" y="0" type="line"/>
      <point x="564" y="87" type="line"/>
      <point x="921" y="87" type="line"/>
      <point x="921" y="0" type="line"/>
    </contour>
    <contour>
      <point x="564" y="326" type="line"/>
      <point x="901" y="326" type="line"/>
      <point x="901" y="413" type="line"/>
      <point x="564" y="413" type="line"/>
    </contour>
    <contour>
      <point x="554" y="635" type="line"/>
      <point x="554" y="722" type="line"/>
      <point x="901" y="722" type="line"/>
      <point x="901" y="635" type="line"/>
    </contour>
  </outline>
</glyph>
<glyph name="multiply" format="2">
  <advance width="640"/>
  <unicode hex="00D7"/>
  <outline>
    <contour>
      <point x="50" y="69" type="line"/>
      <point x="89" y="30" type="line"/>
      <point x="590" y="531" type="line"/>
      <point x="551" y="570" type="line"/>
    </contour>
    <contour>
      <point x="551" y="30" type="line"/>
      <point x="590" y="69" type="line"/>
      <point x="89" y="570" type="line"/>
      <point x="50" y="531" type="line"/>
    </contour>
  </outline>
</glyph>
<glyph name="Oslash" format="2">
  <advance width="754"/>
  <unicode hex="00D8"/>
  <outline>
    <component base="O"/>
    <contour>
      <point x="184.903" y="-12" type="line"/>
      <point x="77.1048" y="-12" type="line"/>
      <point x="576.444" y="734" type="line"/>
      <point x="684.242" y="734" type="line"/>
    </contour>
  </outline>
  <guideline angle="0" x="0" y="734"/>
  <guideline angle="0" x="0" y="-12"/>
</glyph>
<glyph name="Thorn" format="2">
  <advance width="601"/>
  <unicode hex="00DE"/>
  <outline>
    <contour>
      <point x="156" y="172" type="line"/>
      <point x="274" y="172" type="line" smooth="yes"/>
      <point x="439" y="172"/>
      <point x="553" y="215"/>
      <point x="553" y="380" type="curve" smooth="yes"/>
      <point x="553" y="551"/>
      <point x="433" y="588"/>
      <point x="274" y="588" type="curve" smooth="yes"/>
      <point x="156" y="588" type="line"/>
      <point x="156" y="501" type="line"/>
      <point x="277" y="501" type="line" smooth="yes"/>
      <point x="385" y="501"/>
      <point x="456" y="478"/>
      <point x="456" y="379" type="curve" smooth="yes"/>
      <point x="456" y="280"/>
      <point x="386" y="260"/>
      <point x="277" y="260" type="curve" smooth="yes"/>
      <point x="156" y="260" type="line"/>
    </contour>
    <contour>
      <point x="70" y="0" type="line"/>
      <point x="171" y="0" type="line"/>
      <point x="171" y="723" type="line"/>
      <point x="70" y="723" type="line"/>
    </contour>
  </outline>
</glyph>
<glyph name="germandbls" format="2">
  <advance width="627"/>
  <unicode hex="00DF"/>
  <outline>
    <contour>
      <point x="70" y="-0.3284" type="line"/>
      <point x="160" y="-0.3284" type="line"/>
      <point x="160" y="516.531" type="line" smooth="yes"/>
      <point x="160" y="610.458"/>
      <point x="204.077" y="659"/>
      <point x="289.362" y="659" type="curve" smooth="yes"/>
      <point x="359.362" y="659"/>
      <point x="401" y="625.947"/>
      <point x="401" y="570.38" type="curve" smooth="yes"/>
      <point x="401" y="481.71"/>
      <point x="273" y="490.601"/>
      <point x="273" y="378.489" type="curve" smooth="yes"/>
      <point x="273" y="249.55"/>
      <point x="487" y="268.033"/>
      <point x="487" y="135.579" type="curve" smooth="yes"/>
      <point x="487" y="86.1339"/>
      <point x="460" y="51"/>
      <point x="422" y="51" type="curve" smooth="yes"/>
      <point x="354.066" y="51"/>
      <point x="321" y="79.9053"/>
      <point x="321" y="139.29" type="curve"/>
      <point x="227" y="139.29" type="line"/>
      <point x="227" y="45.8293"/>
      <point x="296.667" y="-14"/>
      <point x="405.496" y="-14" type="curve" smooth="yes"/>
      <point x="513.726" y="-14"/>
      <point x="577" y="45.7993"/>
      <point x="577" y="148.087" type="curve" smooth="yes"/>
      <point x="577" y="318.959"/>
      <point x="370" y="315.86"/>
      <point x="370" y="389.242" type="curve" smooth="yes"/>
      <point x="370" y="448.668"/>
      <point x="496" y="452.041"/>
      <point x="496" y="579.324" type="curve" smooth="yes"/>
      <point x="496" y="680.06"/>
      <point x="422.147" y="733"/>
      <point x="289.34" y="733" type="curve" smooth="yes"/>
      <point x="156.012" y="733"/>
      <point x="70" y="656.77"/>
      <point x="70" y="538.604" type="curve" smooth="yes"/>
    </contour>
  </outline>
</glyph>
<glyph name="ae" format="2">
  <advance width="905"/>
  <unicode hex="00E6"/>
  <outline>
    <contour>
      <point x="229" y="-14" type="curve" smooth="yes"/>
      <point x="379" y="-14"/>
      <point x="443" y="91"/>
      <point x="454" y="126" type="curve"/>
      <point x="472" y="37"/>
      <point x="548" y="-14"/>
      <point x="651.495" y="-14" type="curve" smooth="yes"/>
      <point x="771" y="-14"/>
      <point x="844" y="54"/>
      <point x="857" y="157" type="curve"/>
      <point x="762" y="157" type="line"/>
      <point x="747" y="87"/>
      <point x="705" y="51"/>
      <point x="645.132" y="51" type="curve" smooth="yes"/>
      <point x="551" y="51"/>
      <point x="500" y="140"/>
      <point x="500" y="238" type="curve"/>
      <point x="864.5" y="238" type="line"/>
      <point x="864.5" y="280" type="line" smooth="yes"/>
      <point x="864.5" y="410"/>
      <point x="789" y="511"/>
      <point x="651" y="511" type="curve" smooth="yes"/>
      <point x="548" y="511"/>
      <point x="490" y="472"/>
      <point x="459" y="390" type="curve"/>
      <point x="426" y="472"/>
      <point x="369" y="512"/>
      <point x="275" y="512" type="curve" smooth="yes"/>
      <point x="148.44" y="512"/>
      <point x="66" y="467"/>
      <point x="66" y="376" type="curve"/>
      <point x="159" y="376" type="line"/>
      <point x="159" y="426"/>
      <point x="198" y="447"/>
      <point x="271" y="447" type="curve" smooth="yes"/>
      <point x="354" y="447"/>
      <point x="399" y="387"/>
      <point x="399" y="301" type="curve"/>
      <point x="375" y="303"/>
      <point x="321" y="307"/>
      <point x="279.752" y="307" type="curve" smooth="yes"/>
      <point x="120.794" y="307"/>
      <point x="39" y="247"/>
      <point x="39" y="143.572" type="curve" smooth="yes"/>
      <point x="39" y="37"/>
      <point x="125.868" y="-14"/>
    </contour>
    <contour>
      <point x="404" y="243" type="line"/>
      <point x="404" y="225" type="line" smooth="yes"/>
      <point x="404" y="117"/>
      <point x="356" y="51"/>
      <point x="242" y="51" type="curve" smooth="yes"/>
      <point x="185" y="51"/>
      <point x="135" y="83"/>
      <point x="135" y="142.647" type="curve" smooth="yes"/>
      <point x="135" y="227"/>
      <point x="236" y="247"/>
      <point x="326.41" y="247" type="curve"/>
    </contour>
    <contour>
      <point x="765" y="303" type="curve"/>
      <point x="503" y="303" type="line"/>
      <point x="511" y="367"/>
      <point x="551" y="447"/>
      <point x="643.564" y="447" type="curve" smooth="yes"/>
      <point x="727" y="447"/>
      <point x="758" y="382"/>
    </contour>
  </outline>
</glyph>
<glyph name="oslash" format="2">
  <advance width="591"/>
  <unicode hex="00F8"/>
  <outline>
    <contour>
      <point x="132.854" y="-12" type="line"/>
      <point x="54.5843" y="-12" type="line"/>
      <point x="439.697" y="512" type="line"/>
      <point x="519.046" y="512" type="line"/>
    </contour>
    <contour>
      <point x="46" y="250" type="curve" smooth="yes"/>
      <point x="46" y="411"/>
      <point x="143" y="512"/>
      <point x="297" y="512" type="curve" smooth="yes"/>
      <point x="451" y="512"/>
      <point x="546" y="411"/>
      <point x="546" y="250" type="curve" smooth="yes"/>
      <point x="546" y="89"/>
      <point x="451" y="-12"/>
      <point x="297" y="-12" type="curve" smooth="yes"/>
      <point x="143" y="-12"/>
      <point x="46" y="89"/>
    </contour>
    <contour>
      <point x="140" y="250" type="curve" smooth="yes"/>
      <point x="140" y="117"/>
      <point x="196" y="53"/>
      <point x="296" y="53" type="curve" smooth="yes"/>
      <point x="396" y="53"/>
      <point x="452" y="117"/>
      <point x="452" y="250" type="curve" smooth="yes"/>
      <point x="452" y="383"/>
      <point x="396" y="447"/>
      <point x="296" y="447" type="curve" smooth="yes"/>
      <point x="196" y="447"/>
      <point x="140" y="383"/>
    </contour>
  </outline>
  <guideline angle="0" x="0" y="512"/>
  <guideline angle="0" x="0" y="-12"/>
</glyph>
<glyph name="thorn" format="2">
  <advance width="628"/>
  <unicode hex="00FE"/>
  <outline>
    <contour>
      <point x="80" y="-200" type="line"/>
      <point x="80" y="722" type="line"/>
      <point x="170" y="722" type="line"/>
      <point x="170" y="-200" type="line"/>
    </contour>
    <contour>
      <point x="150.529" y="110.834" type="curve"/>
      <point x="150.924" y="406.567" type="line"/>
      <point x="182.519" y="476.532"/>
      <point x="250.689" y="513"/>
      <point x="334" y="513" type="curve" smooth="yes"/>
      <point x="469" y="513"/>
      <point x="568" y="419"/>
      <point x="568" y="271" type="curve" smooth="yes"/>
      <point x="568" y="91.7443"/>
      <point x="473.872" y="-13"/>
      <point x="332.668" y="-13" type="curve" smooth="yes"/>
      <point x="254.235" y="-13"/>
      <point x="193.5" y="28.1129"/>
    </contour>
    <contour>
      <point x="170" y="262" type="curve" smooth="yes"/>
      <point x="170" y="143.86"/>
      <point x="234.497" y="54"/>
      <point x="317.978" y="54" type="curve" smooth="yes"/>
      <point x="414.254" y="54"/>
      <point x="472" y="123.449"/>
      <point x="472" y="265" type="curve" smooth="yes"/>
      <point x="472" y="383"/>
      <point x="406" y="455"/>
      <point x="321" y="455" type="curve" smooth="yes"/>
      <point x="232" y="455"/>
      <point x="170" y="376"/>
    </contour>
  </outline>
</glyph>
<glyph name="dotlessi" format="2">
  <advance width="250"/>
  <unicode hex="0131"/>
  <anchor x="125" y="580" name="top"/>
  <outline>
    <contour>
      <point x="170" y="0" type="line"/>
      <point x="170" y="500" type="line"/>
      <point x="80" y="500" type="line"/>
      <point x="80" y="0" type="line"/>
    </contour>
  </outline>
  <guideline angle="90" x="125" y="0"/>
</glyph>
<glyph name="kgreenlandic" format="2">
  <advance width="489"/>
  <unicode hex="0138"/>
  <outline>
    <contour>
      <point x="170" y="0" type="line"/>
      <point x="170" y="500" type="line"/>
      <point x="80" y="470" type="line"/>
      <point x="80" y="0" type="line"/>
    </contour>
    <contour>
      <point x="469" y="0" type="line"/>
      <point x="245.703" y="291.527" type="line"/>
      <point x="244.888" y="273.158" type="line"/>
      <point x="453" y="500" type="line"/>
      <point x="340" y="500" type="line"/>
      <point x="139.711" y="280.736" type="line"/>
      <point x="350" y="0" type="line"/>
    </contour>
  </outline>
  <guideline angle="198.435" x="170" y="500"/>
</glyph>
<glyph name="Lslash" format="2">
  <advance width="601"/>
  <unicode hex="0141"/>
  <outline>
    <component base="L" xOffset="106"/>
    <contour>
      <point x="286.35" y="337.875" type="line"/>
      <point x="392.35" y="440.414" type="line"/>
      <point x="392.35" y="522.414" type="line"/>
      <point x="286.4" y="418.824" type="line"/>
    </contour>
    <contour>
      <point x="185.95" y="320.282" type="line"/>
      <point x="80" y="215.043" type="line"/>
      <point x="80" y="136.043" type="line"/>
      <point x="186" y="240.231" type="line"/>
    </contour>
  </outline>
</glyph>
<glyph name="lslash" format="2">
  <advance width="434"/>
  <unicode hex="0142"/>
  <outline>
    <contour>
      <point x="80" y="294" type="line"/>
      <point x="80" y="215" type="line"/>
      <point x="354" y="483" type="line"/>
      <point x="354" y="565" type="line"/>
    </contour>
    <contour>
      <point x="175" y="0.001" type="line"/>
      <point x="275" y="0.001" type="line"/>
      <point x="275" y="722.001" type="line"/>
      <point x="175" y="722.001" type="line"/>
    </contour>
  </outline>
</glyph>
<glyph name="Eng" format="2">
  <advance width="683"/>
  <unicode hex="014A"/>
  <outline>
    <component base="N"/>
    <contour>
      <point x="623" y="20" type="line"/>
      <point x="623" y="-62" type="line" smooth="yes"/>
      <point x="623" y="-146"/>
      <point x="563.337" y="-200"/>
      <point x="474.242" y="-200" type="curve" smooth="yes"/>
      <point x="421" y="-200"/>
      <point x="375" y="-181"/>
      <point x="340" y="-143" type="curve"/>
      <point x="397" y="-86" type="line"/>
      <point x="418" y="-115"/>
      <point x="443" y="-130"/>
      <point x="470.61" y="-130" type="curve" smooth="yes"/>
      <point x="509" y="-130"/>
      <point x="533" y="-101"/>
      <point x="533" y="-62" type="curve" smooth="yes"/>
      <point x="533" y="20" type="line"/>
    </contour>
  </outline>
</glyph>
<glyph name="OE" format="2">
  <advance width="1004"/>
  <unicode hex="0152"/>
  <outline>
    <component base="E" xOffset="464"/>
    <contour>
      <point x="60" y="361" type="curve" smooth="yes"/>
      <point x="60" y="143"/>
      <point x="170" y="-12"/>
      <point x="388" y="-12" type="curve"/>
      <point x="388" y="76" type="line"/>
      <point x="228" y="76"/>
      <point x="163" y="181"/>
      <point x="163" y="361" type="curve" smooth="yes"/>
      <point x="163" y="541"/>
      <point x="228" y="646"/>
      <point x="388" y="646" type="curve"/>
      <point x="388" y="734" type="line"/>
      <point x="170" y="734"/>
      <point x="60" y="579"/>
    </contour>
    <contour>
      <point x="388" y="646" type="line"/>
      <point x="454.981" y="646"/>
      <point x="506.134" y="639.249"/>
      <point x="544.672" y="614.679" type="curve"/>
      <point x="545.254" y="719.595" type="line"/>
      <point x="505.826" y="730.788"/>
      <point x="432.915" y="734"/>
      <point x="388" y="734" type="curve"/>
    </contour>
    <contour>
      <point x="388" y="-12" type="line"/>
      <point x="437.743" y="-12"/>
      <point x="511.146" y="-12.3653"/>
      <point x="543.563" y="2.80233" type="curve"/>
      <point x="543.563" y="112.772" type="line"/>
      <point x="508.616" y="77.5783"/>
      <point x="456.498" y="76"/>
      <point x="388" y="76" type="curve"/>
    </contour>
  </outline>
</glyph>
<glyph name="tbar" format="2">
  <advance width="344"/>
  <unicode hex="0167"/>
  <outline>
    <contour>
      <point x="41" y="248" type="line"/>
      <point x="281" y="248" type="line"/>
      <point x="281" y="313" type="line"/>
      <point x="41" y="313" type="line"/>
    </contour>
    <contour>
      <point x="204" y="130" type="curve" smooth="yes"/>
      <point x="204" y="636" type="line"/>
      <point x="114" y="599" type="line"/>
      <point x="114" y="133" type="line" smooth="yes"/>
      <point x="114" y="37"/>
      <point x="141" y="-12"/>
      <point x="227" y="-12" type="curve" smooth="yes"/>
      <point x="256" y="-12"/>
      <point x="286" y="-9"/>
      <point x="314" y="0" type="curve"/>
      <point x="314" y="64" type="line"/>
      <point x="294" y="58"/>
      <point x="273" y="55"/>
      <point x="253" y="55" type="curve" smooth="yes"/>
      <point x="215" y="55"/>
      <point x="204" y="85"/>
    </contour>
    <contour>
      <point x="189" y="435" type="line"/>
      <point x="314" y="435" type="line"/>
      <point x="314" y="500" type="line"/>
      <point x="189" y="500" type="line"/>
    </contour>
    <contour>
      <point x="129" y="500" type="line"/>
      <point x="24" y="500" type="line"/>
      <point x="24" y="435" type="line"/>
      <point x="129" y="435" type="line"/>
    </contour>
  </outline>
</glyph>
<glyph name="Utilde" format="2">
  <advance width="716"/>
  <unicode hex="0168"/>
  <anchor x="358" y="797" name="top"/>
  <anchor x="358" y="-50" name="bottom"/>
  <anchor x="354" y="977" name="top.mkmk"/>
  <outline>
    <contour>
      <point x="70" y="322" type="curve" smooth="yes"/>
      <point x="70" y="722" type="line"/>
      <point x="170" y="722" type="line"/>
      <point x="170" y="322" type="line" smooth="yes"/>
      <point x="170" y="168"/>
      <point x="208" y="74"/>
      <point x="357" y="74" type="curve" smooth="yes"/>
      <point x="505" y="74"/>
      <point x="546" y="171"/>
      <point x="546" y="322" type="curve" smooth="yes"/>
      <point x="546" y="722" type="line"/>
      <point x="646" y="722" type="line"/>
      <point x="646" y="322" type="line" smooth="yes"/>
      <point x="646" y="78"/>
      <point x="576" y="-14"/>
      <point x="358" y="-14" type="curve" smooth="yes"/>
      <point x="141" y="-14"/>
      <point x="70" y="96"/>
    </contour>
    <contour>
      <point x="208" y="815" type="line"/>
      <point x="214" y="877"/>
      <point x="254" y="913"/>
      <point x="296.053" y="913" type="curve" smooth="yes"/>
      <point x="311.595" y="913"/>
      <point x="333.392" y="908.083"/>
      <point x="354.05" y="896.739" type="curve"/>
      <point x="354.273" y="836.54" type="line"/>
      <point x="336.228" y="847.755"/>
      <point x="316.484" y="856"/>
      <point x="300.576" y="856" type="curve" smooth="yes"/>
      <point x="281" y="856"/>
      <point x="266" y="842"/>
      <point x="263" y="815" type="curve"/>
    </contour>
    <contour>
      <point x="500.273" y="919" type="line"/>
      <point x="494.273" y="857"/>
      <point x="454.273" y="821"/>
      <point x="412.22" y="821" type="curve" smooth="yes"/>
      <point x="396.679" y="821"/>
      <point x="374.881" y="825.917"/>
      <point x="354.223" y="837.261" type="curve"/>
      <point x="354" y="897.46" type="line"/>
      <point x="372.045" y="886.245"/>
      <point x="391.79" y="878"/>
      <point x="407.697" y="878" type="curve" smooth="yes"/>
      <point x="427.273" y="878"/>
      <point x="442.273" y="892"/>
      <point x="445.273" y="919" type="curve"/>
    </contour>
  </outline>
  <guideline angle="90" x="358" y="0"/>
</glyph>
<glyph name="utilde" format="2">
  <advance width="594"/>
  <unicode hex="0169"/>
  <anchor x="297" y="580" name="top"/>
  <anchor x="297" y="-87" name="bottom"/>
  <anchor x="293" y="760" name="top.mkmk"/>
  <anchor x="287" y="580" name="_top.mkmk"/>
  <anchor x="297" y="580" name="_top"/>
  <outline>
    <contour>
      <point x="424" y="500" type="line"/>
      <point x="424" y="0" type="line"/>
      <point x="514" y="0" type="line"/>
      <point x="514" y="500" type="line"/>
    </contour>
    <contour>
      <point x="80" y="174" type="line" smooth="yes"/>
      <point x="80" y="54"/>
      <point x="141" y="-12"/>
      <point x="261" y="-12" type="curve" smooth="yes"/>
      <point x="336.107" y="-12"/>
      <point x="388.468" y="14.02"/>
      <point x="424" y="69" type="curve" smooth="yes"/>
      <point x="444" y="99.9467" type="line"/>
      <point x="444" y="181.462" type="line"/>
      <point x="424" y="181" type="line"/>
      <point x="424" y="109"/>
      <point x="367" y="53"/>
      <point x="287.401" y="53" type="curve" smooth="yes"/>
      <point x="216.691" y="53"/>
      <point x="170" y="97.19"/>
      <point x="170" y="172" type="curve" smooth="yes"/>
      <point x="170" y="500" type="line"/>
      <point x="80" y="500" type="line"/>
    </contour>
    <contour>
      <point x="151" y="598" type="curve"/>
      <point x="206" y="598" type="line"/>
      <point x="209" y="625"/>
      <point x="224" y="639"/>
      <point x="243.576" y="639" type="curve" smooth="yes"/>
      <point x="259.484" y="639"/>
      <point x="279.228" y="630.755"/>
      <point x="297.273" y="619.54" type="curve"/>
      <point x="297.05" y="679.739" type="line"/>
      <point x="276.392" y="691.083"/>
      <point x="254.595" y="696"/>
      <point x="239.053" y="696" type="curve" smooth="yes"/>
      <point x="197" y="696"/>
      <point x="157" y="660"/>
    </contour>
    <contour>
      <point x="443.273" y="702" type="curve"/>
      <point x="388.273" y="702" type="line"/>
      <point x="385.273" y="675"/>
      <point x="370.273" y="661"/>
      <point x="350.697" y="661" type="curve" smooth="yes"/>
      <point x="334.79" y="661"/>
      <point x="315.045" y="669.245"/>
      <point x="297" y="680.46" type="curve"/>
      <point x="297.223" y="620.261" type="line"/>
      <point x="317.881" y="608.917"/>
      <point x="339.679" y="604"/>
      <point x="355.22" y="604" type="curve" smooth="yes"/>
      <point x="397.273" y="604"/>
      <point x="437.273" y="640"/>
    </contour>
  </outline>
  <guideline angle="90" x="297" y="0"/>
</glyph>
<glyph name="florin" format="2">
  <advance width="503"/>
  <unicode hex="0192"/>
  <outline>
    <contour>
      <point x="109" y="-3" type="line" smooth="yes"/>
      <point x="82.0553" y="-103.015"/>
      <point x="52" y="-138"/>
      <point x="-8.23377" y="-138" type="curve" smooth="yes"/>
      <point x="-31" y="-138"/>
      <point x="-44" y="-133"/>
      <point x="-53" y="-124" type="curve"/>
      <point x="-73" y="-199" type="line"/>
      <point x="-57" y="-208"/>
      <point x="-39" y="-212"/>
      <point x="-20" y="-212" type="curve" smooth="yes"/>
      <point x="103" y="-212"/>
      <point x="155.296" y="-163.08"/>
      <point x="198" y="-4" type="curve" smooth="yes"/>
      <point x="336.516" y="512" type="line" smooth="yes"/>
      <point x="374.473" y="653.396"/>
      <point x="385" y="658"/>
      <point x="447" y="658" type="curve" smooth="yes"/>
      <point x="470" y="658"/>
      <point x="488" y="654.025"/>
      <point x="501" y="646.076" type="curve"/>
      <point x="523" y="721.863" type="line"/>
      <point x="500.47" y="729.857"/>
      <point x="477.704" y="732"/>
      <point x="454" y="732" type="curve" smooth="yes"/>
      <point x="309" y="732"/>
      <point x="296.771" y="693.981"/>
      <point x="257.801" y="549.331" type="curve" smooth="yes"/>
    </contour>
    <contour>
      <point x="144" y="499.5" type="line"/>
      <point x="127" y="434.5" type="line"/>
      <point x="436" y="434.5" type="line"/>
      <point x="453" y="499.5" type="line"/>
    </contour>
  </outline>
  <guideline angle="74.9736" x="198" y="-4"/>
  <guideline angle="254.922" x="227" y="435"/>
  <guideline angle="74.9736" x="198" y="-4"/>
  <guideline angle="254.922" x="227" y="435"/>
  <guideline angle="74.9736" x="198" y="-4"/>
  <guideline angle="254.922" x="227" y="435"/>
  <guideline angle="255.343" x="144" y="500"/>
  <guideline angle="75.3432" x="436" y="435"/>
  <guideline angle="0" x="0" y="500"/>
  <guideline angle="73.8557" x="501" y="646"/>
</glyph>
<glyph name="uni019E" format="2">
  <advance width="608"/>
  <unicode hex="019E"/>
  <outline>
    <contour>
      <point x="170" y="0" type="line"/>
      <point x="170" y="500" type="line"/>
      <point x="80" y="500" type="line"/>
      <point x="80" y="0" type="line"/>
    </contour>
    <contour>
      <point x="150" y="322.561" type="line"/>
      <point x="170" y="323" type="line"/>
      <point x="170" y="396"/>
      <point x="227" y="453"/>
      <point x="302" y="453" type="curve" smooth="yes"/>
      <point x="387" y="453"/>
      <point x="425" y="409"/>
      <point x="425" y="311" type="curve" smooth="yes"/>
      <point x="425" y="0" type="line"/>
      <point x="515" y="0" type="line"/>
      <point x="515" y="329" type="line" smooth="yes"/>
      <point x="515" y="452"/>
      <point x="452" y="513"/>
      <point x="327" y="513" type="curve" smooth="yes"/>
      <point x="263" y="513"/>
      <point x="204.323" y="483.769"/>
      <point x="170" y="436" type="curve" smooth="yes"/>
      <point x="150" y="408.165" type="line"/>
    </contour>
    <contour>
      <point x="515" y="100" type="line"/>
      <point x="425" y="100" type="line"/>
      <point x="425" y="-200" type="line"/>
      <point x="515" y="-200" type="line"/>
    </contour>
  </outline>
</glyph>
<glyph name="uni01C1" format="2">
  <advance width="688"/>
  <unicode hex="01C1"/>
  <outline>
    <contour>
      <point x="222.5" y="-258" type="line"/>
      <point x="222.5" y="796" type="line"/>
      <point x="122.5" y="796" type="line"/>
      <point x="122.5" y="-258" type="line"/>
    </contour>
    <contour>
      <point x="566.5" y="-258" type="line"/>
      <point x="566.5" y="796" type="line"/>
      <point x="466.5" y="796" type="line"/>
      <point x="466.5" y="-258" type="line"/>
    </contour>
  </outline>
</glyph>
<glyph name="uni01C2" format="2">
  <advance width="405"/>
  <unicode hex="01C2"/>
  <outline>
    <contour>
      <point x="385" y="272" type="line"/>
      <point x="228" y="272" type="line"/>
      <point x="228" y="0" type="line"/>
      <point x="177" y="0" type="line"/>
      <point x="177" y="272" type="line"/>
      <point x="19" y="272" type="line"/>
      <point x="19" y="323" type="line"/>
      <point x="177" y="323" type="line"/>
      <point x="177" y="413" type="line"/>
      <point x="19" y="413" type="line"/>
      <point x="19" y="464" type="line"/>
      <point x="177" y="464" type="line"/>
      <point x="177" y="736" type="line"/>
      <point x="228" y="736" type="line"/>
      <point x="228" y="464" type="line"/>
      <point x="385" y="464" type="line"/>
      <point x="385" y="413" type="line"/>
      <point x="228" y="413" type="line"/>
      <point x="228" y="323" type="line"/>
      <point x="385" y="323" type="line"/>
    </contour>
  </outline>
</glyph>
<glyph name="uni01DD" format="2">
  <advance width="575"/>
  <unicode hex="01DD"/>
  <outline>
    <contour>
      <point x="515" y="248" type="curve" smooth="yes"/>
      <point x="515" y="93"/>
      <point x="441" y="-14"/>
      <point x="284" y="-14" type="curve" smooth="yes"/>
      <point x="141" y="-14"/>
      <point x="61" y="75"/>
      <point x="61" y="216" type="curve" smooth="yes"/>
      <point x="61" y="262" type="line"/>
      <point x="421" y="262" type="line"/>
      <point x="421" y="364"/>
      <point x="371" y="447"/>
      <point x="276" y="447" type="curve" smooth="yes"/>
      <point x="205" y="447"/>
      <point x="162" y="400"/>
      <point x="156" y="338" type="curve"/>
      <point x="60" y="338" type="line"/>
      <point x="80" y="443"/>
      <point x="157" y="512"/>
      <point x="284" y="512" type="curve" smooth="yes"/>
      <point x="447" y="512"/>
      <point x="515" y="396"/>
    </contour>
    <contour>
      <point x="421" y="197" type="curve"/>
      <point x="155" y="197" type="line"/>
      <point x="155" y="137"/>
      <point x="180" y="51"/>
      <point x="284" y="51" type="curve" smooth="yes"/>
      <point x="362" y="51"/>
      <point x="421" y="99"/>
    </contour>
  </outline>
</glyph>
<glyph name="dotlessj" format="2">
  <advance width="266"/>
  <unicode hex="0237"/>
  <outline>
    <contour>
      <point x="40" y="-200" type="line"/>
      <point x="40" y="-134" type="line"/>
      <point x="65" y="-134" type="line" smooth="yes"/>
      <point x="95" y="-134"/>
      <point x="96" y="-91"/>
      <point x="96" y="-44" type="curve" smooth="yes"/>
      <point x="96" y="500" type="line"/>
      <point x="186" y="500" type="line"/>
      <point x="186" y="-74" type="line" smooth="yes"/>
      <point x="186" y="-161"/>
      <point x="135" y="-200"/>
      <point x="65" y="-200" type="curve" smooth="yes"/>
    </contour>
  </outline>
</glyph>
<glyph name="uni0255" format="2">
  <advance width="555"/>
  <unicode hex="0255"/>
  <outline>
    <contour>
      <point x="286.974" y="-12" type="curve" smooth="yes"/>
      <point x="412.752" y="-12"/>
      <point x="505" y="51.2447"/>
      <point x="505" y="130.613" type="curve" smooth="yes"/>
      <point x="505" y="191.049"/>
      <point x="451.522" y="234"/>
      <point x="381.789" y="234" type="curve" smooth="yes"/>
      <point x="249.191" y="234"/>
      <point x="115.603" y="79.2874"/>
      <point x="60.9895" y="-133" type="curve"/>
      <point x="111.453" y="-150" type="line"/>
      <point x="166.441" y="29.2151"/>
      <point x="281.417" y="175"/>
      <point x="363.884" y="175" type="curve" smooth="yes"/>
      <point x="395.92" y="175"/>
      <point x="417" y="153"/>
      <point x="417" y="125.049" type="curve" smooth="yes"/>
      <point x="417" y="77.0857"/>
      <point x="354.929" y="52"/>
      <point x="311.599" y="52" type="curve" smooth="yes"/>
      <point x="180.89" y="52"/>
      <point x="154" y="135.025"/>
      <point x="154" y="241.355" type="curve" smooth="yes"/>
      <point x="154" y="342"/>
      <point x="178.092" y="447"/>
      <point x="281.485" y="447" type="curve" smooth="yes"/>
      <point x="348.74" y="447"/>
      <point x="383.874" y="402"/>
      <point x="388.893" y="341" type="curve"/>
      <point x="484" y="341" type="line"/>
      <point x="476" y="453"/>
      <point x="398.931" y="512"/>
      <point x="289.515" y="512" type="curve" smooth="yes"/>
      <point x="138.168" y="512"/>
      <point x="60" y="399"/>
      <point x="60" y="238.693" type="curve" smooth="yes"/>
      <point x="60" y="90.0855"/>
      <point x="127.175" y="-12"/>
    </contour>
  </outline>
</glyph>
<glyph name="uni0256" format="2">
  <advance width="611"/>
  <unicode hex="0256"/>
  <outline>
    <component base="d"/>
    <contour>
      <point x="461" y="134" type="line"/>
      <point x="461" y="-60" type="line" smooth="yes"/>
      <point x="461" y="-144"/>
      <point x="520" y="-199"/>
      <point x="607" y="-199" type="curve" smooth="yes"/>
      <point x="664" y="-199"/>
      <point x="710" y="-180"/>
      <point x="745" y="-142" type="curve"/>
      <point x="688" y="-85" type="line"/>
      <point x="667" y="-114"/>
      <point x="642" y="-129"/>
      <point x="613" y="-129" type="curve" smooth="yes"/>
      <point x="579" y="-129"/>
      <point x="551" y="-103"/>
      <point x="551" y="-61" type="curve" smooth="yes"/>
      <point x="551" y="134" type="line"/>
    </contour>
  </outline>
</glyph>
<glyph name="uni0257" format="2">
  <advance width="591"/>
  <unicode hex="0257"/>
  <outline>
    <component base="uni0251"/>
    <contour>
      <point x="436" y="380" type="line"/>
      <point x="436" y="545" type="line" smooth="yes"/>
      <point x="436" y="653.789"/>
      <point x="517.653" y="732"/>
      <point x="631" y="732" type="curve" smooth="yes"/>
      <point x="703" y="732"/>
      <point x="755" y="716"/>
      <point x="787" y="683" type="curve"/>
      <point x="733" y="631" type="line"/>
      <point x="708" y="652"/>
      <point x="675" y="662"/>
      <point x="634" y="662" type="curve" smooth="yes"/>
      <point x="545.651" y="662"/>
      <point x="526" y="591.108"/>
      <point x="526" y="505.724" type="curve" smooth="yes"/>
      <point x="526" y="380" type="line"/>
    </contour>
  </outline>
</glyph>
<glyph name="uni025A" format="2">
  <advance width="766"/>
  <unicode hex="025A"/>
  <anchor x="288" y="-82" name="top"/>
  <anchor x="288" y="587" name="bottom"/>
  <anchor x="288" y="498" name="cedilla.bottom"/>
  <outline>
    <contour>
      <point x="516" y="248" type="curve" smooth="yes"/>
      <point x="516" y="396"/>
      <point x="447" y="512"/>
      <point x="284" y="512" type="curve" smooth="yes"/>
      <point x="157" y="512"/>
      <point x="80" y="443"/>
      <point x="60" y="338" type="curve"/>
      <point x="156" y="338" type="line"/>
      <point x="162" y="400"/>
      <point x="205" y="447"/>
      <point x="276" y="447" type="curve" smooth="yes"/>
      <point x="398.856" y="447"/>
      <point x="423.969" y="325.175"/>
      <point x="423.969" y="228.423" type="curve" smooth="yes"/>
      <point x="423.969" y="135.291"/>
      <point x="397.357" y="51"/>
      <point x="284" y="51" type="curve" smooth="yes"/>
      <point x="176.557" y="51"/>
      <point x="155" y="133.97"/>
      <point x="155" y="221.167" type="curve"/>
      <point x="63.2309" y="176.57" type="line"/>
      <point x="63.2309" y="57.1841"/>
      <point x="141" y="-14"/>
      <point x="284" y="-14" type="curve" smooth="yes"/>
      <point x="441" y="-14"/>
      <point x="516" y="93"/>
    </contour>
    <contour>
      <point x="89.9346" y="121.371" type="line"/>
      <point x="586.542" y="363.256" type="line"/>
      <point x="575.755" y="370" type="line"/>
      <point x="575.755" y="301.173" type="line" smooth="yes"/>
      <point x="575.755" y="246.868"/>
      <point x="610.66" y="213"/>
      <point x="677.64" y="213" type="curve" smooth="yes"/>
      <point x="727.64" y="213"/>
      <point x="765" y="257"/>
      <point x="765" y="319" type="curve"/>
      <point x="720" y="319" type="line"/>
      <point x="720" y="277"/>
      <point x="706.071" y="253.087"/>
      <point x="678" y="253" type="curve" smooth="yes"/>
      <point x="643.241" y="252.893"/>
      <point x="630" y="268.117"/>
      <point x="630" y="303" type="curve" smooth="yes"/>
      <point x="630" y="452" type="line"/>
      <point x="77.464" y="183.487" type="line"/>
    </contour>
  </outline>
  <guideline angle="205.918" x="630" y="452"/>
  <guideline angle="25.9249" x="155" y="153"/>
</glyph>
<glyph name="uni0262" format="2">
  <advance width="564"/>
  <unicode hex="0262"/>
  <outline>
    <contour>
      <point x="32" y="256.261" type="curve" smooth="yes"/>
      <point x="32" y="78.5064"/>
      <point x="125.522" y="-11.9986"/>
      <point x="309.205" y="-11.9986" type="curve" smooth="yes"/>
      <point x="369.988" y="-11.9986"/>
      <point x="428.676" y="-0.819964"/>
      <point x="483.871" y="22.9346" type="curve"/>
      <point x="483.871" y="266.07" type="line"/>
      <point x="298.725" y="266.07" type="line"/>
      <point x="298.725" y="205.286" type="line"/>
      <point x="413.306" y="205.286" type="line"/>
      <point x="413.306" y="69.2518" type="line"/>
      <point x="373.482" y="58.0732"/>
      <point x="333.658" y="52.4839"/>
      <point x="291.738" y="52.4839" type="curve" smooth="yes"/>
      <point x="187.764" y="52.4839"/>
      <point x="121.962" y="131.378"/>
      <point x="121.962" y="254.865" type="curve" smooth="yes"/>
      <point x="121.962" y="356.151"/>
      <point x="186.04" y="441.216"/>
      <point x="290.122" y="441.216" type="curve" smooth="yes"/>
      <point x="353.002" y="441.216"/>
      <point x="397.1" y="406.982"/>
      <point x="397.1" y="366.459" type="curve"/>
      <point x="486.666" y="366.459" type="line"/>
      <point x="486.666" y="444.011"/>
      <point x="403.524" y="512"/>
      <point x="294.533" y="512" type="curve" smooth="yes"/>
      <point x="131.431" y="512"/>
      <point x="32" y="406.444"/>
    </contour>
  </outline>
</glyph>
<glyph name="uni0263" format="2">
  <advance width="530"/>
  <unicode hex="0263"/>
  <outline>
    <contour>
      <point x="264" y="-21" type="curve"/>
      <point x="241.657" y="-46"/>
      <point x="230" y="-74"/>
      <point x="230" y="-98" type="curve" smooth="yes"/>
      <point x="230" y="-121"/>
      <point x="241.657" y="-132"/>
      <point x="264" y="-132" type="curve" smooth="yes"/>
      <point x="286.343" y="-132"/>
      <point x="298" y="-121"/>
      <point x="298" y="-94.3385" type="curve" smooth="yes"/>
      <point x="298" y="-70"/>
      <point x="288.286" y="-47"/>
    </contour>
    <contour>
      <point x="515" y="500" type="line"/>
      <point x="313" y="45" type="line"/>
      <point x="357" y="-17"/>
      <point x="379" y="-70"/>
      <point x="379" y="-105.256" type="curve" smooth="yes"/>
      <point x="379" y="-161"/>
      <point x="324" y="-197"/>
      <point x="264.971" y="-197" type="curve" smooth="yes"/>
      <point x="204.367" y="-197"/>
      <point x="149" y="-161"/>
      <point x="149" y="-105.454" type="curve" smooth="yes"/>
      <point x="149" y="-70"/>
      <point x="171.557" y="-17"/>
      <point x="216.671" y="45" type="curve"/>
      <point x="15" y="500" type="line"/>
      <point x="120" y="500" type="line"/>
      <point x="267.943" y="140" type="line"/>
      <point x="263.943" y="140" type="line"/>
      <point x="410" y="500" type="line"/>
    </contour>
  </outline>
</glyph>
<glyph name="uni0264" format="2">
  <advance width="579"/>
  <unicode hex="0264"/>
  <outline>
    <contour>
      <point x="318.532" y="96.2273" type="curve"/>
      <point x="318.532" y="87.1818" type="line" smooth="yes"/>
      <point x="318.532" y="63.0606"/>
      <point x="305.532" y="53"/>
      <point x="283.532" y="53" type="curve" smooth="yes"/>
      <point x="262.532" y="53"/>
      <point x="251.532" y="64.0555"/>
      <point x="251.532" y="87.1717" type="curve" smooth="yes"/>
      <point x="251.532" y="96.2272" type="line"/>
      <point x="262.532" y="124.369"/>
      <point x="275.532" y="151.48"/>
      <point x="286.532" y="171.581" type="curve"/>
      <point x="283.05" y="171.765" type="line"/>
      <point x="295.631" y="150.642"/>
      <point x="309.013" y="120.92"/>
    </contour>
    <contour>
      <point x="561.531" y="443.514" type="curve" smooth="yes"/>
      <point x="561.531" y="471.51"/>
      <point x="518.823" y="512"/>
      <point x="479.537" y="512" type="curve" smooth="yes"/>
      <point x="430.531" y="512"/>
      <point x="364.531" y="449"/>
      <point x="286.531" y="323.379" type="curve"/>
      <point x="205.531" y="449"/>
      <point x="139.531" y="512"/>
      <point x="91.0348" y="512" type="curve" smooth="yes"/>
      <point x="52.06" y="512"/>
      <point x="11.5315" y="471.31"/>
      <point x="11.5315" y="442.105" type="curve" smooth="yes"/>
      <point x="11.5315" y="432.929"/>
      <point x="15.5315" y="427.904"/>
      <point x="22.6517" y="427.904" type="curve" smooth="yes"/>
      <point x="28.8905" y="427.904"/>
      <point x="33.5972" y="430.692"/>
      <point x="38.212" y="434.357" type="curve" smooth="yes"/>
      <point x="47.2589" y="441.542"/>
      <point x="59.127" y="447"/>
      <point x="70.2335" y="447" type="curve" smooth="yes"/>
      <point x="93.5315" y="447"/>
      <point x="134.383" y="422.1"/>
      <point x="170.531" y="364.576" type="curve" smooth="yes"/>
      <point x="242.531" y="250" type="line"/>
      <point x="197.531" y="164.571"/>
      <point x="175.531" y="116.328"/>
      <point x="175.531" y="90.197" type="curve" smooth="yes"/>
      <point x="175.531" y="26.7463"/>
      <point x="220.531" y="-12"/>
      <point x="282.163" y="-12" type="curve" smooth="yes"/>
      <point x="349.531" y="-12"/>
      <point x="397.531" y="34.6866"/>
      <point x="397.531" y="80.5404" type="curve" smooth="yes"/>
      <point x="397.531" y="114.288"/>
      <point x="371.531" y="171.606"/>
      <point x="330.531" y="250" type="curve"/>
      <point x="402.531" y="364.576" type="line" smooth="yes"/>
      <point x="438.68" y="422.1"/>
      <point x="479.531" y="447"/>
      <point x="504.788" y="447" type="curve" smooth="yes"/>
      <point x="515.541" y="447"/>
      <point x="525.654" y="442.383"/>
      <point x="531.87" y="436.504" type="curve" smooth="yes"/>
      <point x="536.164" y="432.442"/>
      <point x="543.459" y="427.904"/>
      <point x="549.696" y="427.904" type="curve" smooth="yes"/>
      <point x="556.531" y="427.904"/>
      <point x="561.531" y="433.934"/>
    </contour>
  </outline>
</glyph>
<glyph name="uni0267" format="2">
  <advance width="574"/>
  <unicode hex="0267"/>
  <outline>
    <contour>
      <point x="170" y="0" type="line"/>
      <point x="80" y="0" type="line"/>
      <point x="80" y="462" type="line"/>
      <point x="170" y="462" type="line"/>
    </contour>
    <contour>
      <point x="80" y="380" type="line"/>
      <point x="80" y="545" type="line" smooth="yes"/>
      <point x="80" y="653.789"/>
      <point x="161.653" y="732"/>
      <point x="275" y="732" type="curve" smooth="yes"/>
      <point x="347" y="732"/>
      <point x="399" y="716"/>
      <point x="431" y="683" type="curve"/>
      <point x="377" y="631" type="line"/>
      <point x="352" y="652"/>
      <point x="319" y="662"/>
      <point x="278" y="662" type="curve" smooth="yes"/>
      <point x="189.651" y="662"/>
      <point x="170" y="591.108"/>
      <point x="170" y="505.724" type="curve" smooth="yes"/>
      <point x="170" y="380" type="line"/>
    </contour>
    <contour>
      <point x="515" y="134" type="line"/>
      <point x="515" y="-60" type="line" smooth="yes"/>
      <point x="515" y="-144"/>
      <point x="456" y="-199"/>
      <point x="369" y="-199" type="curve" smooth="yes"/>
      <point x="312" y="-199"/>
      <point x="266" y="-180"/>
      <point x="231" y="-142" type="curve"/>
      <point x="288" y="-85" type="line"/>
      <point x="309" y="-114"/>
      <point x="334" y="-129"/>
      <point x="363" y="-129" type="curve" smooth="yes"/>
      <point x="397" y="-129"/>
      <point x="425" y="-103"/>
      <point x="425" y="-61" type="curve" smooth="yes"/>
      <point x="425" y="134" type="line"/>
    </contour>
    <contour>
      <point x="150" y="408.165" type="line"/>
      <point x="170" y="436" type="line" smooth="yes"/>
      <point x="204.323" y="483.769"/>
      <point x="263" y="513"/>
      <point x="327" y="513" type="curve" smooth="yes"/>
      <point x="452" y="513"/>
      <point x="515" y="452"/>
      <point x="515" y="329" type="curve" smooth="yes"/>
      <point x="515" y="0" type="line"/>
      <point x="425" y="0" type="line"/>
      <point x="425" y="311" type="line" smooth="yes"/>
      <point x="425" y="409"/>
      <point x="387" y="453"/>
      <point x="302" y="453" type="curve" smooth="yes"/>
      <point x="227" y="453"/>
      <point x="170" y="396"/>
      <point x="170" y="323" type="curve"/>
      <point x="150" y="322.561" type="line"/>
    </contour>
  </outline>
  <guideline angle="90" x="80" y="0"/>
  <guideline angle="90" x="170" y="0"/>
</glyph>
<glyph name="uni026D" format="2">
  <advance width="282"/>
  <unicode hex="026D"/>
  <outline>
    <component base="l"/>
    <contour>
      <point x="291" y="-199.87" type="line"/>
      <point x="238.558" y="-199.87" type="line" smooth="yes"/>
      <point x="122.739" y="-199.87"/>
      <point x="80" y="-154.521"/>
      <point x="80" y="-39.7593" type="curve" smooth="yes"/>
      <point x="80" y="40" type="line"/>
      <point x="170" y="40" type="line"/>
      <point x="170" y="-40" type="line" smooth="yes"/>
      <point x="170" y="-103.484"/>
      <point x="188.309" y="-125.759"/>
      <point x="248.611" y="-125.759" type="curve" smooth="yes"/>
      <point x="291" y="-125.759" type="line"/>
    </contour>
  </outline>
</glyph>
<glyph name="uni0270" format="2">
  <advance width="896"/>
  <unicode hex="0270"/>
  <outline>
    <contour>
      <point x="70" y="501" type="line"/>
      <point x="160" y="501" type="line"/>
      <point x="160" y="178" type="line" smooth="yes"/>
      <point x="160" y="93.7088"/>
      <point x="205" y="52"/>
      <point x="263.903" y="52" type="curve" smooth="yes"/>
      <point x="338" y="52"/>
      <point x="401" y="118"/>
      <point x="401" y="178" type="curve" smooth="yes"/>
      <point x="401" y="501" type="line"/>
      <point x="491" y="501" type="line"/>
      <point x="491" y="178" type="line" smooth="yes"/>
      <point x="491" y="108"/>
      <point x="539" y="52"/>
      <point x="602" y="52" type="curve" smooth="yes"/>
      <point x="670" y="52"/>
      <point x="736" y="118"/>
      <point x="736" y="178" type="curve" smooth="yes"/>
      <point x="736" y="501" type="line"/>
      <point x="826" y="501" type="line"/>
      <point x="826" y="-197" type="line"/>
      <point x="736" y="-197" type="line"/>
      <point x="736" y="71" type="line"/>
      <point x="696" y="15"/>
      <point x="646" y="-12"/>
      <point x="587" y="-12" type="curve" smooth="yes"/>
      <point x="501" y="-12"/>
      <point x="458" y="9"/>
      <point x="417" y="77" type="curve"/>
      <point x="375" y="17"/>
      <point x="321" y="-13"/>
      <point x="255" y="-13" type="curve" smooth="yes"/>
      <point x="132" y="-13"/>
      <point x="70" y="50"/>
      <point x="70" y="178" type="curve" smooth="yes"/>
    </contour>
  </outline>
</glyph>
<glyph name="uni0274" format="2">
  <advance width="581"/>
  <unicode hex="0274"/>
  <outline>
    <contour>
      <point x="80" y="0" type="line"/>
      <point x="159" y="0" type="line"/>
      <point x="159" y="402" type="line"/>
      <point x="389.125" y="0" type="line"/>
      <point x="501" y="0" type="line"/>
      <point x="501" y="500" type="line"/>
      <point x="422" y="500" type="line"/>
      <point x="422" y="98" type="line"/>
      <point x="189.883" y="500" type="line"/>
      <point x="80" y="500" type="line"/>
    </contour>
  </outline>
</glyph>
<glyph name="uni0278" format="2">
  <advance width="612"/>
  <unicode hex="0278"/>
  <outline>
    <contour>
      <point x="351" y="722" type="line"/>
      <point x="261" y="722" type="line"/>
      <point x="261" y="-200" type="line"/>
      <point x="351" y="-200" type="line"/>
    </contour>
    <contour>
      <point x="276.342" y="512.416" type="line"/>
      <point x="145.664" y="504.272"/>
      <point x="60" y="400.992"/>
      <point x="60" y="250" type="curve" smooth="yes"/>
      <point x="60" y="100.038"/>
      <point x="144.592" y="-3.28923"/>
      <point x="276.506" y="-11.4178" type="curve"/>
      <point x="273.198" y="54.524" type="line"/>
      <point x="204.99" y="63.5999"/>
      <point x="154" y="149.068"/>
      <point x="154" y="247" type="curve" smooth="yes"/>
      <point x="154" y="344.932"/>
      <point x="204.99" y="430.4"/>
      <point x="273.198" y="439.476" type="curve"/>
    </contour>
    <contour>
      <point x="552" y="250" type="curve" smooth="yes"/>
      <point x="552" y="400.992"/>
      <point x="466.336" y="504.272"/>
      <point x="335.658" y="512.416" type="curve"/>
      <point x="338.758" y="439.495" type="line"/>
      <point x="406.988" y="430.303"/>
      <point x="458" y="345.953"/>
      <point x="458" y="248" type="curve" smooth="yes"/>
      <point x="458" y="150.068"/>
      <point x="407.01" y="64.5999"/>
      <point x="338.802" y="55.524" type="curve"/>
      <point x="335.562" y="-9.43795" type="line"/>
      <point x="466.294" y="-1.06787"/>
      <point x="552" y="98.9713"/>
    </contour>
  </outline>
</glyph>
<glyph name="uni027D" format="2">
  <advance width="372"/>
  <unicode hex="027D"/>
  <outline>
    <contour>
      <point x="170" y="442" type="curve" smooth="yes"/>
      <point x="150" y="416.233" type="line"/>
      <point x="150" y="289.985" type="line"/>
      <point x="170" y="290" type="line"/>
      <point x="170" y="383"/>
      <point x="231" y="430"/>
      <point x="352" y="430" type="curve"/>
      <point x="352" y="510" type="line"/>
      <point x="260.015" y="510"/>
      <point x="207.572" y="490.406"/>
    </contour>
    <contour>
      <point x="170" y="0" type="line"/>
      <point x="170" y="500" type="line"/>
      <point x="80" y="500" type="line"/>
      <point x="80" y="0" type="line"/>
    </contour>
    <contour>
      <point x="285.017" y="-134.843" type="line"/>
      <point x="235.509" y="-134.843" type="line" smooth="yes"/>
      <point x="190.754" y="-134.843"/>
      <point x="170.017" y="-111.779"/>
      <point x="170.017" y="-62" type="curve" smooth="yes"/>
      <point x="170.017" y="50" type="line"/>
      <point x="80.017" y="50" type="line"/>
      <point x="80.017" y="-62" type="line" smooth="yes"/>
      <point x="80.017" y="-162.147"/>
      <point x="122.724" y="-199.862"/>
      <point x="236.124" y="-199.862" type="curve" smooth="yes"/>
      <point x="285.017" y="-199.862" type="line"/>
    </contour>
  </outline>
</glyph>
<glyph name="uni027E" format="2">
  <advance width="472"/>
  <unicode hex="027E"/>
  <outline>
    <contour>
      <point x="80" y="0" type="line"/>
      <point x="170" y="0" type="line"/>
      <point x="170" y="321" type="line" smooth="yes"/>
      <point x="170" y="406"/>
      <point x="203" y="448"/>
      <point x="269" y="448" type="curve" smooth="yes"/>
      <point x="307.514" y="448"/>
      <point x="343.662" y="436.255"/>
      <point x="359" y="419" type="curve"/>
      <point x="409.353" y="466.332" type="line"/>
      <point x="389.274" y="492.443"/>
      <point x="325.594" y="512"/>
      <point x="269.646" y="512" type="curve" smooth="yes"/>
      <point x="136.036" y="512"/>
      <point x="80" y="455.564"/>
      <point x="80" y="321" type="curve" smooth="yes"/>
    </contour>
  </outline>
  <guideline angle="223.229" x="409" y="466"/>
</glyph>
<glyph name="uni027F" format="2">
  <advance width="490"/>
  <unicode hex="027F"/>
  <outline>
    <contour>
      <point x="319.353" y="-200" type="line"/>
      <point x="409.353" y="-200" type="line"/>
      <point x="409.353" y="321" type="line" smooth="yes"/>
      <point x="409.353" y="455.564"/>
      <point x="353.317" y="512"/>
      <point x="219.707" y="512" type="curve" smooth="yes"/>
      <point x="163.759" y="512"/>
      <point x="100.08" y="492.443"/>
      <point x="80" y="466.332" type="curve"/>
      <point x="130.353" y="419" type="line"/>
      <point x="145.691" y="436.255"/>
      <point x="181.839" y="448"/>
      <point x="220.353" y="448" type="curve" smooth="yes"/>
      <point x="286.353" y="448"/>
      <point x="319.353" y="406"/>
      <point x="319.353" y="321" type="curve" smooth="yes"/>
    </contour>
  </outline>
</glyph>
<glyph name="uni0283" format="2">
  <advance width="365"/>
  <unicode hex="0283"/>
  <outline>
    <contour>
      <point x="20" y="-184" type="line"/>
      <point x="38" y="-195"/>
      <point x="64" y="-200"/>
      <point x="98.5964" y="-200" type="curve" smooth="yes"/>
      <point x="208" y="-200"/>
      <point x="259" y="-150"/>
      <point x="259" y="-34.1806" type="curve" smooth="yes"/>
      <point x="259" y="22"/>
      <point x="247" y="133"/>
      <point x="223" y="302" type="curve" smooth="yes"/>
      <point x="203" y="441"/>
      <point x="193" y="529"/>
      <point x="193" y="576.312" type="curve" smooth="yes"/>
      <point x="193" y="638"/>
      <point x="210" y="668"/>
      <point x="258" y="668" type="curve" smooth="yes"/>
      <point x="276" y="668"/>
      <point x="292" y="664"/>
      <point x="306" y="656" type="curve"/>
      <point x="345" y="722" type="line"/>
      <point x="331" y="731"/>
      <point x="309" y="735"/>
      <point x="276.369" y="735" type="curve" smooth="yes"/>
      <point x="161" y="735"/>
      <point x="109" y="685"/>
      <point x="109" y="574.126" type="curve" smooth="yes"/>
      <point x="109" y="528"/>
      <point x="118" y="443"/>
      <point x="135" y="317" type="curve" smooth="yes"/>
      <point x="162" y="117"/>
      <point x="176" y="-4"/>
      <point x="176" y="-46" type="curve" smooth="yes"/>
      <point x="176" y="-109"/>
      <point x="165" y="-135"/>
      <point x="114.337" y="-135" type="curve" smooth="yes"/>
      <point x="90" y="-135"/>
      <point x="73" y="-129"/>
      <point x="60" y="-118" type="curve"/>
    </contour>
  </outline>
</glyph>
<glyph name="uni028A" format="2">
  <advance width="593"/>
  <unicode hex="028A"/>
  <outline>
    <contour>
      <point x="562" y="435.5" type="line"/>
      <point x="506" y="435.5" type="line" smooth="yes"/>
      <point x="490.992" y="435.5"/>
      <point x="484" y="432"/>
      <point x="484" y="423" type="curve" smooth="yes"/>
      <point x="484" y="416"/>
      <point x="488.234" y="406.228"/>
      <point x="497.9" y="396.053" type="curve" smooth="yes"/>
      <point x="526.237" y="366.224"/>
      <point x="541" y="305"/>
      <point x="541" y="239.74" type="curve" smooth="yes"/>
      <point x="541" y="80"/>
      <point x="452" y="-12"/>
      <point x="292" y="-12" type="curve" smooth="yes"/>
      <point x="132" y="-12"/>
      <point x="50" y="80"/>
      <point x="50" y="238.052" type="curve" smooth="yes"/>
      <point x="50" y="308"/>
      <point x="66.0607" y="362.945"/>
      <point x="98" y="398" type="curve" smooth="yes"/>
      <point x="107.061" y="407.945"/>
      <point x="112" y="416"/>
      <point x="112" y="423" type="curve" smooth="yes"/>
      <point x="112" y="432"/>
      <point x="104" y="436"/>
      <point x="89" y="436" type="curve" smooth="yes"/>
      <point x="34" y="436" type="line"/>
      <point x="34" y="500" type="line"/>
      <point x="215" y="500" type="line"/>
      <point x="179" y="451"/>
      <point x="149" y="334"/>
      <point x="149" y="241.692" type="curve" smooth="yes"/>
      <point x="149" y="119"/>
      <point x="202" y="47"/>
      <point x="295.003" y="47" type="curve" smooth="yes"/>
      <point x="382" y="47"/>
      <point x="441" y="110"/>
      <point x="441" y="242.039" type="curve" smooth="yes"/>
      <point x="441" y="333"/>
      <point x="413" y="456"/>
      <point x="380" y="500" type="curve"/>
      <point x="562" y="500" type="line"/>
    </contour>
  </outline>
</glyph>
<glyph name="uni028B" format="2">
  <advance width="580"/>
  <unicode hex="028B"/>
  <outline>
    <contour>
      <point x="272" y="-12" type="curve" smooth="yes"/>
      <point x="141" y="-12"/>
      <point x="70" y="56"/>
      <point x="70" y="175" type="curve" smooth="yes"/>
      <point x="70" y="500" type="line"/>
      <point x="160" y="500" type="line"/>
      <point x="160" y="173" type="line" smooth="yes"/>
      <point x="160" y="107"/>
      <point x="227" y="52"/>
      <point x="297.718" y="52" type="curve" smooth="yes"/>
      <point x="370.643" y="52"/>
      <point x="443" y="110.485"/>
      <point x="443" y="193" type="curve" smooth="yes"/>
      <point x="443" y="288"/>
      <point x="415" y="376"/>
      <point x="360" y="458" type="curve"/>
      <point x="438" y="516" type="line"/>
      <point x="487" y="474"/>
      <point x="530" y="356"/>
      <point x="530" y="250" type="curve" smooth="yes"/>
      <point x="530" y="91.1118"/>
      <point x="431.427" y="-12"/>
    </contour>
  </outline>
</glyph>
<glyph name="uni028F" format="2">
  <advance width="515"/>
  <unicode hex="028F"/>
  <outline>
    <contour>
      <point x="495" y="500" type="line"/>
      <point x="407" y="500" type="line"/>
      <point x="260" y="260" type="line"/>
      <point x="264" y="260" type="line"/>
      <point x="115" y="500" type="line"/>
      <point x="20" y="500" type="line"/>
      <point x="218" y="199" type="line"/>
      <point x="218" y="0" type="line"/>
      <point x="297" y="0" type="line"/>
      <point x="297" y="199" type="line"/>
    </contour>
  </outline>
  <guideline angle="238.513" x="407" y="500"/>
  <guideline angle="121.833" x="264" y="260"/>
</glyph>
<glyph name="uni0290" format="2">
  <advance width="524"/>
  <unicode hex="0290"/>
  <outline>
    <component base="z"/>
    <contour>
      <point x="428" y="-71.1524" type="curve" smooth="yes"/>
      <point x="428" y="69.0326" type="line"/>
      <point x="370" y="69.0326" type="line"/>
      <point x="370" y="-88.1524" type="line" smooth="yes"/>
      <point x="370" y="-155.754"/>
      <point x="427.069" y="-200"/>
      <point x="506.069" y="-200" type="curve" smooth="yes"/>
      <point x="597.548" y="-200"/>
      <point x="645.008" y="-162.031"/>
      <point x="645.069" y="-88" type="curve"/>
      <point x="562.069" y="-88" type="line"/>
      <point x="562.069" y="-128"/>
      <point x="528.069" y="-147"/>
      <point x="491.069" y="-147" type="curve" smooth="yes"/>
      <point x="445.069" y="-147"/>
      <point x="428" y="-107.152"/>
    </contour>
  </outline>
</glyph>
<glyph name="uni0291" format="2">
  <advance width="595"/>
  <unicode hex="0291"/>
  <outline>
    <contour>
      <point x="60" y="0" type="line"/>
      <point x="218" y="0" type="line"/>
      <point x="218" y="69" type="line"/>
      <point x="148" y="69" type="line"/>
      <point x="152.691" y="59.4831" type="line"/>
      <point x="428" y="417.938" type="line"/>
      <point x="428" y="500" type="line"/>
      <point x="80" y="500" type="line"/>
      <point x="80" y="431" type="line"/>
      <point x="338" y="431" type="line"/>
      <point x="333.276" y="440.543" type="line"/>
      <point x="60" y="82.1327" type="line"/>
    </contour>
    <contour>
      <point x="462" y="127.399" type="curve" smooth="yes"/>
      <point x="462" y="90.471"/>
      <point x="415.867" y="66"/>
      <point x="347.74" y="66" type="curve" smooth="yes"/>
      <point x="336" y="66"/>
      <point x="326" y="66.5625"/>
      <point x="317" y="67.6875" type="curve"/>
      <point x="324" y="94.2551"/>
      <point x="367" y="168"/>
      <point x="419.119" y="168" type="curve" smooth="yes"/>
      <point x="445" y="168"/>
      <point x="462" y="149.816"/>
    </contour>
    <contour>
      <point x="130" y="0" type="line"/>
      <point x="240" y="0" type="line"/>
      <point x="218" y="-130" type="line"/>
      <point x="269" y="-130" type="line"/>
      <point x="294" y="0" type="line"/>
      <point x="301" y="-2"/>
      <point x="310" y="-3"/>
      <point x="321.897" y="-3" type="curve" smooth="yes"/>
      <point x="399" y="-3"/>
      <point x="542" y="39"/>
      <point x="542" y="136.684" type="curve" smooth="yes"/>
      <point x="542" y="195.143"/>
      <point x="493.641" y="221"/>
      <point x="435.38" y="221" type="curve" smooth="yes"/>
      <point x="356" y="221"/>
      <point x="282" y="174"/>
      <point x="254" y="69" type="curve"/>
      <point x="130" y="69" type="line"/>
    </contour>
  </outline>
</glyph>
<glyph name="uni029B" format="2">
  <advance width="605"/>
  <unicode hex="029B"/>
  <outline>
    <component base="uni0262"/>
    <contour>
      <point x="396.665" y="366.459" type="line"/>
      <point x="486.665" y="366.459" type="line"/>
      <point x="486.665" y="474.459" type="line" smooth="yes"/>
      <point x="486.665" y="533.459"/>
      <point x="501.665" y="541.459"/>
      <point x="533.884" y="541.459" type="curve" smooth="yes"/>
      <point x="556.665" y="541.459"/>
      <point x="572.665" y="537.459"/>
      <point x="587.665" y="528.459" type="curve"/>
      <point x="587.665" y="589.459" type="line"/>
      <point x="572.665" y="599.459"/>
      <point x="552.665" y="604.459"/>
      <point x="523.644" y="604.459" type="curve" smooth="yes"/>
      <point x="434.665" y="604.459"/>
      <point x="396.665" y="557.459"/>
      <point x="396.665" y="466.459" type="curve" smooth="yes"/>
    </contour>
  </outline>
</glyph>
<glyph name="uni029D" format="2">
  <advance width="414"/>
  <unicode hex="029D"/>
  <outline>
    <contour>
      <point x="299" y="500" type="line"/>
      <point x="209" y="500" type="line"/>
    </contour>
    <contour>
      <point x="390" y="43" type="line"/>
      <point x="149" y="43" type="line" smooth="yes"/>
      <point x="73.3731" y="43"/>
      <point x="31" y="-1.64201"/>
      <point x="31" y="-76.0857" type="curve" smooth="yes"/>
      <point x="31" y="-155.565"/>
      <point x="79.2992" y="-200"/>
      <point x="167.69" y="-200" type="curve" smooth="yes"/>
      <point x="255.123" y="-200"/>
      <point x="299" y="-156.123"/>
      <point x="299" y="-71.2298" type="curve" smooth="yes"/>
      <point x="299" y="11" type="line"/>
      <point x="390" y="11" type="line"/>
    </contour>
    <contour>
      <point x="209" y="-75.3413" type="line" smooth="yes"/>
      <point x="209" y="-115.944"/>
      <point x="195.204" y="-131"/>
      <point x="158" y="-131" type="curve" smooth="yes"/>
      <point x="116" y="-131"/>
      <point x="92" y="-111.317"/>
      <point x="92" y="-65.4572" type="curve" smooth="yes"/>
      <point x="92" y="-22.0901"/>
      <point x="113.462" y="11"/>
      <point x="148" y="11" type="curve" smooth="yes"/>
      <point x="209" y="11" type="line"/>
    </contour>
    <contour>
      <point x="209" y="630" type="line"/>
      <point x="315" y="630" type="line"/>
      <point x="315" y="722" type="line"/>
      <point x="209" y="722" type="line"/>
    </contour>
    <contour>
      <point x="299" y="0" type="line"/>
      <point x="299" y="500" type="line"/>
      <point x="209" y="500" type="line"/>
      <point x="209" y="0" type="line"/>
    </contour>
  </outline>
</glyph>
<glyph name="uni02A0" format="2">
  <advance width="630"/>
  <unicode hex="02A0"/>
  <outline>
    <contour>
      <point x="440.702" y="364.879" type="line"/>
      <point x="530.658" y="364.879" type="line"/>
      <point x="530.658" y="503.235" type="line" smooth="yes"/>
      <point x="530.658" y="526.904"/>
      <point x="546.967" y="541.459"/>
      <point x="573.907" y="541.459" type="curve" smooth="yes"/>
      <point x="596.688" y="541.459"/>
      <point x="618.665" y="537.459"/>
      <point x="633.665" y="528.459" type="curve"/>
      <point x="633.665" y="589.459" type="line"/>
      <point x="618.665" y="599.459"/>
      <point x="589.487" y="604.459"/>
      <point x="560.465" y="604.459" type="curve" smooth="yes"/>
      <point x="480.09" y="604.459"/>
      <point x="440.702" y="569.14"/>
      <point x="440.702" y="494.982" type="curve" smooth="yes"/>
    </contour>
    <contour>
      <point x="441" y="364.877" type="line"/>
      <point x="441" y="-200" type="line"/>
      <point x="531" y="-200" type="line"/>
      <point x="531" y="364.877" type="line"/>
    </contour>
    <contour>
      <point x="450.441" y="69.8785" type="curve"/>
      <point x="450.009" y="414.509" type="line"/>
      <point x="416.552" y="467.981"/>
      <point x="372.151" y="513"/>
      <point x="287" y="513" type="curve" smooth="yes"/>
      <point x="165" y="513"/>
      <point x="60" y="421"/>
      <point x="60" y="253" type="curve" smooth="yes"/>
      <point x="60" y="103"/>
      <point x="143" y="-13"/>
      <point x="291" y="-13" type="curve" smooth="yes"/>
      <point x="360.682" y="-13"/>
      <point x="435.758" y="42.2992"/>
    </contour>
    <contour>
      <point x="150" y="248" type="curve" smooth="yes"/>
      <point x="150" y="346"/>
      <point x="185" y="449"/>
      <point x="294" y="449" type="curve" smooth="yes"/>
      <point x="405" y="449"/>
      <point x="441" y="344"/>
      <point x="441" y="244" type="curve" smooth="yes"/>
      <point x="441" y="129"/>
      <point x="393" y="55"/>
      <point x="304" y="55" type="curve" smooth="yes"/>
      <point x="202" y="55"/>
      <point x="150" y="152"/>
    </contour>
  </outline>
</glyph>
<glyph name="hfishhookturned" format="2">
  <advance width="627"/>
  <unicode hex="02AE"/>
  <outline>
    <contour>
      <point x="424" y="0" type="line"/>
      <point x="424" y="-200" type="line"/>
      <point x="514" y="-200" type="line"/>
      <point x="514" y="0" type="line"/>
    </contour>
    <contour>
      <point x="170" y="380" type="line"/>
      <point x="170" y="545" type="line" smooth="yes"/>
      <point x="170" y="653.789"/>
      <point x="88.3473" y="732"/>
      <point x="-25" y="732" type="curve" smooth="yes"/>
      <point x="-97" y="732"/>
      <point x="-149" y="716"/>
      <point x="-181" y="683" type="curve"/>
      <point x="-127" y="631" type="line"/>
      <point x="-102" y="652"/>
      <point x="-69" y="662"/>
      <point x="-28" y="662" type="curve" smooth="yes"/>
      <point x="60.3488" y="662"/>
      <point x="80" y="591.108"/>
      <point x="80" y="505.724" type="curve" smooth="yes"/>
      <point x="80" y="380" type="line"/>
    </contour>
    <contour>
      <point x="80" y="174" type="line" smooth="yes"/>
      <point x="80" y="54"/>
      <point x="141" y="-12"/>
      <point x="261" y="-12" type="curve" smooth="yes"/>
      <point x="336.107" y="-12"/>
      <point x="388.468" y="14.02"/>
      <point x="424" y="69" type="curve" smooth="yes"/>
      <point x="444" y="99.9467" type="line"/>
      <point x="444" y="181.462" type="line"/>
      <point x="424" y="181" type="line"/>
      <point x="424" y="109"/>
      <point x="367" y="53"/>
      <point x="287.401" y="53" type="curve" smooth="yes"/>
      <point x="216.691" y="53"/>
      <point x="170" y="97.19"/>
      <point x="170" y="172" type="curve" smooth="yes"/>
      <point x="170" y="500" type="line"/>
      <point x="80" y="500" type="line"/>
    </contour>
    <contour>
      <point x="514" y="0" type="line"/>
      <point x="514" y="500" type="line"/>
      <point x="424" y="500" type="line"/>
      <point x="424" y="0" type="line"/>
    </contour>
  </outline>
</glyph>
<glyph name="uni02AF" format="2">
  <advance width="1"/>
  <unicode hex="02AF"/>
  <outline>
    <contour>
      <point x="424" y="134" type="line"/>
      <point x="424" y="-60" type="line" smooth="yes"/>
      <point x="424" y="-144"/>
      <point x="483" y="-199"/>
      <point x="570" y="-199" type="curve" smooth="yes"/>
      <point x="627" y="-199"/>
      <point x="673" y="-180"/>
      <point x="708" y="-142" type="curve"/>
      <point x="651" y="-85" type="line"/>
      <point x="630" y="-114"/>
      <point x="605" y="-129"/>
      <point x="576" y="-129" type="curve" smooth="yes"/>
      <point x="542" y="-129"/>
      <point x="514" y="-103"/>
      <point x="514" y="-61" type="curve" smooth="yes"/>
      <point x="514" y="134" type="line"/>
    </contour>
    <contour>
      <point x="170" y="545" type="line" smooth="yes"/>
      <point x="170" y="653.789"/>
      <point x="88.3473" y="732"/>
      <point x="-25" y="732" type="curve" smooth="yes"/>
      <point x="-97" y="732"/>
      <point x="-149" y="716"/>
      <point x="-181" y="683" type="curve"/>
      <point x="-127" y="631" type="line"/>
      <point x="-102" y="652"/>
      <point x="-69" y="662"/>
      <point x="-28" y="662" type="curve" smooth="yes"/>
      <point x="60.3488" y="662"/>
      <point x="80" y="591.108"/>
      <point x="80" y="505.724" type="curve" smooth="yes"/>
      <point x="80" y="380" type="line"/>
      <point x="170" y="380" type="line"/>
    </contour>
    <contour>
      <point x="80" y="174" type="line" smooth="yes"/>
      <point x="80" y="54"/>
      <point x="141" y="-12"/>
      <point x="261" y="-12" type="curve" smooth="yes"/>
      <point x="336.107" y="-12"/>
      <point x="388.468" y="14.02"/>
      <point x="424" y="69" type="curve" smooth="yes"/>
      <point x="444" y="99.9467" type="line"/>
      <point x="444" y="181.462" type="line"/>
      <point x="424" y="181" type="line"/>
      <point x="424" y="109"/>
      <point x="367" y="53"/>
      <point x="287.401" y="53" type="curve" smooth="yes"/>
      <point x="216.691" y="53"/>
      <point x="170" y="97.19"/>
      <point x="170" y="172" type="curve" smooth="yes"/>
      <point x="170" y="500" type="line"/>
      <point x="80" y="500" type="line"/>
    </contour>
    <contour>
      <point x="514" y="500" type="line"/>
      <point x="424" y="500" type="line"/>
      <point x="424" y="0" type="line"/>
      <point x="514" y="0" type="line"/>
    </contour>
  </outline>
</glyph>
<glyph name="uni02B0" format="2">
  <advance width="462"/>
  <unicode hex="02B0"/>
  <outline>
    <contour>
      <point x="80" y="350" type="line"/>
      <point x="143" y="350" type="line"/>
      <point x="143" y="567.005" type="line" smooth="yes"/>
      <point x="143" y="629.882"/>
      <point x="190" y="664"/>
      <point x="247" y="664" type="curve" smooth="yes"/>
      <point x="288" y="664"/>
      <point x="319" y="626"/>
      <point x="319" y="570" type="curve" smooth="yes"/>
      <point x="319" y="350" type="line"/>
      <point x="382" y="350" type="line"/>
      <point x="382" y="567" type="line" smooth="yes"/>
      <point x="382" y="665"/>
      <point x="346" y="709"/>
      <point x="253" y="709" type="curve" smooth="yes"/>
      <point x="205.228" y="709"/>
      <point x="171.327" y="688.523"/>
      <point x="143" y="656" type="curve"/>
      <point x="143" y="855" type="line"/>
      <point x="80" y="855" type="line"/>
    </contour>
  </outline>
</glyph>
<glyph name="caron" format="2">
  <advance width="289"/>
  <unicode hex="02C7"/>
  <anchor x="145" y="600" name="_top.mkmk"/>
  <anchor x="145" y="600" name="_top"/>
  <outline>
    <contour>
      <point x="290" y="770" type="line"/>
      <point x="230" y="770" type="line"/>
      <point x="145" y="660" type="line"/>
      <point x="60" y="770" type="line"/>
      <point x="0" y="770" type="line"/>
      <point x="90" y="600" type="line"/>
      <point x="200" y="600" type="line"/>
    </contour>
  </outline>
  <guideline angle="90" x="145" y="0"/>
</glyph>
<glyph name="dotaccent" format="2">
  <advance width="90"/>
  <unicode hex="02D9"/>
  <anchor x="45" y="770" name="top.mkmk"/>
  <anchor x="45" y="600" name="_top"/>
  <outline>
    <contour>
      <point x="90" y="600" type="line"/>
      <point x="90" y="700" type="line"/>
      <point x="0" y="700" type="line"/>
      <point x="0" y="600" type="line"/>
    </contour>
  </outline>
  <guideline angle="90" x="45" y="0"/>
</glyph>
<glyph name="ogonek" format="2">
  <advance width="199"/>
  <unicode hex="02DB"/>
  <outline>
    <contour>
      <point x="90" y="-220" type="curve" smooth="yes"/>
      <point x="33" y="-220"/>
      <point x="0" y="-190"/>
      <point x="0" y="-143" type="curve" smooth="yes"/>
      <point x="0" y="-92"/>
      <point x="39" y="-41"/>
      <point x="61" y="-19" type="curve" smooth="yes"/>
      <point x="80" y="0" type="line"/>
      <point x="120" y="0" type="line"/>
      <point x="102" y="-18"/>
      <point x="70" y="-66"/>
      <point x="70" y="-109" type="curve" smooth="yes"/>
      <point x="70" y="-139"/>
      <point x="86" y="-150"/>
      <point x="119" y="-150" type="curve"/>
      <point x="159" y="-146" type="line"/>
      <point x="159" y="-216" type="line"/>
      <point x="138" y="-219"/>
      <point x="100" y="-220"/>
    </contour>
  </outline>
</glyph>
<glyph name="tilde" format="2">
  <advance width="292"/>
  <unicode hex="02DC"/>
  <anchor x="146" y="600" name="_top"/>
  <outline>
    <contour>
      <point x="0" y="618" type="line"/>
      <point x="6" y="680"/>
      <point x="46" y="716"/>
      <point x="88.0529" y="716" type="curve" smooth="yes"/>
      <point x="103.595" y="716"/>
      <point x="125.392" y="711.083"/>
      <point x="146.05" y="699.739" type="curve"/>
      <point x="146.273" y="639.54" type="line"/>
      <point x="128.228" y="650.755"/>
      <point x="108.484" y="659"/>
      <point x="92.5757" y="659" type="curve" smooth="yes"/>
      <point x="73" y="659"/>
      <point x="58" y="645"/>
      <point x="55" y="618" type="curve"/>
    </contour>
    <contour>
      <point x="292.273" y="722" type="line"/>
      <point x="286.273" y="660"/>
      <point x="246.273" y="624"/>
      <point x="204.22" y="624" type="curve" smooth="yes"/>
      <point x="188.679" y="624"/>
      <point x="166.881" y="628.917"/>
      <point x="146.223" y="640.261" type="curve"/>
      <point x="146" y="700.46" type="line"/>
      <point x="164.045" y="689.245"/>
      <point x="183.79" y="681"/>
      <point x="199.697" y="681" type="curve" smooth="yes"/>
      <point x="219.273" y="681"/>
      <point x="234.273" y="695"/>
      <point x="237.273" y="722" type="curve"/>
    </contour>
  </outline>
  <guideline angle="90" x="146" y="0"/>
  <guideline angle="0" x="0" y="680"/>
</glyph>
<glyph name="hungarumlaut" format="2">
  <advance width="319"/>
  <unicode hex="02DD"/>
  <outline>
    <contour>
      <point x="169.5" y="771" type="line"/>
      <point x="59.5" y="600" type="line"/>
      <point x="9.5" y="600" type="line"/>
      <point x="79.5" y="771" type="line"/>
    </contour>
    <contour>
      <point x="309.5" y="771" type="line"/>
      <point x="199.5" y="600" type="line"/>
      <point x="149.5" y="600" type="line"/>
      <point x="219.5" y="771" type="line"/>
    </contour>
  </outline>
</glyph>
<glyph name="uni02E0" format="2">
  <advance width="380"/>
  <unicode hex="02E0"/>
  <outline>
    <contour>
      <point x="166" y="271" type="curve" smooth="yes"/>
      <point x="166" y="288"/>
      <point x="174" y="306"/>
      <point x="190" y="323" type="curve"/>
      <point x="207" y="306"/>
      <point x="215" y="290"/>
      <point x="215" y="272.5" type="curve" smooth="yes"/>
      <point x="215" y="255"/>
      <point x="207" y="247"/>
      <point x="190" y="247" type="curve" smooth="yes"/>
      <point x="172.983" y="247"/>
      <point x="166" y="254.192"/>
    </contour>
    <contour>
      <point x="109" y="264.691" type="curve" smooth="yes"/>
      <point x="109" y="226"/>
      <point x="147" y="198"/>
      <point x="190" y="198" type="curve" smooth="yes"/>
      <point x="233" y="198"/>
      <point x="271" y="226"/>
      <point x="271" y="264.691" type="curve" smooth="yes"/>
      <point x="271" y="289"/>
      <point x="256" y="326"/>
      <point x="225" y="369" type="curve"/>
      <point x="365" y="688" type="line"/>
      <point x="291" y="688" type="line"/>
      <point x="188" y="435" type="line"/>
      <point x="192" y="435" type="line"/>
      <point x="89" y="688" type="line"/>
      <point x="15" y="688" type="line"/>
      <point x="155" y="369" type="line"/>
      <point x="124" y="326"/>
      <point x="109" y="289"/>
    </contour>
  </outline>
</glyph>
<glyph name="uni02E5" format="2">
  <advance width="357"/>
  <unicode hex="02E5"/>
  <outline>
    <contour>
      <point x="287" y="0" type="line"/>
      <point x="223" y="0" type="line"/>
      <point x="223" y="658" type="line"/>
      <point x="21" y="658" type="line"/>
      <point x="21" y="722" type="line"/>
      <point x="287" y="722" type="line"/>
    </contour>
  </outline>
</glyph>
<glyph name="uni02E6" format="2">
  <advance width="357"/>
  <unicode hex="02E6"/>
  <outline>
    <contour>
      <point x="287" y="0" type="line"/>
      <point x="223" y="0" type="line"/>
      <point x="223" y="497" type="line"/>
      <point x="20" y="497" type="line"/>
      <point x="20" y="561" type="line"/>
      <point x="223" y="561" type="line"/>
      <point x="223" y="722" type="line"/>
      <point x="287" y="722" type="line"/>
    </contour>
  </outline>
</glyph>
<glyph name="gravecomb" format="2">
  <advance width="1"/>
  <unicode hex="0300"/>
  <anchor x="-180" y="600" name="_top.mkmk"/>
  <anchor x="-180" y="600" name="_top"/>
  <outline>
    <contour>
      <point x="-146" y="600" type="line"/>
      <point x="-246" y="771" type="line"/>
      <point x="-347" y="771" type="line"/>
      <point x="-207" y="600" type="line"/>
    </contour>
  </outline>
</glyph>
<glyph name="acutecomb" format="2">
  <advance width="1"/>
  <unicode hex="0301"/>
  <anchor x="-330" y="600" name="_top.mkmk"/>
  <anchor x="-330" y="600" name="_top"/>
  <outline>
    <contour>
      <point x="-156" y="771" type="line"/>
      <point x="-257" y="771" type="line"/>
      <point x="-357" y="600" type="line"/>
      <point x="-296" y="600" type="line"/>
    </contour>
  </outline>
</glyph>
<glyph name="uni0302" format="2">
  <advance width="1"/>
  <unicode hex="0302"/>
  <anchor x="-296" y="790" name="top.mkmk"/>
  <anchor x="-300" y="600" name="_top"/>
  <outline>
    <contour>
      <point x="-441" y="600" type="line"/>
      <point x="-381" y="600" type="line"/>
      <point x="-296" y="710" type="line"/>
      <point x="-211" y="600" type="line"/>
      <point x="-151" y="600" type="line"/>
      <point x="-241" y="770" type="line"/>
      <point x="-351" y="770" type="line"/>
    </contour>
  </outline>
  <guideline angle="90" x="-296" y="0"/>
</glyph>
<glyph name="uni0306" format="2">
  <advance width="1"/>
  <unicode hex="0306"/>
  <anchor x="-300" y="600" name="_top"/>
  <anchor x="-298" y="732" name="top.mkmk"/>
  <outline>
    <contour>
      <point x="-439" y="717" type="curve"/>
      <point x="-387" y="717" type="line"/>
      <point x="-381" y="686"/>
      <point x="-333" y="664"/>
      <point x="-297" y="664" type="curve" smooth="yes"/>
      <point x="-261" y="664"/>
      <point x="-213" y="686"/>
      <point x="-207" y="717" type="curve"/>
      <point x="-157" y="717" type="line"/>
      <point x="-168" y="651"/>
      <point x="-229" y="600"/>
      <point x="-298" y="600" type="curve" smooth="yes"/>
      <point x="-369" y="600"/>
      <point x="-431" y="651"/>
    </contour>
  </outline>
</glyph>
<glyph name="uni0307" format="2">
  <advance width="1"/>
  <unicode hex="0307"/>
  <anchor x="-292" y="775" name="top.mkmk"/>
  <anchor x="-292" y="600" name="_top"/>
  <outline>
    <contour>
      <point x="-337" y="600" type="line"/>
      <point x="-247" y="600" type="line"/>
      <point x="-247" y="700" type="line"/>
      <point x="-337" y="700" type="line"/>
    </contour>
  </outline>
  <guideline angle="90" x="-292" y="0"/>
</glyph>
<glyph name="uni0308" format="2">
  <advance width="1"/>
  <unicode hex="0308"/>
  <anchor x="-292" y="775" name="top.mkmk"/>
  <anchor x="-292" y="600" name="_top"/>
  <anchor x="-292" y="600" name="_top.mkmk"/>
  <outline>
    <contour>
      <point x="-438" y="600" type="line"/>
      <point x="-348" y="600" type="line"/>
      <point x="-348" y="700" type="line"/>
      <point x="-438" y="700" type="line"/>
    </contour>
    <contour>
      <point x="-237" y="600" type="line"/>
      <point x="-147" y="600" type="line"/>
      <point x="-147" y="700" type="line"/>
      <point x="-237" y="700" type="line"/>
    </contour>
  </outline>
  <guideline angle="90" x="-437" y="0"/>
  <guideline angle="90" x="-147" y="0"/>
  <guideline angle="90" x="-292" y="0"/>
</glyph>
<glyph name="uni030A" format="2">
  <advance width="1"/>
  <unicode hex="030A"/>
  <anchor x="-290" y="600" name="_top"/>
  <anchor x="-300" y="850" name="top"/>
  <anchor x="-300" y="895" name="top.mkmk"/>
  <outline>
    <contour>
      <point x="-297" y="820" type="curve" smooth="yes"/>
      <point x="-358" y="820"/>
      <point x="-407" y="771"/>
      <point x="-407" y="710" type="curve" smooth="yes"/>
      <point x="-407" y="649"/>
      <point x="-358" y="600"/>
      <point x="-297" y="600" type="curve" smooth="yes"/>
      <point x="-237" y="600"/>
      <point x="-187" y="650"/>
      <point x="-187" y="710" type="curve" smooth="yes"/>
      <point x="-187" y="771"/>
      <point x="-236" y="820"/>
    </contour>
    <contour>
      <point x="-297" y="640" type="curve" smooth="yes"/>
      <point x="-336" y="640"/>
      <point x="-368" y="671"/>
      <point x="-368" y="710" type="curve" smooth="yes"/>
      <point x="-368" y="749"/>
      <point x="-336" y="780"/>
      <point x="-297" y="780" type="curve" smooth="yes"/>
      <point x="-258" y="780"/>
      <point x="-227" y="749"/>
      <point x="-227" y="710" type="curve" smooth="yes"/>
      <point x="-227" y="671"/>
      <point x="-258" y="640"/>
    </contour>
  </outline>
</glyph>
<glyph name="uni030C" format="2">
  <advance width="1"/>
  <unicode hex="030C"/>
  <anchor x="-290" y="600" name="_top.mkmk"/>
  <anchor x="-296" y="600" name="_top"/>
  <outline>
    <contour>
      <point x="-351" y="600" type="line"/>
      <point x="-441" y="770" type="line"/>
      <point x="-381" y="770" type="line"/>
      <point x="-296" y="660" type="line"/>
      <point x="-211" y="770" type="line"/>
      <point x="-151" y="770" type="line"/>
      <point x="-241" y="600" type="line"/>
    </contour>
  </outline>
  <guideline angle="90" x="-296" y="0"/>
</glyph>
<glyph name="uni030F" format="2">
  <advance width="1"/>
  <unicode hex="030F"/>
  <anchor x="-270" y="600" name="_top"/>
  <outline>
    <contour>
      <point x="-319.5" y="771" type="line"/>
      <point x="-209.5" y="600" type="line"/>
      <point x="-159.5" y="600" type="line"/>
      <point x="-229.5" y="771" type="line"/>
    </contour>
    <contour>
      <point x="-459.5" y="771" type="line"/>
      <point x="-349.5" y="600" type="line"/>
      <point x="-299.5" y="600" type="line"/>
      <point x="-369.5" y="771" type="line"/>
    </contour>
  </outline>
</glyph>
<glyph name="uni0325" format="2">
  <advance width="1"/>
  <unicode hex="0325"/>
  <outline>
    <contour>
      <point x="-297.228" y="-99" type="curve" smooth="yes"/>
      <point x="-358.228" y="-99"/>
      <point x="-407.228" y="-148"/>
      <point x="-407.228" y="-209" type="curve" smooth="yes"/>
      <point x="-407.228" y="-270"/>
      <point x="-358.228" y="-319"/>
      <point x="-297.228" y="-319" type="curve" smooth="yes"/>
      <point x="-237.228" y="-319"/>
      <point x="-187.228" y="-269"/>
      <point x="-187.228" y="-209" type="curve" smooth="yes"/>
      <point x="-187.228" y="-148"/>
      <point x="-236.228" y="-99"/>
    </contour>
    <contour>
      <point x="-297.228" y="-279" type="curve" smooth="yes"/>
      <point x="-336.228" y="-279"/>
      <point x="-368.228" y="-248"/>
      <point x="-368.228" y="-209" type="curve" smooth="yes"/>
      <point x="-368.228" y="-170"/>
      <point x="-336.228" y="-139"/>
      <point x="-297.228" y="-139" type="curve" smooth="yes"/>
      <point x="-258.228" y="-139"/>
      <point x="-227.228" y="-170"/>
      <point x="-227.228" y="-209" type="curve" smooth="yes"/>
      <point x="-227.228" y="-248"/>
      <point x="-258.228" y="-279"/>
    </contour>
  </outline>
</glyph>
<glyph name="uni0326" format="2">
  <unicode hex="0326"/>
  <outline>
    <contour>
      <point x="-207" y="-57" type="line"/>
      <point x="-317" y="-307" type="line"/>
      <point x="-387" y="-307" type="line"/>
      <point x="-327" y="-57" type="line"/>
    </contour>
  </outline>
</glyph>
<glyph name="uni0394" format="2">
  <advance width="719"/>
  <unicode hex="0394"/>
  <outline>
    <contour>
      <point x="106" y="90" type="line"/>
      <point x="113.117" y="79.0385" type="line"/>
      <point x="359" y="631" type="line"/>
      <point x="345" y="631" type="line"/>
      <point x="593.934" y="79.0611" type="line"/>
      <point x="601" y="90" type="line"/>
    </contour>
    <contour>
      <point x="19" y="0" type="line"/>
      <point x="688" y="0" type="line"/>
      <point x="687.859" y="89.6544" type="line"/>
      <point x="403" y="722" type="line"/>
      <point x="301" y="722" type="line"/>
      <point x="19.3199" y="89.8443" type="line"/>
    </contour>
  </outline>
  <guideline angle="245.98" x="359" y="631"/>
  <guideline angle="65.9535" x="19" y="90"/>
  <guideline angle="114.28" x="594" y="79"/>
  <guideline angle="294.273" x="403" y="722"/>
</glyph>
<glyph name="Sigma" format="2">
  <advance width="626"/>
  <unicode hex="03A3"/>
  <outline>
    <contour>
      <point x="50" y="0" type="line"/>
      <point x="50" y="87" type="line"/>
      <point x="272.179" y="384.616" type="line"/>
      <point x="272.85" y="365.924" type="line"/>
      <point x="60" y="612" type="line"/>
      <point x="60" y="722" type="line"/>
      <point x="556" y="722" type="line"/>
      <point x="556" y="635" type="line"/>
      <point x="158" y="635" type="line"/>
      <point x="162.353" y="644.248" type="line"/>
      <point x="385" y="375" type="line"/>
      <point x="166.924" y="76.3082" type="line"/>
      <point x="162" y="86" type="line"/>
      <point x="576" y="86" type="line"/>
      <point x="576" y="0" type="line"/>
    </contour>
  </outline>
</glyph>
<glyph name="Phi" format="2">
  <advance width="735"/>
  <unicode hex="03A6"/>
  <outline>
    <contour>
      <point x="397.2" y="64" type="line"/>
      <point x="426" y="64" type="line" smooth="yes"/>
      <point x="568" y="64"/>
      <point x="685" y="130"/>
      <point x="685" y="373" type="curve" smooth="yes"/>
      <point x="685" y="583"/>
      <point x="569" y="652"/>
      <point x="426" y="652" type="curve" smooth="yes"/>
      <point x="397.2" y="652" type="line"/>
      <point x="397.2" y="562" type="line"/>
      <point x="429" y="562" type="line" smooth="yes"/>
      <point x="525" y="562"/>
      <point x="588" y="518"/>
      <point x="588" y="373" type="curve" smooth="yes"/>
      <point x="588" y="204"/>
      <point x="526" y="154"/>
      <point x="429" y="154" type="curve" smooth="yes"/>
      <point x="397.2" y="154" type="line"/>
    </contour>
    <contour>
      <point x="312" y="-1" type="line"/>
      <point x="413" y="-1" type="line"/>
      <point x="413" y="721" type="line"/>
      <point x="312" y="721" type="line"/>
    </contour>
    <contour>
      <point x="147" y="372" type="curve" smooth="yes"/>
      <point x="147" y="517"/>
      <point x="206" y="562"/>
      <point x="296" y="562" type="curve" smooth="yes"/>
      <point x="327.8" y="562" type="line"/>
      <point x="327.8" y="652" type="line"/>
      <point x="299" y="652" type="line" smooth="yes"/>
      <point x="162" y="652"/>
      <point x="50" y="583"/>
      <point x="50" y="373" type="curve" smooth="yes"/>
      <point x="50" y="130"/>
      <point x="162" y="64"/>
      <point x="299" y="64" type="curve" smooth="yes"/>
      <point x="327.8" y="64" type="line"/>
      <point x="327.8" y="154" type="line"/>
      <point x="296" y="154" type="line" smooth="yes"/>
      <point x="206" y="154"/>
      <point x="147" y="203"/>
    </contour>
  </outline>
</glyph>
<glyph name="Psi" format="2">
  <advance width="697"/>
  <unicode hex="03A8"/>
  <outline>
    <contour>
      <point x="401" y="0" type="line"/>
      <point x="401" y="297" type="line"/>
      <point x="577" y="314"/>
      <point x="637" y="424"/>
      <point x="637" y="631" type="curve" smooth="yes"/>
      <point x="637" y="722" type="line"/>
      <point x="536" y="722" type="line"/>
      <point x="536" y="631" type="line" smooth="yes"/>
      <point x="536" y="491"/>
      <point x="500" y="406"/>
      <point x="401" y="387" type="curve"/>
      <point x="401" y="722" type="line"/>
      <point x="300" y="722" type="line"/>
      <point x="300" y="387" type="line"/>
      <point x="191" y="406"/>
      <point x="161" y="495"/>
      <point x="161" y="631" type="curve" smooth="yes"/>
      <point x="161" y="722" type="line"/>
      <point x="60" y="722" type="line"/>
      <point x="60" y="631" type="line" smooth="yes"/>
      <point x="60" y="423"/>
      <point x="121" y="313"/>
      <point x="300" y="297" type="curve"/>
      <point x="300" y="0" type="line"/>
    </contour>
  </outline>
</glyph>
<glyph name="Omega" format="2">
  <advance width="801"/>
  <unicode hex="03A9"/>
  <outline>
    <contour>
      <point x="36" y="0" type="line"/>
      <point x="363.257" y="0" type="line"/>
      <point x="346.333" y="159" type="line"/>
      <point x="247.776" y="201"/>
      <point x="159" y="275"/>
      <point x="159" y="420" type="curve" smooth="yes"/>
      <point x="159" y="545"/>
      <point x="245.696" y="634"/>
      <point x="400.998" y="634" type="curve" smooth="yes"/>
      <point x="553.313" y="634"/>
      <point x="642" y="542"/>
      <point x="642" y="420" type="curve" smooth="yes"/>
      <point x="642" y="274"/>
      <point x="554.219" y="201"/>
      <point x="455.662" y="159" type="curve"/>
      <point x="437.743" y="0" type="line"/>
      <point x="767" y="0" type="line"/>
      <point x="767" y="95" type="line"/>
      <point x="541.367" y="95" type="line"/>
      <point x="547.34" y="135" type="line"/>
      <point x="676.883" y="180"/>
      <point x="745" y="279"/>
      <point x="745" y="420" type="curve" smooth="yes"/>
      <point x="745" y="592"/>
      <point x="617.027" y="718"/>
      <point x="401.993" y="718" type="curve" smooth="yes"/>
      <point x="187.955" y="718"/>
      <point x="56" y="578"/>
      <point x="56" y="420" type="curve" smooth="yes"/>
      <point x="56" y="275"/>
      <point x="121" y="180"/>
      <point x="252.664" y="135" type="curve"/>
      <point x="257.642" y="95" type="line"/>
      <point x="36" y="95" type="line"/>
    </contour>
  </outline>
</glyph>
<glyph name="beta" format="2">
  <advance width="604"/>
  <unicode hex="03B2"/>
  <outline>
    <contour>
      <point x="297.503" y="660" type="curve" smooth="yes"/>
      <point x="364.25" y="660"/>
      <point x="416" y="608.304"/>
      <point x="416" y="548" type="curve" smooth="yes"/>
      <point x="416" y="471.033"/>
      <point x="379.339" y="413"/>
      <point x="325.108" y="413" type="curve" smooth="yes"/>
      <point x="246.072" y="413" type="line"/>
      <point x="246.072" y="339" type="line"/>
      <point x="338.94" y="339" type="line" smooth="yes"/>
      <point x="401.815" y="339"/>
      <point x="452" y="271.266"/>
      <point x="452" y="195.5" type="curve" smooth="yes"/>
      <point x="452" y="115.321"/>
      <point x="394.428" y="56"/>
      <point x="316.278" y="56" type="curve" smooth="yes"/>
      <point x="232.687" y="56"/>
      <point x="170" y="113.004"/>
      <point x="170" y="189.485" type="curve" smooth="yes"/>
      <point x="170" y="508" type="line" smooth="yes"/>
      <point x="170" y="594.47"/>
      <point x="217.456" y="660"/>
    </contour>
    <contour>
      <point x="289.884" y="734" type="curve" smooth="yes"/>
      <point x="166.742" y="734"/>
      <point x="80" y="653.884"/>
      <point x="80" y="542" type="curve" smooth="yes"/>
      <point x="80" y="-193" type="line"/>
      <point x="170" y="-193" type="line"/>
      <point x="170" y="61.9627" type="line"/>
      <point x="216.245" y="11.7713"/>
      <point x="271.497" y="-12"/>
      <point x="325.108" y="-12" type="curve" smooth="yes"/>
      <point x="459.902" y="-12"/>
      <point x="544" y="72.6347"/>
      <point x="544" y="193.868" type="curve" smooth="yes"/>
      <point x="544" y="288.841"/>
      <point x="492.389" y="360.934"/>
      <point x="393.277" y="386.644" type="curve"/>
      <point x="465.616" y="412.373"/>
      <point x="506" y="476.033"/>
      <point x="506" y="544.766" type="curve" smooth="yes"/>
      <point x="506" y="648.316"/>
      <point x="414.339" y="734"/>
    </contour>
  </outline>
</glyph>
<glyph name="epsilon" format="2">
  <advance width="551"/>
  <unicode hex="03B5"/>
  <anchor x="260" y="600" name="tonos.top"/>
  <outline>
    <contour>
      <point x="54" y="127" type="curve" smooth="yes"/>
      <point x="54" y="42"/>
      <point x="135" y="-12"/>
      <point x="265" y="-12" type="curve" smooth="yes"/>
      <point x="407" y="-12"/>
      <point x="496" y="53"/>
      <point x="496" y="154" type="curve"/>
      <point x="410" y="154" type="line"/>
      <point x="410" y="94"/>
      <point x="353" y="53"/>
      <point x="272" y="53" type="curve" smooth="yes"/>
      <point x="196" y="53"/>
      <point x="147" y="89"/>
      <point x="147" y="142" type="curve" smooth="yes"/>
      <point x="147" y="186"/>
      <point x="181" y="218"/>
      <point x="228" y="221" type="curve" smooth="yes"/>
      <point x="328" y="227" type="line"/>
      <point x="328" y="296" type="line"/>
      <point x="223" y="302" type="line" smooth="yes"/>
      <point x="188" y="304"/>
      <point x="162" y="334"/>
      <point x="162" y="372" type="curve" smooth="yes"/>
      <point x="162" y="418"/>
      <point x="204" y="447"/>
      <point x="274" y="447" type="curve" smooth="yes"/>
      <point x="349" y="447"/>
      <point x="390" y="415"/>
      <point x="390" y="354" type="curve"/>
      <point x="473" y="354" type="line"/>
      <point x="473" y="450"/>
      <point x="393" y="512"/>
      <point x="262" y="512" type="curve" smooth="yes"/>
      <point x="145" y="512"/>
      <point x="76" y="463"/>
      <point x="76" y="382" type="curve" smooth="yes"/>
      <point x="76" y="319"/>
      <point x="117" y="273"/>
      <point x="175" y="261" type="curve"/>
      <point x="177" y="269" type="line"/>
      <point x="101" y="244"/>
      <point x="54" y="192"/>
    </contour>
  </outline>
</glyph>
<glyph name="kappa" format="2">
  <advance width="546"/>
  <unicode hex="03BA"/>
  <outline>
    <contour>
      <point x="170" y="0" type="line"/>
      <point x="170" y="500" type="line"/>
      <point x="80" y="500" type="line"/>
      <point x="80" y="0" type="line"/>
    </contour>
    <contour>
      <point x="235.602" y="271.429" type="line"/>
      <point x="419" y="0" type="line"/>
      <point x="526" y="0" type="line"/>
      <point x="301.572" y="330.408" type="line"/>
    </contour>
    <contour>
      <point x="510" y="500" type="line"/>
      <point x="390" y="500" type="line"/>
      <point x="158.926" y="288.882" type="line"/>
      <point x="158.806" y="183.016" type="line"/>
    </contour>
  </outline>
  <guideline angle="222.409" x="390" y="500"/>
  <guideline angle="42.0863" x="159" y="183"/>
  <guideline angle="304.03" x="236" y="271"/>
  <guideline angle="124.168" x="526" y="-0"/>
</glyph>
<glyph name="lambda" format="2">
  <advance width="551"/>
  <unicode hex="03BB"/>
  <outline>
    <contour>
      <point x="175" y="627" type="curve" smooth="yes"/>
      <point x="377" y="78" type="line" smooth="yes"/>
      <point x="398.805" y="18.7366"/>
      <point x="422.811" y="-3"/>
      <point x="477.306" y="-3" type="curve" smooth="yes"/>
      <point x="490.626" y="-3"/>
      <point x="509.635" y="-1.673"/>
      <point x="528" y="1" type="curve"/>
      <point x="528" y="70" type="line"/>
      <point x="485.512" y="69.6095"/>
      <point x="472.954" y="73.8287"/>
      <point x="466" y="93" type="curve" smooth="yes"/>
      <point x="281" y="603" type="line" smooth="yes"/>
      <point x="257.947" y="666.552"/>
      <point x="229.972" y="731.844"/>
      <point x="149.108" y="732.022" type="curve" smooth="yes"/>
      <point x="134.637" y="732.053"/>
      <point x="110.372" y="730"/>
      <point x="86" y="726" type="curve"/>
      <point x="86" y="652" type="line"/>
      <point x="105.89" y="655"/>
      <point x="117.11" y="656.059"/>
      <point x="137" y="656" type="curve" smooth="yes"/>
      <point x="156.939" y="655.941"/>
      <point x="169.328" y="642.417"/>
    </contour>
    <contour>
      <point x="241.581" y="555.08" type="line"/>
      <point x="19" y="2" type="line"/>
      <point x="110" y="2" type="line"/>
      <point x="283.432" y="445.139" type="line"/>
    </contour>
  </outline>
</glyph>
<glyph name="mu" format="2">
  <advance width="637"/>
  <unicode hex="03BC"/>
  <outline>
    <contour>
      <point x="70" y="-198" type="line"/>
      <point x="160" y="-198" type="line"/>
      <point x="160" y="501" type="line"/>
      <point x="70" y="501" type="line"/>
    </contour>
    <contour>
      <point x="423" y="113.647" type="line" smooth="yes"/>
      <point x="423" y="29.4902"/>
      <point x="463.467" y="-13"/>
      <point x="543" y="-13" type="curve" smooth="yes"/>
      <point x="571.021" y="-13"/>
      <point x="597.512" y="-9.53553"/>
      <point x="624" y="0" type="curve"/>
      <point x="624" y="65" type="line"/>
      <point x="604.477" y="58.8992"/>
      <point x="583.421" y="56"/>
      <point x="563" y="56" type="curve" smooth="yes"/>
      <point x="525" y="56"/>
      <point x="513" y="87"/>
      <point x="513" y="132" type="curve" smooth="yes"/>
      <point x="513" y="501" type="line"/>
      <point x="423" y="501" type="line"/>
    </contour>
    <contour>
      <point x="160" y="170" type="curve"/>
      <point x="140" y="170" type="line"/>
      <point x="140" y="26.0287" type="line"/>
      <point x="160" y="13" type="line" smooth="yes"/>
      <point x="185.332" y="-3.50182"/>
      <point x="219" y="-13"/>
      <point x="262" y="-13" type="curve" smooth="yes"/>
      <point x="338.673" y="-13"/>
      <point x="403.188" y="19.6528"/>
      <point x="436.805" y="86.2178" type="curve"/>
      <point x="433" y="188.338" type="line"/>
      <point x="423" y="179" type="line"/>
      <point x="423" y="105"/>
      <point x="354" y="48"/>
      <point x="281" y="48" type="curve" smooth="yes"/>
      <point x="215" y="48"/>
      <point x="160" y="104"/>
    </contour>
  </outline>
</glyph>
<glyph name="pi" format="2">
  <advance width="622"/>
  <unicode hex="03C0"/>
  <outline>
    <contour>
      <point x="30" y="429" type="line"/>
      <point x="592" y="429" type="line"/>
      <point x="592" y="501" type="line"/>
      <point x="30" y="501" type="line"/>
    </contour>
    <contour>
      <point x="100" y="444" type="line"/>
      <point x="100" y="0" type="line"/>
      <point x="190" y="0" type="line"/>
      <point x="190" y="444" type="line"/>
    </contour>
    <contour>
      <point x="429" y="444" type="line"/>
      <point x="429" y="77" type="line" smooth="yes"/>
      <point x="429" y="34.4207"/>
      <point x="454" y="-8"/>
      <point x="514" y="-8" type="curve" smooth="yes"/>
      <point x="539.202" y="-8"/>
      <point x="566.026" y="-5.35674"/>
      <point x="591" y="-1" type="curve"/>
      <point x="591" y="66" type="line"/>
      <point x="578.501" y="63.2955"/>
      <point x="568.04" y="62.0587"/>
      <point x="559.32" y="62.0509" type="curve" smooth="yes"/>
      <point x="527.743" y="62.0228"/>
      <point x="519" y="78.1136"/>
      <point x="519" y="99" type="curve" smooth="yes"/>
      <point x="519" y="444" type="line"/>
    </contour>
  </outline>
</glyph>
<glyph name="rho" format="2">
  <advance width="563"/>
  <unicode hex="03C1"/>
  <outline>
    <contour>
      <point x="80" y="-200" type="line"/>
      <point x="80" y="283" type="line" smooth="yes"/>
      <point x="80" y="448.873"/>
      <point x="181.877" y="517"/>
      <point x="301.638" y="517" type="curve" smooth="yes"/>
      <point x="471.947" y="517"/>
      <point x="550" y="401.916"/>
      <point x="550" y="240" type="curve" smooth="yes"/>
      <point x="550" y="91"/>
      <point x="462.022" y="-15"/>
      <point x="320.444" y="-15" type="curve" smooth="yes"/>
      <point x="263.038" y="-15"/>
      <point x="208.601" y="15"/>
      <point x="170" y="57" type="curve"/>
      <point x="170" y="-200" type="line"/>
    </contour>
    <contour>
      <point x="163" y="270" type="curve" smooth="yes"/>
      <point x="163" y="230" type="line" smooth="yes"/>
      <point x="163" y="136"/>
      <point x="224.437" y="53"/>
      <point x="311.536" y="53" type="curve" smooth="yes"/>
      <point x="425.358" y="53"/>
      <point x="460" y="165"/>
      <point x="460" y="241" type="curve" smooth="yes"/>
      <point x="460" y="252" type="line" smooth="yes"/>
      <point x="460" y="353"/>
      <point x="412.491" y="443"/>
      <point x="312.526" y="443" type="curve" smooth="yes"/>
      <point x="207.693" y="443"/>
      <point x="163" y="361.799"/>
    </contour>
  </outline>
</glyph>
<glyph name="upsilon" format="2">
  <advance width="588"/>
  <unicode hex="03C5"/>
  <anchor x="284" y="600" name="tonos.top"/>
  <outline>
    <contour>
      <point x="80" y="158" type="line" smooth="yes"/>
      <point x="80" y="37.9149"/>
      <point x="178.434" y="-12"/>
      <point x="271.75" y="-12" type="curve" smooth="yes"/>
      <point x="316.274" y="-12" type="line" smooth="yes"/>
      <point x="389.682" y="-12"/>
      <point x="508" y="38"/>
      <point x="508" y="158" type="curve" smooth="yes"/>
      <point x="508" y="500" type="line"/>
      <point x="418" y="500" type="line"/>
      <point x="418" y="165" type="line" smooth="yes"/>
      <point x="418" y="64.6153"/>
      <point x="365.173" y="54"/>
      <point x="294.46" y="54" type="curve" smooth="yes"/>
      <point x="244.661" y="54"/>
      <point x="170" y="65"/>
      <point x="170" y="165" type="curve" smooth="yes"/>
      <point x="170" y="500" type="line"/>
      <point x="80" y="500" type="line"/>
    </contour>
  </outline>
</glyph>
<glyph name="phi" format="2">
  <advance width="727"/>
  <unicode hex="03C6"/>
  <outline>
    <contour>
      <point x="318" y="62" type="curve"/>
      <point x="318" y="514" type="line"/>
      <point x="384" y="514" type="line" smooth="yes"/>
      <point x="562.759" y="514"/>
      <point x="667" y="420.37"/>
      <point x="667" y="259.809" type="curve" smooth="yes"/>
      <point x="667" y="105.258"/>
      <point x="558.148" y="-7"/>
      <point x="408" y="-7" type="curve"/>
      <point x="408" y="-195" type="line"/>
      <point x="318" y="-195" type="line"/>
      <point x="318" y="-7" type="line"/>
      <point x="163.23" y="-7"/>
      <point x="60" y="98.7917"/>
      <point x="60" y="260" type="curve" smooth="yes"/>
      <point x="60" y="395.826"/>
      <point x="131.697" y="488.63"/>
      <point x="244" y="504.282" type="curve"/>
      <point x="244" y="440" type="line"/>
      <point x="174.185" y="407.697"/>
      <point x="145" y="352.492"/>
      <point x="145" y="259.617" type="curve" smooth="yes"/>
      <point x="145" y="140.511"/>
      <point x="212.954" y="62"/>
    </contour>
    <contour>
      <point x="408" y="445" type="curve"/>
      <point x="408" y="62" type="line"/>
      <point x="514.967" y="62"/>
      <point x="582.069" y="138.047"/>
      <point x="582" y="260" type="curve" smooth="yes"/>
      <point x="581.937" y="372.273"/>
      <point x="514.967" y="445"/>
    </contour>
  </outline>
</glyph>
<glyph name="uni03D0" format="2">
  <advance width="608"/>
  <unicode hex="03D0"/>
  <outline>
    <contour>
      <point x="352.773" y="658" type="curve" smooth="yes"/>
      <point x="400.12" y="658"/>
      <point x="435.378" y="611.182"/>
      <point x="435.378" y="563.478" type="curve" smooth="yes"/>
      <point x="435.378" y="525.657"/>
      <point x="413.216" y="484.873"/>
      <point x="361.839" y="458" type="curve"/>
      <point x="348.743" y="461"/>
      <point x="334.64" y="462"/>
      <point x="322.988" y="462" type="curve" smooth="yes"/>
      <point x="257.072" y="462"/>
      <point x="196.629" y="430"/>
      <point x="154.545" y="376" type="curve"/>
      <point x="165.4" y="489.845"/>
      <point x="206.703" y="658"/>
    </contour>
    <contour>
      <point x="162.378" y="225" type="line" smooth="yes"/>
      <point x="162.378" y="317.114"/>
      <point x="227.032" y="386"/>
      <point x="312.663" y="386" type="curve" smooth="yes"/>
      <point x="399.112" y="386"/>
      <point x="452.378" y="315.985"/>
      <point x="452.378" y="205" type="curve" smooth="yes"/>
      <point x="452.378" y="132.947"/>
      <point x="401.127" y="52"/>
      <point x="314.009" y="52" type="curve" smooth="yes"/>
      <point x="240.954" y="52"/>
      <point x="162.378" y="111"/>
      <point x="162.378" y="206" type="curve" smooth="yes"/>
    </contour>
    <contour>
      <point x="352.605" y="734" type="curve" smooth="yes"/>
      <point x="122.595" y="734"/>
      <point x="68.3779" y="444.972"/>
      <point x="68.3779" y="270" type="curve" smooth="yes"/>
      <point x="68.3779" y="155"/>
      <point x="109.503" y="-12"/>
      <point x="300.381" y="-12" type="curve" smooth="yes"/>
      <point x="419.26" y="-12"/>
      <point x="542.378" y="54"/>
      <point x="542.378" y="225" type="curve" smooth="yes"/>
      <point x="542.378" y="244" type="line" smooth="yes"/>
      <point x="542.378" y="317"/>
      <point x="495.378" y="403"/>
      <point x="431.348" y="432" type="curve"/>
      <point x="479.378" y="464.983"/>
      <point x="522.378" y="516.707"/>
      <point x="522.378" y="577.37" type="curve" smooth="yes"/>
      <point x="522.378" y="598.32" type="line" smooth="yes"/>
      <point x="522.378" y="679.117"/>
      <point x="456.457" y="734"/>
    </contour>
  </outline>
</glyph>
<glyph name="uni0404" format="2">
  <advance width="711"/>
  <unicode hex="0404"/>
  <outline>
    <contour>
      <point x="662" y="573" type="curve"/>
      <point x="551" y="574" type="line"/>
      <point x="514" y="625"/>
      <point x="456" y="650"/>
      <point x="377" y="650" type="curve" smooth="yes"/>
      <point x="196" y="650"/>
      <point x="155" y="499"/>
      <point x="155" y="414" type="curve"/>
      <point x="444" y="414" type="line"/>
      <point x="444" y="327" type="line"/>
      <point x="155" y="327" type="line"/>
      <point x="158" y="185"/>
      <point x="214" y="75"/>
      <point x="377" y="75" type="curve" smooth="yes"/>
      <point x="463" y="75"/>
      <point x="519" y="113"/>
      <point x="553" y="167" type="curve"/>
      <point x="662" y="167" type="line"/>
      <point x="615" y="67"/>
      <point x="516" y="-13"/>
      <point x="376" y="-13" type="curve" smooth="yes"/>
      <point x="174" y="-13"/>
      <point x="49" y="144"/>
      <point x="49" y="376" type="curve" smooth="yes"/>
      <point x="49" y="589"/>
      <point x="159" y="736"/>
      <point x="375" y="736" type="curve" smooth="yes"/>
      <point x="517" y="736"/>
      <point x="611" y="674"/>
    </contour>
  </outline>
</glyph>
<glyph name="Dzhecyr" format="2">
  <advance width="688"/>
  <unicode hex="040F"/>
  <outline>
    <component base="uni041F" yScale="-1" yOffset="722"/>
    <contour>
      <point x="294" y="-160" type="line"/>
      <point x="394" y="-160" type="line"/>
      <point x="394" y="0" type="line"/>
      <point x="294" y="0" type="line"/>
    </contour>
  </outline>
  <guideline angle="90" x="344" y="0"/>
</glyph>
<glyph name="uni0411" format="2">
  <advance width="653"/>
  <unicode hex="0411"/>
  <outline>
    <component base="uni042C"/>
    <contour>
      <point x="499" y="635" type="line"/>
      <point x="499" y="722" type="line"/>
      <point x="180.046" y="722" type="line"/>
      <point x="180" y="635" type="line"/>
    </contour>
  </outline>
</glyph>
<glyph name="uni0413" format="2">
  <advance width="509"/>
  <unicode hex="0413"/>
  <outline>
    <contour>
      <point x="70" y="0" type="line"/>
      <point x="170" y="0" type="line"/>
      <point x="170" y="722" type="line"/>
      <point x="70" y="722" type="line"/>
    </contour>
    <contour>
      <point x="489" y="635" type="line"/>
      <point x="489" y="722" type="line"/>
      <point x="170.045" y="722" type="line"/>
      <point x="170" y="635" type="line"/>
    </contour>
  </outline>
</glyph>
<glyph name="uni0417" format="2">
  <advance width="567"/>
  <unicode hex="0417"/>
  <outline>
    <contour>
      <point x="48" y="190" type="curve"/>
      <point x="154" y="190" type="line"/>
      <point x="162" y="105"/>
      <point x="204" y="63"/>
      <point x="281" y="63" type="curve" smooth="yes"/>
      <point x="364.03" y="63"/>
      <point x="415" y="113.209"/>
      <point x="415" y="195" type="curve" smooth="yes"/>
      <point x="415" y="284.218"/>
      <point x="354.404" y="336"/>
      <point x="250" y="336" type="curve" smooth="yes"/>
      <point x="213" y="336" type="line"/>
      <point x="213" y="416" type="line"/>
      <point x="242" y="416" type="line" smooth="yes"/>
      <point x="344.836" y="416"/>
      <point x="403" y="463.166"/>
      <point x="403" y="546.557" type="curve" smooth="yes"/>
      <point x="403" y="615.921"/>
      <point x="361.738" y="659"/>
      <point x="295.301" y="659" type="curve" smooth="yes"/>
      <point x="227.559" y="659"/>
      <point x="179.226" y="612.987"/>
      <point x="164" y="534" type="curve"/>
      <point x="63" y="534" type="line"/>
      <point x="82.6456" y="665.316"/>
      <point x="160.87" y="736"/>
      <point x="288.897" y="736" type="curve" smooth="yes"/>
      <point x="417.972" y="736"/>
      <point x="503" y="663.391"/>
      <point x="503" y="554.438" type="curve" smooth="yes"/>
      <point x="503" y="468.458"/>
      <point x="450.049" y="398.767"/>
      <point x="371" y="377" type="curve"/>
      <point x="371" y="381" type="line"/>
      <point x="458.084" y="360.807"/>
      <point x="515" y="289.554"/>
      <point x="515" y="195.839" type="curve" smooth="yes"/>
      <point x="515" y="72.7492"/>
      <point x="416.811" y="-14"/>
      <point x="276.661" y="-14" type="curve" smooth="yes"/>
      <point x="139.51" y="-14"/>
      <point x="48" y="69.0763"/>
    </contour>
  </outline>
</glyph>
<glyph name="uni0419" format="2">
  <advance width="703"/>
  <unicode hex="0419"/>
  <outline>
    <component base="uni0418"/>
    <contour>
      <point x="351" y="840" type="curve" smooth="yes"/>
      <point x="399" y="840"/>
      <point x="420" y="866"/>
      <point x="420" y="897" type="curve"/>
      <point x="522" y="897" type="line"/>
      <point x="522" y="834.535"/>
      <point x="455.962" y="760"/>
      <point x="351" y="760" type="curve" smooth="yes"/>
      <point x="246.209" y="760"/>
      <point x="181" y="834.224"/>
      <point x="181" y="897" type="curve"/>
      <point x="283" y="897" type="line"/>
      <point x="283" y="867"/>
      <point x="304" y="840"/>
    </contour>
  </outline>
  <guideline angle="90" x="351" y="0"/>
</glyph>
<glyph name="uni041A" format="2">
  <advance width="635"/>
  <unicode hex="041A"/>
  <outline>
    <contour>
      <point x="70" y="0" type="line"/>
      <point x="170" y="0" type="line"/>
      <point x="170" y="722" type="line"/>
      <point x="70" y="722" type="line"/>
    </contour>
    <contour>
      <point x="240" y="415" type="line"/>
      <point x="240" y="351.33" type="line"/>
      <point x="294.486" y="350.977"/>
      <point x="319.458" y="337.506"/>
      <point x="340.761" y="298.544" type="curve" smooth="yes"/>
      <point x="504" y="0" type="line"/>
      <point x="639" y="0" type="line"/>
      <point x="439.177" y="357.302" type="line" smooth="yes"/>
      <point x="417.981" y="395.203"/>
      <point x="391.876" y="420.235"/>
      <point x="347.298" y="420.202" type="curve"/>
      <point x="346.57" y="402.46" type="line"/>
      <point x="602" y="722" type="line"/>
      <point x="478" y="722" type="line"/>
    </contour>
    <contour>
      <point x="170" y="445" type="line"/>
      <point x="170" y="351" type="line"/>
      <point x="298" y="351" type="line"/>
      <point x="298" y="445" type="line"/>
    </contour>
  </outline>
  <guideline angle="45.8523" x="180" y="415"/>
  <guideline angle="225.371" x="602" y="722"/>
  <guideline angle="309.929" x="295" y="411"/>
  <guideline angle="130.378" x="504" y="0"/>
</glyph>
<glyph name="uni041F" format="2">
  <advance width="688"/>
  <unicode hex="041F"/>
  <outline>
    <contour>
      <point x="70" y="0" type="line"/>
      <point x="70" y="722" type="line"/>
      <point x="170" y="722" type="line"/>
      <point x="170" y="0" type="line"/>
    </contour>
    <contour>
      <point x="618" y="0" type="line"/>
      <point x="517" y="0" type="line"/>
      <point x="517" y="722.013" type="line"/>
      <point x="618" y="722" type="line"/>
    </contour>
    <contour>
      <point x="516.956" y="722" type="line"/>
      <point x="516.644" y="635" type="line"/>
      <point x="169.886" y="635" type="line"/>
      <point x="170" y="722" type="line"/>
    </contour>
  </outline>
</glyph>
<glyph name="uni0423" format="2">
  <advance width="676"/>
  <unicode hex="0423"/>
  <outline>
    <contour>
      <point x="656" y="722" type="line"/>
      <point x="542" y="722" type="line"/>
      <point x="344.819" y="306.76" type="line"/>
      <point x="336.374" y="280.535" type="line"/>
      <point x="269.887" y="143.82" type="line" smooth="yes"/>
      <point x="241.725" y="85.911"/>
      <point x="223.755" y="71"/>
      <point x="182.13" y="71" type="curve" smooth="yes"/>
      <point x="152.13" y="71"/>
      <point x="109.276" y="75.4374"/>
      <point x="91.7287" y="85.1725" type="curve"/>
      <point x="84.1877" y="82.3391" type="line"/>
      <point x="91.0511" y="6.57557" type="line"/>
      <point x="119.509" y="-2.91027"/>
      <point x="157.13" y="-10"/>
      <point x="200.13" y="-10" type="curve" smooth="yes"/>
      <point x="266.868" y="-10"/>
      <point x="304.329" y="14.263"/>
      <point x="336" y="78" type="curve" smooth="yes"/>
    </contour>
    <contour>
      <point x="370.522" y="283.13" type="line"/>
      <point x="143" y="722" type="line"/>
      <point x="20" y="722" type="line"/>
      <point x="315.577" y="177.218" type="line"/>
    </contour>
  </outline>
</glyph>
<glyph name="uni0427" format="2">
  <advance width="706"/>
  <unicode hex="0427"/>
  <outline>
    <contour>
      <point x="535" y="722" type="line"/>
      <point x="535" y="0" type="line"/>
      <point x="636" y="0" type="line"/>
      <point x="636" y="722" type="line"/>
    </contour>
    <contour>
      <point x="349.364" y="220" type="curve" smooth="yes"/>
      <point x="416.32" y="220"/>
      <point x="494.926" y="247.59"/>
      <point x="545.398" y="288.806" type="curve"/>
      <point x="545.398" y="368.997" type="line"/>
      <point x="499.333" y="327.012"/>
      <point x="440.242" y="308"/>
      <point x="355.815" y="308" type="curve" smooth="yes"/>
      <point x="207.534" y="308"/>
      <point x="160" y="367.157"/>
      <point x="160" y="520.186" type="curve" smooth="yes"/>
      <point x="160" y="722" type="line"/>
      <point x="59" y="722" type="line"/>
      <point x="59" y="520.186" type="line" smooth="yes"/>
      <point x="59" y="306.041"/>
      <point x="136.912" y="220"/>
    </contour>
  </outline>
</glyph>
<glyph name="uni0428" format="2">
  <advance width="963"/>
  <unicode hex="0428"/>
  <outline>
    <contour>
      <point x="431" y="87" type="line"/>
      <point x="431" y="722" type="line"/>
      <point x="532" y="722" type="line"/>
      <point x="532" y="87" type="line"/>
      <point x="792" y="87" type="line"/>
      <point x="792" y="722" type="line"/>
      <point x="893" y="722" type="line"/>
      <point x="893" y="0" type="line"/>
      <point x="70" y="0" type="line"/>
      <point x="70" y="722" type="line"/>
      <point x="171" y="722" type="line"/>
      <point x="171" y="87" type="line"/>
    </contour>
  </outline>
  <guideline angle="90" x="488" y="0"/>
</glyph>
<glyph name="uni042C" format="2">
  <advance width="592"/>
  <unicode hex="042C"/>
  <outline>
    <contour>
      <point x="70" y="0" type="line"/>
      <point x="170" y="0" type="line"/>
      <point x="170" y="722" type="line"/>
      <point x="70" y="722" type="line"/>
    </contour>
    <contour>
      <point x="268" y="328" type="line" smooth="yes"/>
      <point x="377" y="328"/>
      <point x="447" y="308"/>
      <point x="447" y="209" type="curve" smooth="yes"/>
      <point x="447" y="110"/>
      <point x="376" y="87"/>
      <point x="268" y="87" type="curve" smooth="yes"/>
      <point x="150" y="87" type="line"/>
      <point x="150" y="0" type="line"/>
      <point x="265" y="0" type="line" smooth="yes"/>
      <point x="424" y="0"/>
      <point x="544" y="37"/>
      <point x="544" y="209" type="curve" smooth="yes"/>
      <point x="544" y="375"/>
      <point x="427" y="417"/>
      <point x="265" y="417" type="curve" smooth="yes"/>
      <point x="150" y="417" type="line"/>
      <point x="150" y="328" type="line"/>
    </contour>
  </outline>
</glyph>
<glyph name="uni042D" format="2">
  <advance width="711"/>
  <unicode hex="042D"/>
  <outline>
    <contour>
      <point x="50" y="165" type="line"/>
      <point x="97" y="65"/>
      <point x="196" y="-15"/>
      <point x="338.864" y="-15" type="curve" smooth="yes"/>
      <point x="539" y="-15"/>
      <point x="663" y="142"/>
      <point x="663" y="369.387" type="curve" smooth="yes"/>
      <point x="663" y="584.525"/>
      <point x="552" y="733"/>
      <point x="337" y="733" type="curve" smooth="yes"/>
      <point x="196" y="733"/>
      <point x="102" y="670.565"/>
      <point x="51" y="570.644" type="curve"/>
      <point x="161" y="570.644" type="line"/>
      <point x="198" y="621.212"/>
      <point x="256" y="646"/>
      <point x="333.219" y="646" type="curve" smooth="yes"/>
      <point x="512.17" y="646"/>
      <point x="559.071" y="512.874"/>
      <point x="559.071" y="366.25" type="curve" smooth="yes"/>
      <point x="559.071" y="212.718"/>
      <point x="524.555" y="73"/>
      <point x="343.449" y="73" type="curve" smooth="yes"/>
      <point x="249" y="73"/>
      <point x="193" y="111"/>
      <point x="159" y="165" type="curve"/>
    </contour>
    <contour>
      <point x="572" y="412" type="line"/>
      <point x="268" y="412" type="line"/>
      <point x="268" y="325" type="line"/>
      <point x="572" y="325" type="line"/>
    </contour>
  </outline>
</glyph>
<glyph name="uni042E" format="2">
  <advance width="954"/>
  <unicode hex="042E"/>
  <outline>
    <component base="I" xOffset="-10"/>
    <component base="O" xOffset="200"/>
    <contour>
      <point x="275" y="409" type="line"/>
      <point x="275" y="322" type="line"/>
      <point x="170" y="322" type="line"/>
      <point x="170" y="409" type="line"/>
    </contour>
  </outline>
</glyph>
<glyph name="uni042F" format="2">
  <advance width="626"/>
  <unicode hex="042F"/>
  <outline>
    <component base="I" xOffset="376"/>
    <contour>
      <point x="331.871" y="414" type="line" smooth="yes"/>
      <point x="238.526" y="414"/>
      <point x="171" y="436"/>
      <point x="171" y="524" type="curve" smooth="yes"/>
      <point x="171" y="613"/>
      <point x="238.526" y="634"/>
      <point x="331.871" y="634" type="curve" smooth="yes"/>
      <point x="455.936" y="634" type="line"/>
      <point x="455.936" y="722" type="line"/>
      <point x="330.878" y="722" type="line" smooth="yes"/>
      <point x="156.717" y="722"/>
      <point x="70" y="668"/>
      <point x="70" y="525" type="curve" smooth="yes"/>
      <point x="70" y="460.678"/>
      <point x="123.314" y="389.119"/>
      <point x="221.387" y="363.635" type="curve"/>
      <point x="221.993" y="369.343" type="line"/>
      <point x="148.286" y="360.534"/>
      <point x="108.376" y="314.673"/>
      <point x="90.5546" y="218.609" type="curve" smooth="yes"/>
      <point x="50" y="0" type="line"/>
      <point x="155.697" y="0" type="line"/>
      <point x="189.518" y="181.318" type="line" smooth="yes"/>
      <point x="210.689" y="294.816"/>
      <point x="242.396" y="326"/>
      <point x="339.815" y="326" type="curve" smooth="yes"/>
      <point x="456" y="326" type="line"/>
      <point x="456" y="414" type="line"/>
    </contour>
  </outline>
</glyph>
<glyph name="uni0432" format="2">
  <advance width="544"/>
  <unicode hex="0432"/>
  <outline>
    <component base="dotlessi"/>
    <contour>
      <point x="170" y="0" type="line"/>
      <point x="342" y="0" type="line" smooth="yes"/>
      <point x="434" y="0"/>
      <point x="496" y="60"/>
      <point x="496" y="139" type="curve" smooth="yes"/>
      <point x="496" y="205"/>
      <point x="451" y="254"/>
      <point x="390" y="267" type="curve"/>
      <point x="390" y="269" type="line"/>
      <point x="438" y="280"/>
      <point x="474" y="324"/>
      <point x="474" y="382" type="curve" smooth="yes"/>
      <point x="474" y="458"/>
      <point x="412" y="500"/>
      <point x="316" y="500" type="curve" smooth="yes"/>
      <point x="170" y="500" type="line"/>
      <point x="170" y="435" type="line"/>
      <point x="306" y="435" type="line" smooth="yes"/>
      <point x="354" y="435"/>
      <point x="380" y="411"/>
      <point x="380" y="365" type="curve" smooth="yes"/>
      <point x="380" y="318"/>
      <point x="352" y="290"/>
      <point x="290" y="290" type="curve" smooth="yes"/>
      <point x="170" y="290" type="line"/>
      <point x="170" y="225" type="line"/>
      <point x="302" y="225" type="line" smooth="yes"/>
      <point x="368" y="225"/>
      <point x="402" y="199"/>
      <point x="402" y="147" type="curve" smooth="yes"/>
      <point x="402" y="97"/>
      <point x="371" y="65"/>
      <point x="318" y="65" type="curve" smooth="yes"/>
      <point x="170" y="65" type="line"/>
    </contour>
  </outline>
</glyph>
<glyph name="uni0433" format="2">
  <advance width="397"/>
  <unicode hex="0433"/>
  <outline>
    <contour>
      <point x="81" y="500" type="line"/>
      <point x="81" y="0" type="line"/>
      <point x="171" y="0" type="line"/>
      <point x="171" y="500" type="line"/>
    </contour>
    <contour>
      <point x="80.8745" y="435" type="line"/>
      <point x="387" y="435" type="line"/>
      <point x="387" y="500" type="line"/>
      <point x="81" y="500" type="line"/>
    </contour>
  </outline>
</glyph>
<glyph name="uni0438" format="2">
  <advance width="620"/>
  <unicode hex="0438"/>
  <outline>
    <contour>
      <point x="80" y="0" type="line"/>
      <point x="177" y="0" type="line"/>
      <point x="453" y="377" type="line"/>
      <point x="456" y="377" type="line"/>
      <point x="451" y="339.064"/>
      <point x="450" y="317.664"/>
      <point x="450" y="279.728" type="curve" smooth="yes"/>
      <point x="450" y="0" type="line"/>
      <point x="540" y="0" type="line"/>
      <point x="540" y="500" type="line"/>
      <point x="443" y="500" type="line"/>
      <point x="167" y="124" type="line"/>
      <point x="164" y="124" type="line"/>
      <point x="169" y="161.504"/>
      <point x="170" y="182.66"/>
      <point x="170" y="220.164" type="curve" smooth="yes"/>
      <point x="170" y="500" type="line"/>
      <point x="80" y="500" type="line"/>
    </contour>
  </outline>
</glyph>
<glyph name="uni0439" format="2">
  <advance width="620"/>
  <unicode hex="0439"/>
  <outline>
    <component base="uni0438"/>
    <contour>
      <point x="236.483" y="722" type="line"/>
      <point x="240.873" y="665.447"/>
      <point x="265.117" y="637.921"/>
      <point x="310.01" y="637.921" type="curve" smooth="yes"/>
      <point x="352.42" y="637.921"/>
      <point x="375.041" y="662.487"/>
      <point x="383.483" y="722" type="curve"/>
      <point x="452.483" y="722" type="line"/>
      <point x="447.478" y="633.912"/>
      <point x="395.396" y="584"/>
      <point x="310" y="584" type="curve" smooth="yes"/>
      <point x="224.983" y="584"/>
      <point x="173.513" y="633.47"/>
      <point x="168.483" y="722" type="curve"/>
    </contour>
  </outline>
  <guideline angle="90" x="310" y="0"/>
  <guideline angle="0" x="0" y="650"/>
</glyph>
<glyph name="uni043A" format="2">
  <advance width="539"/>
  <unicode hex="043A"/>
  <outline>
    <component base="dotlessi"/>
    <contour>
      <point x="202" y="272" type="line"/>
      <point x="388" y="500" type="line"/>
      <point x="506" y="500" type="line"/>
      <point x="311" y="260" type="line"/>
      <point x="311" y="268" type="line"/>
      <point x="339.561" y="266.107"/>
      <point x="357.2" y="255.779"/>
      <point x="372.098" y="232.227" type="curve" smooth="yes"/>
      <point x="519" y="0" type="line"/>
      <point x="401" y="0" type="line"/>
      <point x="295.03" y="165.556" type="line" smooth="yes"/>
      <point x="271.255" y="202.699"/>
      <point x="254.249" y="211"/>
      <point x="202" y="211" type="curve"/>
    </contour>
    <contour>
      <point x="170" y="305" type="line"/>
      <point x="268" y="305" type="line"/>
      <point x="268" y="211" type="line"/>
      <point x="170" y="211" type="line"/>
    </contour>
  </outline>
</glyph>
<glyph name="uni043B" format="2">
  <advance width="576"/>
  <unicode hex="043B"/>
  <outline>
    <contour>
      <point x="27.1888" y="74.4153" type="line"/>
      <point x="28.8113" y="75.5847" type="line"/>
      <point x="34" y="73"/>
      <point x="46" y="69"/>
      <point x="57.6737" y="69" type="curve" smooth="yes"/>
      <point x="108" y="69"/>
      <point x="121.277" y="143.251"/>
      <point x="132" y="372" type="curve" smooth="yes"/>
      <point x="138" y="500" type="line"/>
      <point x="496" y="500" type="line"/>
      <point x="496" y="0" type="line"/>
      <point x="406" y="0" type="line"/>
      <point x="406" y="435" type="line"/>
      <point x="224" y="435" type="line"/>
      <point x="219" y="327" type="line" smooth="yes"/>
      <point x="207.901" y="87.2568"/>
      <point x="180" y="-7"/>
      <point x="82.1561" y="-7" type="curve" smooth="yes"/>
      <point x="62" y="-7"/>
      <point x="40" y="-3"/>
      <point x="30" y="0" type="curve"/>
    </contour>
  </outline>
</glyph>
<glyph name="uni043C" format="2">
  <advance width="790"/>
  <unicode hex="043C"/>
  <outline>
    <contour>
      <point x="710" y="0" type="line"/>
      <point x="620" y="0" type="line"/>
      <point x="620" y="339.891" type="line" smooth="yes"/>
      <point x="620" y="379.782"/>
      <point x="621.66" y="402.177"/>
      <point x="626" y="442" type="curve"/>
      <point x="630.367" y="441.177" type="line"/>
      <point x="452" y="0" type="line"/>
      <point x="336" y="0" type="line"/>
      <point x="159.678" y="441.195" type="line"/>
      <point x="164" y="442" type="line"/>
      <point x="168.34" y="402.319"/>
      <point x="170" y="380.004"/>
      <point x="170" y="340.254" type="curve" smooth="yes"/>
      <point x="170" y="0" type="line"/>
      <point x="80" y="0" type="line"/>
      <point x="80" y="500" type="line"/>
      <point x="235" y="500" type="line"/>
      <point x="398.09" y="66.7186" type="line"/>
      <point x="389.886" y="66.7272" type="line"/>
      <point x="554" y="500" type="line"/>
      <point x="710" y="500" type="line"/>
    </contour>
  </outline>
  <guideline angle="90" x="395" y="0"/>
  <guideline angle="0" x="0" y="21"/>
  <guideline angle="111.757" x="336" y="0"/>
  <guideline angle="290.629" x="235" y="500"/>
  <guideline angle="290.629" x="235" y="500"/>
</glyph>
<glyph name="uni0442" format="2">
  <advance width="454"/>
  <unicode hex="0442"/>
  <outline>
    <contour>
      <point x="182" y="0" type="line"/>
      <point x="182" y="435" type="line"/>
      <point x="20" y="435" type="line"/>
      <point x="20" y="500" type="line"/>
      <point x="434" y="500" type="line"/>
      <point x="434" y="435" type="line"/>
      <point x="272" y="435" type="line"/>
      <point x="272" y="0" type="line"/>
    </contour>
  </outline>
  <guideline angle="90" x="231" y="0"/>
</glyph>
<glyph name="uni0444" format="2">
  <advance width="826"/>
  <unicode hex="0444"/>
  <outline>
    <contour>
      <point x="368" y="-198" type="line"/>
      <point x="458" y="-198" type="line"/>
      <point x="458" y="722" type="line"/>
      <point x="368" y="722" type="line"/>
    </contour>
    <contour>
      <point x="60" y="249" type="curve" smooth="yes"/>
      <point x="60" y="93"/>
      <point x="133" y="-14"/>
      <point x="273" y="-14" type="curve" smooth="yes"/>
      <point x="320.284" y="-14"/>
      <point x="352.897" y="-2.44954"/>
      <point x="377.856" y="24.2026" type="curve"/>
      <point x="378.308" y="64.0053" type="line"/>
      <point x="359.076" y="55"/>
      <point x="324.103" y="49"/>
      <point x="298.84" y="49" type="curve" smooth="yes"/>
      <point x="201" y="49"/>
      <point x="160" y="139"/>
      <point x="160" y="250" type="curve" smooth="yes"/>
      <point x="160" y="361"/>
      <point x="201" y="449"/>
      <point x="295.628" y="449" type="curve" smooth="yes"/>
      <point x="329.179" y="449"/>
      <point x="358.68" y="437.937"/>
      <point x="377.583" y="420.023" type="curve"/>
      <point x="377.52" y="463.968" type="line"/>
      <point x="356.764" y="491.649"/>
      <point x="310.109" y="513"/>
      <point x="273" y="513" type="curve" smooth="yes"/>
      <point x="133" y="513"/>
      <point x="60" y="406"/>
    </contour>
    <contour>
      <point x="448" y="24.137" type="curve"/>
      <point x="447.692" y="64.0053" type="line"/>
      <point x="466.925" y="55"/>
      <point x="501.898" y="49"/>
      <point x="527.16" y="49" type="curve" smooth="yes"/>
      <point x="625" y="49"/>
      <point x="672" y="139"/>
      <point x="672" y="250" type="curve" smooth="yes"/>
      <point x="672" y="361"/>
      <point x="625" y="449"/>
      <point x="529.453" y="449" type="curve" smooth="yes"/>
      <point x="496.185" y="449"/>
      <point x="467.736" y="438.332"/>
      <point x="448.417" y="420.023" type="curve"/>
      <point x="448.428" y="463.954" type="line"/>
      <point x="471.781" y="491.675"/>
      <point x="516.8" y="513"/>
      <point x="553" y="513" type="curve" smooth="yes"/>
      <point x="693" y="513"/>
      <point x="766" y="406"/>
      <point x="766" y="249" type="curve" smooth="yes"/>
      <point x="766" y="93"/>
      <point x="693" y="-14"/>
      <point x="554.939" y="-14" type="curve" smooth="yes"/>
      <point x="507.276" y="-14"/>
      <point x="472.019" y="-1.24748"/>
    </contour>
  </outline>
</glyph>
